G04 #@! TF.GenerationSoftware,KiCad,Pcbnew,5.1.4-e60b266~84~ubuntu18.04.1*
G04 #@! TF.CreationDate,2019-09-17T17:50:47+10:00*
G04 #@! TF.ProjectId,RC-Endpoint-Limiter,52432d45-6e64-4706-9f69-6e742d4c696d,rev?*
G04 #@! TF.SameCoordinates,Original*
G04 #@! TF.FileFunction,Copper,L2,Bot*
G04 #@! TF.FilePolarity,Positive*
%FSLAX46Y46*%
G04 Gerber Fmt 4.6, Leading zero omitted, Abs format (unit mm)*
G04 Created by KiCad (PCBNEW 5.1.4-e60b266~84~ubuntu18.04.1) date 2019-09-17 17:50:47*
%MOMM*%
%LPD*%
G04 APERTURE LIST*
%ADD10O,1.000000X1.000000*%
%ADD11R,1.000000X1.000000*%
%ADD12C,3.500000*%
%ADD13R,3.500000X3.500000*%
%ADD14C,1.400000*%
%ADD15O,1.350000X1.700000*%
%ADD16O,1.100000X1.500000*%
%ADD17C,0.800000*%
%ADD18C,0.250000*%
%ADD19C,1.000000*%
G04 APERTURE END LIST*
D10*
X99695000Y-45339000D03*
X99695000Y-46609000D03*
X98425000Y-45339000D03*
X98425000Y-46609000D03*
X97155000Y-45339000D03*
D11*
X97155000Y-46609000D03*
D10*
X86233000Y-55880000D03*
X86233000Y-57150000D03*
X86233000Y-58420000D03*
D11*
X86233000Y-59690000D03*
D10*
X107886500Y-65468500D03*
X109156500Y-65468500D03*
D11*
X110426500Y-65468500D03*
D12*
X129349500Y-47227500D03*
D13*
X129349500Y-42227500D03*
D14*
X124349500Y-50227500D03*
X124349500Y-39227500D03*
D12*
X129349500Y-61785500D03*
D13*
X129349500Y-56785500D03*
D14*
X124349500Y-64785500D03*
X124349500Y-53785500D03*
D10*
X86233000Y-38150800D03*
X86233000Y-39420800D03*
D11*
X86233000Y-40690800D03*
D10*
X86233000Y-50088800D03*
X86233000Y-51358800D03*
D11*
X86233000Y-52628800D03*
D10*
X86233000Y-62280800D03*
X86233000Y-63550800D03*
D11*
X86233000Y-64820800D03*
X104267000Y-65532000D03*
D10*
X102997000Y-65532000D03*
X101727000Y-65532000D03*
D15*
X98545000Y-38878000D03*
X104005000Y-38878000D03*
D16*
X98855000Y-41878000D03*
X103695000Y-41878000D03*
D17*
X103505000Y-43815000D03*
X107950000Y-40005000D03*
X103695490Y-46672510D03*
X91630500Y-39941500D03*
X115697000Y-37655500D03*
X110013750Y-56419750D03*
X110464500Y-49440000D03*
X126111000Y-52832000D03*
X120904000Y-42037000D03*
X112903000Y-55880000D03*
X94996000Y-64643000D03*
X102365000Y-58515000D03*
X91459989Y-55712257D03*
X90297000Y-57733010D03*
X96850000Y-50495000D03*
X89662000Y-52895500D03*
X98869500Y-58674000D03*
X88519000Y-49339500D03*
X91376500Y-47498000D03*
X88519004Y-65151000D03*
X106807000Y-59282502D03*
X115316000Y-59309008D03*
X91186000Y-45085000D03*
X106038422Y-58403636D03*
X108331000Y-49276000D03*
X119761000Y-44831000D03*
X98171000Y-55565000D03*
X91397863Y-54262246D03*
X101092000Y-61187500D03*
X102997000Y-60833000D03*
X107759500Y-58557502D03*
X118270922Y-59714602D03*
X106172000Y-62774990D03*
X102489000Y-46990000D03*
X98933000Y-56896000D03*
X111764653Y-55621347D03*
X111887000Y-54610000D03*
X105918000Y-65241000D03*
X105791000Y-63754000D03*
X114046002Y-61721998D03*
X108751010Y-62774990D03*
X99187000Y-50419000D03*
X101346000Y-48133000D03*
D18*
X103505000Y-43815000D02*
X107315000Y-40005000D01*
X107315000Y-40005000D02*
X107950000Y-40005000D01*
X103505000Y-43815000D02*
X103505000Y-46482020D01*
X103505000Y-46482020D02*
X103695490Y-46672510D01*
X92030499Y-39541501D02*
X92030499Y-38779501D01*
X91630500Y-39941500D02*
X92030499Y-39541501D01*
X92030499Y-38779501D02*
X93154500Y-37655500D01*
X93154500Y-37655500D02*
X115697000Y-37655500D01*
X110013750Y-56419750D02*
X110013750Y-49890750D01*
X110013750Y-49890750D02*
X110464500Y-49440000D01*
X121303999Y-42436999D02*
X120904000Y-42037000D01*
X126111000Y-47244000D02*
X121303999Y-42436999D01*
X126111000Y-52832000D02*
X126111000Y-47244000D01*
X110013750Y-56419750D02*
X112363250Y-56419750D01*
X112363250Y-56419750D02*
X112903000Y-55880000D01*
X102365000Y-58515000D02*
X102365000Y-56010000D01*
X102365000Y-56010000D02*
X96850000Y-50495000D01*
X91859988Y-56112256D02*
X91459989Y-55712257D01*
X94996000Y-64643000D02*
X94996000Y-59248268D01*
X94996000Y-59248268D02*
X91859988Y-56112256D01*
X86233000Y-59690000D02*
X88340010Y-59690000D01*
X88340010Y-59690000D02*
X90297000Y-57733010D01*
X91757500Y-39941500D02*
X91630500Y-39941500D01*
X97155000Y-45339000D02*
X91757500Y-39941500D01*
X86233000Y-53378800D02*
X86233000Y-55880000D01*
X86233000Y-52628800D02*
X86233000Y-53378800D01*
X85483000Y-64820800D02*
X85217000Y-64554800D01*
X86233000Y-64820800D02*
X85483000Y-64820800D01*
X85217000Y-56896000D02*
X86233000Y-55880000D01*
X85217000Y-64554800D02*
X85217000Y-56896000D01*
X95182756Y-54987256D02*
X98469501Y-58274001D01*
X89662000Y-54205260D02*
X90443996Y-54987256D01*
X89662000Y-52895500D02*
X89662000Y-54205260D01*
X90443996Y-54987256D02*
X95182756Y-54987256D01*
X98469501Y-58274001D02*
X98869500Y-58674000D01*
X86233000Y-41440800D02*
X86233000Y-40690800D01*
X85186010Y-42487790D02*
X86233000Y-41440800D01*
X86233000Y-52579802D02*
X85186010Y-51532812D01*
X86233000Y-52628800D02*
X86233000Y-52579802D01*
X85186010Y-51532812D02*
X85186010Y-42487790D01*
D19*
X88519000Y-49339500D02*
X89471500Y-49339500D01*
X89471500Y-49339500D02*
X91313000Y-47498000D01*
X91313000Y-47498000D02*
X91376500Y-47498000D01*
X88519000Y-49339500D02*
X88519000Y-54399270D01*
X88519000Y-54399270D02*
X92412730Y-58293000D01*
X88947012Y-64722992D02*
X88919003Y-64751001D01*
X92412730Y-61257274D02*
X88519004Y-65151000D01*
X92412730Y-58293000D02*
X92412730Y-61257274D01*
D18*
X106807000Y-59282502D02*
X115289494Y-59282502D01*
X115289494Y-59282502D02*
X115316000Y-59309008D01*
X91186000Y-45085000D02*
X92719786Y-45085000D01*
X92719786Y-45085000D02*
X106038422Y-58403636D01*
X119195315Y-44831000D02*
X119761000Y-44831000D01*
X112730042Y-44831000D02*
X119195315Y-44831000D01*
X108331000Y-49230042D02*
X112730042Y-44831000D01*
X98171000Y-55565000D02*
X96868246Y-54262246D01*
X91963548Y-54262246D02*
X91397863Y-54262246D01*
X96868246Y-54262246D02*
X91963548Y-54262246D01*
X101092000Y-61187500D02*
X102642500Y-61187500D01*
X102642500Y-61187500D02*
X102997000Y-60833000D01*
X117113822Y-58557502D02*
X117870923Y-59314603D01*
X117870923Y-59314603D02*
X118270922Y-59714602D01*
X107759500Y-58557502D02*
X117113822Y-58557502D01*
X107886500Y-64489490D02*
X107886500Y-65468500D01*
X106172000Y-62774990D02*
X107886500Y-64489490D01*
X105918000Y-65241000D02*
X105918000Y-63881000D01*
X105918000Y-63881000D02*
X105791000Y-63754000D01*
X113480317Y-61721998D02*
X114046002Y-61721998D01*
X108731000Y-61721998D02*
X113480317Y-61721998D01*
X108026009Y-62426989D02*
X108731000Y-61721998D01*
X108026009Y-63122991D02*
X108026009Y-62426989D01*
X108656501Y-63753483D02*
X108026009Y-63122991D01*
X108656501Y-64968501D02*
X108656501Y-63753483D01*
X109156500Y-65468500D02*
X108656501Y-64968501D01*
X110426500Y-65468500D02*
X110426500Y-65341500D01*
X110426500Y-64450480D02*
X110426500Y-65468500D01*
X108751010Y-62774990D02*
X110426500Y-64450480D01*
X99695000Y-49911000D02*
X99695000Y-46609000D01*
X99187000Y-50419000D02*
X99695000Y-49911000D01*
X101346000Y-45133998D02*
X101346000Y-48133000D01*
X100281002Y-44069000D02*
X101346000Y-45133998D01*
X98806000Y-44069000D02*
X100281002Y-44069000D01*
X98425000Y-45339000D02*
X98425000Y-44450000D01*
X98425000Y-44450000D02*
X98806000Y-44069000D01*
M02*
