G04 #@! TF.GenerationSoftware,KiCad,Pcbnew,5.1.4-e60b266~84~ubuntu18.04.1*
G04 #@! TF.CreationDate,2019-09-17T17:50:47+10:00*
G04 #@! TF.ProjectId,RC-Endpoint-Limiter,52432d45-6e64-4706-9f69-6e742d4c696d,rev?*
G04 #@! TF.SameCoordinates,Original*
G04 #@! TF.FileFunction,Soldermask,Bot*
G04 #@! TF.FilePolarity,Negative*
%FSLAX46Y46*%
G04 Gerber Fmt 4.6, Leading zero omitted, Abs format (unit mm)*
G04 Created by KiCad (PCBNEW 5.1.4-e60b266~84~ubuntu18.04.1) date 2019-09-17 17:50:47*
%MOMM*%
%LPD*%
G04 APERTURE LIST*
%ADD10C,0.100000*%
G04 APERTURE END LIST*
D10*
G36*
X101835015Y-64988973D02*
G01*
X101938879Y-65020479D01*
X101966055Y-65035005D01*
X102034600Y-65071643D01*
X102118501Y-65140499D01*
X102187357Y-65224400D01*
X102209262Y-65265382D01*
X102238521Y-65320121D01*
X102242388Y-65332869D01*
X102251760Y-65355496D01*
X102265374Y-65375870D01*
X102282701Y-65393197D01*
X102303075Y-65406811D01*
X102325714Y-65416188D01*
X102349747Y-65420969D01*
X102374251Y-65420969D01*
X102398285Y-65416189D01*
X102420924Y-65406812D01*
X102441298Y-65393198D01*
X102458625Y-65375871D01*
X102472239Y-65355497D01*
X102481612Y-65332869D01*
X102485479Y-65320121D01*
X102514738Y-65265382D01*
X102536643Y-65224400D01*
X102605499Y-65140499D01*
X102689400Y-65071643D01*
X102757945Y-65035005D01*
X102785121Y-65020479D01*
X102888985Y-64988973D01*
X102969933Y-64981000D01*
X103024067Y-64981000D01*
X103105015Y-64988973D01*
X103208879Y-65020479D01*
X103236055Y-65035005D01*
X103304600Y-65071643D01*
X103388501Y-65140499D01*
X103457356Y-65224400D01*
X103480764Y-65268193D01*
X103494375Y-65288563D01*
X103511702Y-65305890D01*
X103532076Y-65319504D01*
X103554715Y-65328881D01*
X103578748Y-65333662D01*
X103603252Y-65333662D01*
X103627286Y-65328882D01*
X103649924Y-65319505D01*
X103670299Y-65305891D01*
X103687626Y-65288564D01*
X103701240Y-65268190D01*
X103710617Y-65245551D01*
X103715398Y-65221518D01*
X103716000Y-65209265D01*
X103716000Y-64981000D01*
X104818000Y-64981000D01*
X104818000Y-66083000D01*
X103716000Y-66083000D01*
X103716000Y-65854735D01*
X103713598Y-65830349D01*
X103706485Y-65806900D01*
X103694934Y-65785289D01*
X103679389Y-65766347D01*
X103660447Y-65750802D01*
X103638836Y-65739251D01*
X103615387Y-65732138D01*
X103591001Y-65729736D01*
X103566615Y-65732138D01*
X103543166Y-65739251D01*
X103521555Y-65750802D01*
X103502613Y-65766347D01*
X103487068Y-65785289D01*
X103480767Y-65795802D01*
X103457356Y-65839600D01*
X103388501Y-65923501D01*
X103304600Y-65992357D01*
X103236055Y-66028995D01*
X103208879Y-66043521D01*
X103105015Y-66075027D01*
X103024067Y-66083000D01*
X102969933Y-66083000D01*
X102888985Y-66075027D01*
X102785121Y-66043521D01*
X102757945Y-66028995D01*
X102689400Y-65992357D01*
X102605499Y-65923501D01*
X102536643Y-65839600D01*
X102497489Y-65766347D01*
X102485479Y-65743879D01*
X102481612Y-65731131D01*
X102472240Y-65708504D01*
X102458626Y-65688130D01*
X102441299Y-65670803D01*
X102420925Y-65657189D01*
X102398286Y-65647812D01*
X102374253Y-65643031D01*
X102349749Y-65643031D01*
X102325715Y-65647811D01*
X102303076Y-65657188D01*
X102282702Y-65670802D01*
X102265375Y-65688129D01*
X102251761Y-65708503D01*
X102242388Y-65731131D01*
X102238521Y-65743879D01*
X102226511Y-65766347D01*
X102187357Y-65839600D01*
X102118501Y-65923501D01*
X102034600Y-65992357D01*
X101966055Y-66028995D01*
X101938879Y-66043521D01*
X101835015Y-66075027D01*
X101754067Y-66083000D01*
X101699933Y-66083000D01*
X101618985Y-66075027D01*
X101515121Y-66043521D01*
X101487945Y-66028995D01*
X101419400Y-65992357D01*
X101335499Y-65923501D01*
X101266643Y-65839600D01*
X101227489Y-65766347D01*
X101215479Y-65743879D01*
X101183973Y-65640015D01*
X101173334Y-65532000D01*
X101183973Y-65423985D01*
X101215479Y-65320121D01*
X101244738Y-65265382D01*
X101266643Y-65224400D01*
X101335499Y-65140499D01*
X101419400Y-65071643D01*
X101487945Y-65035005D01*
X101515121Y-65020479D01*
X101618985Y-64988973D01*
X101699933Y-64981000D01*
X101754067Y-64981000D01*
X101835015Y-64988973D01*
X101835015Y-64988973D01*
G37*
G36*
X107994515Y-64925473D02*
G01*
X108098379Y-64956979D01*
X108125555Y-64971505D01*
X108194100Y-65008143D01*
X108278001Y-65076999D01*
X108346857Y-65160900D01*
X108358162Y-65182051D01*
X108398021Y-65256621D01*
X108401888Y-65269369D01*
X108411260Y-65291996D01*
X108424874Y-65312370D01*
X108442201Y-65329697D01*
X108462575Y-65343311D01*
X108485214Y-65352688D01*
X108509247Y-65357469D01*
X108533751Y-65357469D01*
X108557785Y-65352689D01*
X108580424Y-65343312D01*
X108600798Y-65329698D01*
X108618125Y-65312371D01*
X108631739Y-65291997D01*
X108641112Y-65269369D01*
X108644979Y-65256621D01*
X108684838Y-65182051D01*
X108696143Y-65160900D01*
X108764999Y-65076999D01*
X108848900Y-65008143D01*
X108917445Y-64971505D01*
X108944621Y-64956979D01*
X109048485Y-64925473D01*
X109129433Y-64917500D01*
X109183567Y-64917500D01*
X109264515Y-64925473D01*
X109368379Y-64956979D01*
X109395555Y-64971505D01*
X109464100Y-65008143D01*
X109541475Y-65071643D01*
X109548001Y-65076999D01*
X109616856Y-65160900D01*
X109640264Y-65204693D01*
X109653875Y-65225063D01*
X109671202Y-65242390D01*
X109691576Y-65256004D01*
X109714215Y-65265381D01*
X109738248Y-65270162D01*
X109762752Y-65270162D01*
X109786786Y-65265382D01*
X109809424Y-65256005D01*
X109829799Y-65242391D01*
X109847126Y-65225064D01*
X109860740Y-65204690D01*
X109870117Y-65182051D01*
X109874898Y-65158018D01*
X109875500Y-65145765D01*
X109875500Y-64917500D01*
X110977500Y-64917500D01*
X110977500Y-66019500D01*
X109875500Y-66019500D01*
X109875500Y-65791235D01*
X109873098Y-65766849D01*
X109865985Y-65743400D01*
X109854434Y-65721789D01*
X109838889Y-65702847D01*
X109819947Y-65687302D01*
X109798336Y-65675751D01*
X109774887Y-65668638D01*
X109750501Y-65666236D01*
X109726115Y-65668638D01*
X109702666Y-65675751D01*
X109681055Y-65687302D01*
X109662113Y-65702847D01*
X109646568Y-65721789D01*
X109640267Y-65732302D01*
X109616856Y-65776100D01*
X109616855Y-65776101D01*
X109548001Y-65860001D01*
X109464100Y-65928857D01*
X109395555Y-65965495D01*
X109368379Y-65980021D01*
X109264515Y-66011527D01*
X109183567Y-66019500D01*
X109129433Y-66019500D01*
X109048485Y-66011527D01*
X108944621Y-65980021D01*
X108917445Y-65965495D01*
X108848900Y-65928857D01*
X108764999Y-65860001D01*
X108696143Y-65776100D01*
X108649122Y-65688129D01*
X108644979Y-65680379D01*
X108641112Y-65667631D01*
X108631740Y-65645004D01*
X108618126Y-65624630D01*
X108600799Y-65607303D01*
X108580425Y-65593689D01*
X108557786Y-65584312D01*
X108533753Y-65579531D01*
X108509249Y-65579531D01*
X108485215Y-65584311D01*
X108462576Y-65593688D01*
X108442202Y-65607302D01*
X108424875Y-65624629D01*
X108411261Y-65645003D01*
X108401888Y-65667631D01*
X108398021Y-65680379D01*
X108393878Y-65688129D01*
X108346857Y-65776100D01*
X108278001Y-65860001D01*
X108194100Y-65928857D01*
X108125555Y-65965495D01*
X108098379Y-65980021D01*
X107994515Y-66011527D01*
X107913567Y-66019500D01*
X107859433Y-66019500D01*
X107778485Y-66011527D01*
X107674621Y-65980021D01*
X107647445Y-65965495D01*
X107578900Y-65928857D01*
X107494999Y-65860001D01*
X107426143Y-65776100D01*
X107379122Y-65688129D01*
X107374979Y-65680379D01*
X107343473Y-65576515D01*
X107332834Y-65468500D01*
X107343473Y-65360485D01*
X107374979Y-65256621D01*
X107414838Y-65182051D01*
X107426143Y-65160900D01*
X107494999Y-65076999D01*
X107578900Y-65008143D01*
X107647445Y-64971505D01*
X107674621Y-64956979D01*
X107778485Y-64925473D01*
X107859433Y-64917500D01*
X107913567Y-64917500D01*
X107994515Y-64925473D01*
X107994515Y-64925473D01*
G37*
G36*
X124568559Y-64063360D02*
G01*
X124677573Y-64108515D01*
X124705232Y-64119972D01*
X124828235Y-64202160D01*
X124932840Y-64306765D01*
X125015028Y-64429768D01*
X125071640Y-64566441D01*
X125100500Y-64711533D01*
X125100500Y-64859467D01*
X125071640Y-65004559D01*
X125015028Y-65141232D01*
X124932840Y-65264235D01*
X124828235Y-65368840D01*
X124705232Y-65451028D01*
X124705231Y-65451029D01*
X124705230Y-65451029D01*
X124568559Y-65507640D01*
X124423468Y-65536500D01*
X124275532Y-65536500D01*
X124130441Y-65507640D01*
X123993770Y-65451029D01*
X123993769Y-65451029D01*
X123993768Y-65451028D01*
X123870765Y-65368840D01*
X123766160Y-65264235D01*
X123683972Y-65141232D01*
X123627360Y-65004559D01*
X123598500Y-64859467D01*
X123598500Y-64711533D01*
X123627360Y-64566441D01*
X123683972Y-64429768D01*
X123766160Y-64306765D01*
X123870765Y-64202160D01*
X123993768Y-64119972D01*
X124021428Y-64108515D01*
X124130441Y-64063360D01*
X124275532Y-64034500D01*
X124423468Y-64034500D01*
X124568559Y-64063360D01*
X124568559Y-64063360D01*
G37*
G36*
X86341015Y-61737773D02*
G01*
X86444879Y-61769279D01*
X86472055Y-61783805D01*
X86540600Y-61820443D01*
X86624501Y-61889299D01*
X86693357Y-61973200D01*
X86729995Y-62041745D01*
X86744521Y-62068921D01*
X86776027Y-62172785D01*
X86786666Y-62280800D01*
X86776027Y-62388815D01*
X86744521Y-62492679D01*
X86744519Y-62492682D01*
X86693357Y-62588400D01*
X86624501Y-62672301D01*
X86540600Y-62741157D01*
X86472055Y-62777795D01*
X86444879Y-62792321D01*
X86432131Y-62796188D01*
X86409504Y-62805560D01*
X86389130Y-62819174D01*
X86371803Y-62836501D01*
X86358189Y-62856875D01*
X86348812Y-62879514D01*
X86344031Y-62903547D01*
X86344031Y-62928051D01*
X86348811Y-62952085D01*
X86358188Y-62974724D01*
X86371802Y-62995098D01*
X86389129Y-63012425D01*
X86409503Y-63026039D01*
X86432131Y-63035412D01*
X86444879Y-63039279D01*
X86472055Y-63053805D01*
X86540600Y-63090443D01*
X86624501Y-63159299D01*
X86693357Y-63243200D01*
X86729995Y-63311745D01*
X86744521Y-63338921D01*
X86776027Y-63442785D01*
X86786666Y-63550800D01*
X86776027Y-63658815D01*
X86744521Y-63762679D01*
X86744519Y-63762682D01*
X86693357Y-63858400D01*
X86624501Y-63942301D01*
X86540600Y-64011156D01*
X86496807Y-64034564D01*
X86476437Y-64048175D01*
X86459110Y-64065502D01*
X86445496Y-64085876D01*
X86436119Y-64108515D01*
X86431338Y-64132548D01*
X86431338Y-64157052D01*
X86436118Y-64181086D01*
X86445495Y-64203724D01*
X86459109Y-64224099D01*
X86476436Y-64241426D01*
X86496810Y-64255040D01*
X86519449Y-64264417D01*
X86543482Y-64269198D01*
X86555735Y-64269800D01*
X86784000Y-64269800D01*
X86784000Y-65371800D01*
X85682000Y-65371800D01*
X85682000Y-64269800D01*
X85910265Y-64269800D01*
X85934651Y-64267398D01*
X85958100Y-64260285D01*
X85979711Y-64248734D01*
X85998653Y-64233189D01*
X86014198Y-64214247D01*
X86025749Y-64192636D01*
X86032862Y-64169187D01*
X86035264Y-64144801D01*
X86032862Y-64120415D01*
X86025749Y-64096966D01*
X86014198Y-64075355D01*
X85998653Y-64056413D01*
X85979711Y-64040868D01*
X85969198Y-64034567D01*
X85925400Y-64011156D01*
X85841499Y-63942301D01*
X85772643Y-63858400D01*
X85721481Y-63762682D01*
X85721479Y-63762679D01*
X85689973Y-63658815D01*
X85679334Y-63550800D01*
X85689973Y-63442785D01*
X85721479Y-63338921D01*
X85736005Y-63311745D01*
X85772643Y-63243200D01*
X85841499Y-63159299D01*
X85925400Y-63090443D01*
X85993945Y-63053805D01*
X86021121Y-63039279D01*
X86033869Y-63035412D01*
X86056496Y-63026040D01*
X86076870Y-63012426D01*
X86094197Y-62995099D01*
X86107811Y-62974725D01*
X86117188Y-62952086D01*
X86121969Y-62928053D01*
X86121969Y-62903549D01*
X86117189Y-62879515D01*
X86107812Y-62856876D01*
X86094198Y-62836502D01*
X86076871Y-62819175D01*
X86056497Y-62805561D01*
X86033869Y-62796188D01*
X86021121Y-62792321D01*
X85993945Y-62777795D01*
X85925400Y-62741157D01*
X85841499Y-62672301D01*
X85772643Y-62588400D01*
X85721481Y-62492682D01*
X85721479Y-62492679D01*
X85689973Y-62388815D01*
X85679334Y-62280800D01*
X85689973Y-62172785D01*
X85721479Y-62068921D01*
X85736005Y-62041745D01*
X85772643Y-61973200D01*
X85841499Y-61889299D01*
X85925400Y-61820443D01*
X85993945Y-61783805D01*
X86021121Y-61769279D01*
X86124985Y-61737773D01*
X86205933Y-61729800D01*
X86260067Y-61729800D01*
X86341015Y-61737773D01*
X86341015Y-61737773D01*
G37*
G36*
X129874831Y-60053711D02*
G01*
X130202592Y-60189474D01*
X130497570Y-60386572D01*
X130748428Y-60637430D01*
X130945526Y-60932408D01*
X131081289Y-61260169D01*
X131150500Y-61608116D01*
X131150500Y-61962884D01*
X131081289Y-62310831D01*
X130945526Y-62638592D01*
X130748428Y-62933570D01*
X130497570Y-63184428D01*
X130202592Y-63381526D01*
X129874831Y-63517289D01*
X129526884Y-63586500D01*
X129172116Y-63586500D01*
X128824169Y-63517289D01*
X128496408Y-63381526D01*
X128201430Y-63184428D01*
X127950572Y-62933570D01*
X127753474Y-62638592D01*
X127617711Y-62310831D01*
X127548500Y-61962884D01*
X127548500Y-61608116D01*
X127617711Y-61260169D01*
X127753474Y-60932408D01*
X127950572Y-60637430D01*
X128201430Y-60386572D01*
X128496408Y-60189474D01*
X128824169Y-60053711D01*
X129172116Y-59984500D01*
X129526884Y-59984500D01*
X129874831Y-60053711D01*
X129874831Y-60053711D01*
G37*
G36*
X86341015Y-55336973D02*
G01*
X86444879Y-55368479D01*
X86472055Y-55383005D01*
X86540600Y-55419643D01*
X86624501Y-55488499D01*
X86693357Y-55572400D01*
X86729995Y-55640945D01*
X86744521Y-55668121D01*
X86776027Y-55771985D01*
X86786666Y-55880000D01*
X86776027Y-55988015D01*
X86744521Y-56091879D01*
X86744519Y-56091882D01*
X86693357Y-56187600D01*
X86624501Y-56271501D01*
X86540600Y-56340357D01*
X86472055Y-56376995D01*
X86444879Y-56391521D01*
X86432131Y-56395388D01*
X86409504Y-56404760D01*
X86389130Y-56418374D01*
X86371803Y-56435701D01*
X86358189Y-56456075D01*
X86348812Y-56478714D01*
X86344031Y-56502747D01*
X86344031Y-56527251D01*
X86348811Y-56551285D01*
X86358188Y-56573924D01*
X86371802Y-56594298D01*
X86389129Y-56611625D01*
X86409503Y-56625239D01*
X86432131Y-56634612D01*
X86444879Y-56638479D01*
X86472055Y-56653005D01*
X86540600Y-56689643D01*
X86624501Y-56758499D01*
X86693357Y-56842400D01*
X86729995Y-56910945D01*
X86744521Y-56938121D01*
X86776027Y-57041985D01*
X86786666Y-57150000D01*
X86776027Y-57258015D01*
X86744521Y-57361879D01*
X86744519Y-57361882D01*
X86693357Y-57457600D01*
X86624501Y-57541501D01*
X86540600Y-57610357D01*
X86472055Y-57646995D01*
X86444879Y-57661521D01*
X86432131Y-57665388D01*
X86409504Y-57674760D01*
X86389130Y-57688374D01*
X86371803Y-57705701D01*
X86358189Y-57726075D01*
X86348812Y-57748714D01*
X86344031Y-57772747D01*
X86344031Y-57797251D01*
X86348811Y-57821285D01*
X86358188Y-57843924D01*
X86371802Y-57864298D01*
X86389129Y-57881625D01*
X86409503Y-57895239D01*
X86432131Y-57904612D01*
X86444879Y-57908479D01*
X86472055Y-57923005D01*
X86540600Y-57959643D01*
X86624501Y-58028499D01*
X86693357Y-58112400D01*
X86729995Y-58180945D01*
X86744521Y-58208121D01*
X86776027Y-58311985D01*
X86786666Y-58420000D01*
X86776027Y-58528015D01*
X86744521Y-58631879D01*
X86744519Y-58631882D01*
X86693357Y-58727600D01*
X86624501Y-58811501D01*
X86540600Y-58880356D01*
X86496807Y-58903764D01*
X86476437Y-58917375D01*
X86459110Y-58934702D01*
X86445496Y-58955076D01*
X86436119Y-58977715D01*
X86431338Y-59001748D01*
X86431338Y-59026252D01*
X86436118Y-59050286D01*
X86445495Y-59072924D01*
X86459109Y-59093299D01*
X86476436Y-59110626D01*
X86496810Y-59124240D01*
X86519449Y-59133617D01*
X86543482Y-59138398D01*
X86555735Y-59139000D01*
X86784000Y-59139000D01*
X86784000Y-60241000D01*
X85682000Y-60241000D01*
X85682000Y-59139000D01*
X85910265Y-59139000D01*
X85934651Y-59136598D01*
X85958100Y-59129485D01*
X85979711Y-59117934D01*
X85998653Y-59102389D01*
X86014198Y-59083447D01*
X86025749Y-59061836D01*
X86032862Y-59038387D01*
X86035264Y-59014001D01*
X86032862Y-58989615D01*
X86025749Y-58966166D01*
X86014198Y-58944555D01*
X85998653Y-58925613D01*
X85979711Y-58910068D01*
X85969198Y-58903767D01*
X85925400Y-58880356D01*
X85841499Y-58811501D01*
X85772643Y-58727600D01*
X85721481Y-58631882D01*
X85721479Y-58631879D01*
X85689973Y-58528015D01*
X85679334Y-58420000D01*
X85689973Y-58311985D01*
X85721479Y-58208121D01*
X85736005Y-58180945D01*
X85772643Y-58112400D01*
X85841499Y-58028499D01*
X85925400Y-57959643D01*
X85993945Y-57923005D01*
X86021121Y-57908479D01*
X86033869Y-57904612D01*
X86056496Y-57895240D01*
X86076870Y-57881626D01*
X86094197Y-57864299D01*
X86107811Y-57843925D01*
X86117188Y-57821286D01*
X86121969Y-57797253D01*
X86121969Y-57772749D01*
X86117189Y-57748715D01*
X86107812Y-57726076D01*
X86094198Y-57705702D01*
X86076871Y-57688375D01*
X86056497Y-57674761D01*
X86033869Y-57665388D01*
X86021121Y-57661521D01*
X85993945Y-57646995D01*
X85925400Y-57610357D01*
X85841499Y-57541501D01*
X85772643Y-57457600D01*
X85721481Y-57361882D01*
X85721479Y-57361879D01*
X85689973Y-57258015D01*
X85679334Y-57150000D01*
X85689973Y-57041985D01*
X85721479Y-56938121D01*
X85736005Y-56910945D01*
X85772643Y-56842400D01*
X85841499Y-56758499D01*
X85925400Y-56689643D01*
X85993945Y-56653005D01*
X86021121Y-56638479D01*
X86033869Y-56634612D01*
X86056496Y-56625240D01*
X86076870Y-56611626D01*
X86094197Y-56594299D01*
X86107811Y-56573925D01*
X86117188Y-56551286D01*
X86121969Y-56527253D01*
X86121969Y-56502749D01*
X86117189Y-56478715D01*
X86107812Y-56456076D01*
X86094198Y-56435702D01*
X86076871Y-56418375D01*
X86056497Y-56404761D01*
X86033869Y-56395388D01*
X86021121Y-56391521D01*
X85993945Y-56376995D01*
X85925400Y-56340357D01*
X85841499Y-56271501D01*
X85772643Y-56187600D01*
X85721481Y-56091882D01*
X85721479Y-56091879D01*
X85689973Y-55988015D01*
X85679334Y-55880000D01*
X85689973Y-55771985D01*
X85721479Y-55668121D01*
X85736005Y-55640945D01*
X85772643Y-55572400D01*
X85841499Y-55488499D01*
X85925400Y-55419643D01*
X85993945Y-55383005D01*
X86021121Y-55368479D01*
X86124985Y-55336973D01*
X86205933Y-55329000D01*
X86260067Y-55329000D01*
X86341015Y-55336973D01*
X86341015Y-55336973D01*
G37*
G36*
X131150500Y-58586500D02*
G01*
X127548500Y-58586500D01*
X127548500Y-54984500D01*
X131150500Y-54984500D01*
X131150500Y-58586500D01*
X131150500Y-58586500D01*
G37*
G36*
X124568559Y-53063360D02*
G01*
X124705232Y-53119972D01*
X124828235Y-53202160D01*
X124932840Y-53306765D01*
X125015028Y-53429768D01*
X125071640Y-53566441D01*
X125100500Y-53711533D01*
X125100500Y-53859467D01*
X125071640Y-54004559D01*
X125015028Y-54141232D01*
X124932840Y-54264235D01*
X124828235Y-54368840D01*
X124705232Y-54451028D01*
X124705231Y-54451029D01*
X124705230Y-54451029D01*
X124568559Y-54507640D01*
X124423468Y-54536500D01*
X124275532Y-54536500D01*
X124130441Y-54507640D01*
X123993770Y-54451029D01*
X123993769Y-54451029D01*
X123993768Y-54451028D01*
X123870765Y-54368840D01*
X123766160Y-54264235D01*
X123683972Y-54141232D01*
X123627360Y-54004559D01*
X123598500Y-53859467D01*
X123598500Y-53711533D01*
X123627360Y-53566441D01*
X123683972Y-53429768D01*
X123766160Y-53306765D01*
X123870765Y-53202160D01*
X123993768Y-53119972D01*
X124130441Y-53063360D01*
X124275532Y-53034500D01*
X124423468Y-53034500D01*
X124568559Y-53063360D01*
X124568559Y-53063360D01*
G37*
G36*
X86341015Y-49545773D02*
G01*
X86444879Y-49577279D01*
X86472055Y-49591805D01*
X86540600Y-49628443D01*
X86624501Y-49697299D01*
X86693357Y-49781200D01*
X86729995Y-49849745D01*
X86744521Y-49876921D01*
X86776027Y-49980785D01*
X86786666Y-50088800D01*
X86776027Y-50196815D01*
X86744521Y-50300679D01*
X86744099Y-50301468D01*
X86693357Y-50396400D01*
X86624501Y-50480301D01*
X86540600Y-50549157D01*
X86476853Y-50583230D01*
X86444879Y-50600321D01*
X86432131Y-50604188D01*
X86409504Y-50613560D01*
X86389130Y-50627174D01*
X86371803Y-50644501D01*
X86358189Y-50664875D01*
X86348812Y-50687514D01*
X86344031Y-50711547D01*
X86344031Y-50736051D01*
X86348811Y-50760085D01*
X86358188Y-50782724D01*
X86371802Y-50803098D01*
X86389129Y-50820425D01*
X86409503Y-50834039D01*
X86432131Y-50843412D01*
X86444879Y-50847279D01*
X86472055Y-50861805D01*
X86540600Y-50898443D01*
X86624501Y-50967299D01*
X86693357Y-51051200D01*
X86729995Y-51119745D01*
X86744521Y-51146921D01*
X86776027Y-51250785D01*
X86786666Y-51358800D01*
X86776027Y-51466815D01*
X86744521Y-51570679D01*
X86744519Y-51570682D01*
X86693357Y-51666400D01*
X86624501Y-51750301D01*
X86540600Y-51819156D01*
X86496807Y-51842564D01*
X86476437Y-51856175D01*
X86459110Y-51873502D01*
X86445496Y-51893876D01*
X86436119Y-51916515D01*
X86431338Y-51940548D01*
X86431338Y-51965052D01*
X86436118Y-51989086D01*
X86445495Y-52011724D01*
X86459109Y-52032099D01*
X86476436Y-52049426D01*
X86496810Y-52063040D01*
X86519449Y-52072417D01*
X86543482Y-52077198D01*
X86555735Y-52077800D01*
X86784000Y-52077800D01*
X86784000Y-53179800D01*
X85682000Y-53179800D01*
X85682000Y-52077800D01*
X85910265Y-52077800D01*
X85934651Y-52075398D01*
X85958100Y-52068285D01*
X85979711Y-52056734D01*
X85998653Y-52041189D01*
X86014198Y-52022247D01*
X86025749Y-52000636D01*
X86032862Y-51977187D01*
X86035264Y-51952801D01*
X86032862Y-51928415D01*
X86025749Y-51904966D01*
X86014198Y-51883355D01*
X85998653Y-51864413D01*
X85979711Y-51848868D01*
X85969198Y-51842567D01*
X85925400Y-51819156D01*
X85841499Y-51750301D01*
X85772643Y-51666400D01*
X85721481Y-51570682D01*
X85721479Y-51570679D01*
X85689973Y-51466815D01*
X85679334Y-51358800D01*
X85689973Y-51250785D01*
X85721479Y-51146921D01*
X85736005Y-51119745D01*
X85772643Y-51051200D01*
X85841499Y-50967299D01*
X85925400Y-50898443D01*
X85993945Y-50861805D01*
X86021121Y-50847279D01*
X86033869Y-50843412D01*
X86056496Y-50834040D01*
X86076870Y-50820426D01*
X86094197Y-50803099D01*
X86107811Y-50782725D01*
X86117188Y-50760086D01*
X86121969Y-50736053D01*
X86121969Y-50711549D01*
X86117189Y-50687515D01*
X86107812Y-50664876D01*
X86094198Y-50644502D01*
X86076871Y-50627175D01*
X86056497Y-50613561D01*
X86033869Y-50604188D01*
X86021121Y-50600321D01*
X85989147Y-50583230D01*
X85925400Y-50549157D01*
X85841499Y-50480301D01*
X85772643Y-50396400D01*
X85721901Y-50301468D01*
X85721479Y-50300679D01*
X85689973Y-50196815D01*
X85679334Y-50088800D01*
X85689973Y-49980785D01*
X85721479Y-49876921D01*
X85736005Y-49849745D01*
X85772643Y-49781200D01*
X85841499Y-49697299D01*
X85925400Y-49628443D01*
X85993945Y-49591805D01*
X86021121Y-49577279D01*
X86124985Y-49545773D01*
X86205933Y-49537800D01*
X86260067Y-49537800D01*
X86341015Y-49545773D01*
X86341015Y-49545773D01*
G37*
G36*
X124568559Y-49505360D02*
G01*
X124666125Y-49545773D01*
X124705232Y-49561972D01*
X124828235Y-49644160D01*
X124932840Y-49748765D01*
X124932841Y-49748767D01*
X125015029Y-49871770D01*
X125071640Y-50008441D01*
X125100500Y-50153532D01*
X125100500Y-50301468D01*
X125071640Y-50446559D01*
X125029143Y-50549157D01*
X125015028Y-50583232D01*
X124932840Y-50706235D01*
X124828235Y-50810840D01*
X124705232Y-50893028D01*
X124705231Y-50893029D01*
X124705230Y-50893029D01*
X124568559Y-50949640D01*
X124423468Y-50978500D01*
X124275532Y-50978500D01*
X124130441Y-50949640D01*
X123993770Y-50893029D01*
X123993769Y-50893029D01*
X123993768Y-50893028D01*
X123870765Y-50810840D01*
X123766160Y-50706235D01*
X123683972Y-50583232D01*
X123669858Y-50549157D01*
X123627360Y-50446559D01*
X123598500Y-50301468D01*
X123598500Y-50153532D01*
X123627360Y-50008441D01*
X123683971Y-49871770D01*
X123766159Y-49748767D01*
X123766160Y-49748765D01*
X123870765Y-49644160D01*
X123993768Y-49561972D01*
X124032876Y-49545773D01*
X124130441Y-49505360D01*
X124275532Y-49476500D01*
X124423468Y-49476500D01*
X124568559Y-49505360D01*
X124568559Y-49505360D01*
G37*
G36*
X129874831Y-45495711D02*
G01*
X130202592Y-45631474D01*
X130497570Y-45828572D01*
X130748428Y-46079430D01*
X130945526Y-46374408D01*
X131081289Y-46702169D01*
X131150500Y-47050116D01*
X131150500Y-47404884D01*
X131081289Y-47752831D01*
X130945526Y-48080592D01*
X130748428Y-48375570D01*
X130497570Y-48626428D01*
X130202592Y-48823526D01*
X129874831Y-48959289D01*
X129526884Y-49028500D01*
X129172116Y-49028500D01*
X128824169Y-48959289D01*
X128496408Y-48823526D01*
X128201430Y-48626428D01*
X127950572Y-48375570D01*
X127753474Y-48080592D01*
X127617711Y-47752831D01*
X127548500Y-47404884D01*
X127548500Y-47050116D01*
X127617711Y-46702169D01*
X127753474Y-46374408D01*
X127950572Y-46079430D01*
X128201430Y-45828572D01*
X128496408Y-45631474D01*
X128824169Y-45495711D01*
X129172116Y-45426500D01*
X129526884Y-45426500D01*
X129874831Y-45495711D01*
X129874831Y-45495711D01*
G37*
G36*
X97263015Y-44795973D02*
G01*
X97366879Y-44827479D01*
X97394055Y-44842005D01*
X97462600Y-44878643D01*
X97546501Y-44947499D01*
X97615357Y-45031400D01*
X97651995Y-45099945D01*
X97666521Y-45127121D01*
X97670388Y-45139869D01*
X97679760Y-45162496D01*
X97693374Y-45182870D01*
X97710701Y-45200197D01*
X97731075Y-45213811D01*
X97753714Y-45223188D01*
X97777747Y-45227969D01*
X97802251Y-45227969D01*
X97826285Y-45223189D01*
X97848924Y-45213812D01*
X97869298Y-45200198D01*
X97886625Y-45182871D01*
X97900239Y-45162497D01*
X97909612Y-45139869D01*
X97913479Y-45127121D01*
X97928005Y-45099945D01*
X97964643Y-45031400D01*
X98033499Y-44947499D01*
X98117400Y-44878643D01*
X98185945Y-44842005D01*
X98213121Y-44827479D01*
X98316985Y-44795973D01*
X98397933Y-44788000D01*
X98452067Y-44788000D01*
X98533015Y-44795973D01*
X98636879Y-44827479D01*
X98664055Y-44842005D01*
X98732600Y-44878643D01*
X98816501Y-44947499D01*
X98885357Y-45031400D01*
X98921995Y-45099945D01*
X98936521Y-45127121D01*
X98940388Y-45139869D01*
X98949760Y-45162496D01*
X98963374Y-45182870D01*
X98980701Y-45200197D01*
X99001075Y-45213811D01*
X99023714Y-45223188D01*
X99047747Y-45227969D01*
X99072251Y-45227969D01*
X99096285Y-45223189D01*
X99118924Y-45213812D01*
X99139298Y-45200198D01*
X99156625Y-45182871D01*
X99170239Y-45162497D01*
X99179612Y-45139869D01*
X99183479Y-45127121D01*
X99198005Y-45099945D01*
X99234643Y-45031400D01*
X99303499Y-44947499D01*
X99387400Y-44878643D01*
X99455945Y-44842005D01*
X99483121Y-44827479D01*
X99586985Y-44795973D01*
X99667933Y-44788000D01*
X99722067Y-44788000D01*
X99803015Y-44795973D01*
X99906879Y-44827479D01*
X99934055Y-44842005D01*
X100002600Y-44878643D01*
X100086501Y-44947499D01*
X100155357Y-45031400D01*
X100191995Y-45099945D01*
X100206521Y-45127121D01*
X100238027Y-45230985D01*
X100248666Y-45339000D01*
X100238027Y-45447015D01*
X100206521Y-45550879D01*
X100206519Y-45550882D01*
X100155357Y-45646600D01*
X100086501Y-45730501D01*
X100002600Y-45799357D01*
X99947942Y-45828572D01*
X99906879Y-45850521D01*
X99894131Y-45854388D01*
X99871504Y-45863760D01*
X99851130Y-45877374D01*
X99833803Y-45894701D01*
X99820189Y-45915075D01*
X99810812Y-45937714D01*
X99806031Y-45961747D01*
X99806031Y-45986251D01*
X99810811Y-46010285D01*
X99820188Y-46032924D01*
X99833802Y-46053298D01*
X99851129Y-46070625D01*
X99871503Y-46084239D01*
X99894131Y-46093612D01*
X99906879Y-46097479D01*
X99934055Y-46112005D01*
X100002600Y-46148643D01*
X100086501Y-46217499D01*
X100155357Y-46301400D01*
X100191995Y-46369945D01*
X100206521Y-46397121D01*
X100238027Y-46500985D01*
X100248666Y-46609000D01*
X100238027Y-46717015D01*
X100206521Y-46820879D01*
X100206191Y-46821496D01*
X100155357Y-46916600D01*
X100086501Y-47000501D01*
X100002600Y-47069357D01*
X99934055Y-47105995D01*
X99906879Y-47120521D01*
X99803015Y-47152027D01*
X99722067Y-47160000D01*
X99667933Y-47160000D01*
X99586985Y-47152027D01*
X99483121Y-47120521D01*
X99455945Y-47105995D01*
X99387400Y-47069357D01*
X99303499Y-47000501D01*
X99234643Y-46916600D01*
X99183809Y-46821496D01*
X99183479Y-46820879D01*
X99179612Y-46808131D01*
X99170240Y-46785504D01*
X99156626Y-46765130D01*
X99139299Y-46747803D01*
X99118925Y-46734189D01*
X99096286Y-46724812D01*
X99072253Y-46720031D01*
X99047749Y-46720031D01*
X99023715Y-46724811D01*
X99001076Y-46734188D01*
X98980702Y-46747802D01*
X98963375Y-46765129D01*
X98949761Y-46785503D01*
X98940388Y-46808131D01*
X98936521Y-46820879D01*
X98936191Y-46821496D01*
X98885357Y-46916600D01*
X98816501Y-47000501D01*
X98732600Y-47069357D01*
X98664055Y-47105995D01*
X98636879Y-47120521D01*
X98533015Y-47152027D01*
X98452067Y-47160000D01*
X98397933Y-47160000D01*
X98316985Y-47152027D01*
X98213121Y-47120521D01*
X98185945Y-47105995D01*
X98117400Y-47069357D01*
X98033499Y-47000501D01*
X97964645Y-46916601D01*
X97964644Y-46916600D01*
X97941236Y-46872807D01*
X97927625Y-46852437D01*
X97910298Y-46835110D01*
X97889924Y-46821496D01*
X97867285Y-46812119D01*
X97843252Y-46807338D01*
X97818748Y-46807338D01*
X97794714Y-46812118D01*
X97772076Y-46821495D01*
X97751701Y-46835109D01*
X97734374Y-46852436D01*
X97720760Y-46872810D01*
X97711383Y-46895449D01*
X97706602Y-46919482D01*
X97706000Y-46931735D01*
X97706000Y-47160000D01*
X96604000Y-47160000D01*
X96604000Y-46058000D01*
X96832265Y-46058000D01*
X96856651Y-46055598D01*
X96880100Y-46048485D01*
X96901711Y-46036934D01*
X96920653Y-46021389D01*
X96936198Y-46002447D01*
X96947749Y-45980836D01*
X96954862Y-45957387D01*
X96957264Y-45933001D01*
X96956058Y-45920748D01*
X97353338Y-45920748D01*
X97353338Y-45945252D01*
X97358118Y-45969286D01*
X97367495Y-45991924D01*
X97381109Y-46012299D01*
X97398436Y-46029626D01*
X97418810Y-46043240D01*
X97441449Y-46052617D01*
X97465482Y-46057398D01*
X97477735Y-46058000D01*
X97706000Y-46058000D01*
X97706000Y-46286265D01*
X97708402Y-46310651D01*
X97715515Y-46334100D01*
X97727066Y-46355711D01*
X97742611Y-46374653D01*
X97761553Y-46390198D01*
X97783164Y-46401749D01*
X97806613Y-46408862D01*
X97830999Y-46411264D01*
X97855385Y-46408862D01*
X97878834Y-46401749D01*
X97900445Y-46390198D01*
X97919387Y-46374653D01*
X97934932Y-46355711D01*
X97941233Y-46345198D01*
X97964644Y-46301400D01*
X98033499Y-46217499D01*
X98117400Y-46148643D01*
X98185945Y-46112005D01*
X98213121Y-46097479D01*
X98225869Y-46093612D01*
X98248496Y-46084240D01*
X98268870Y-46070626D01*
X98286197Y-46053299D01*
X98299811Y-46032925D01*
X98309188Y-46010286D01*
X98313969Y-45986253D01*
X98313969Y-45961749D01*
X98313969Y-45961747D01*
X98536031Y-45961747D01*
X98536031Y-45986251D01*
X98540811Y-46010285D01*
X98550188Y-46032924D01*
X98563802Y-46053298D01*
X98581129Y-46070625D01*
X98601503Y-46084239D01*
X98624131Y-46093612D01*
X98636879Y-46097479D01*
X98664055Y-46112005D01*
X98732600Y-46148643D01*
X98816501Y-46217499D01*
X98885357Y-46301400D01*
X98921995Y-46369945D01*
X98936521Y-46397121D01*
X98940388Y-46409869D01*
X98949760Y-46432496D01*
X98963374Y-46452870D01*
X98980701Y-46470197D01*
X99001075Y-46483811D01*
X99023714Y-46493188D01*
X99047747Y-46497969D01*
X99072251Y-46497969D01*
X99096285Y-46493189D01*
X99118924Y-46483812D01*
X99139298Y-46470198D01*
X99156625Y-46452871D01*
X99170239Y-46432497D01*
X99179612Y-46409869D01*
X99183479Y-46397121D01*
X99198005Y-46369945D01*
X99234643Y-46301400D01*
X99303499Y-46217499D01*
X99387400Y-46148643D01*
X99455945Y-46112005D01*
X99483121Y-46097479D01*
X99495869Y-46093612D01*
X99518496Y-46084240D01*
X99538870Y-46070626D01*
X99556197Y-46053299D01*
X99569811Y-46032925D01*
X99579188Y-46010286D01*
X99583969Y-45986253D01*
X99583969Y-45961749D01*
X99579189Y-45937715D01*
X99569812Y-45915076D01*
X99556198Y-45894702D01*
X99538871Y-45877375D01*
X99518497Y-45863761D01*
X99495869Y-45854388D01*
X99483121Y-45850521D01*
X99442058Y-45828572D01*
X99387400Y-45799357D01*
X99303499Y-45730501D01*
X99234643Y-45646600D01*
X99183481Y-45550882D01*
X99183479Y-45550879D01*
X99179612Y-45538131D01*
X99170240Y-45515504D01*
X99156626Y-45495130D01*
X99139299Y-45477803D01*
X99118925Y-45464189D01*
X99096286Y-45454812D01*
X99072253Y-45450031D01*
X99047749Y-45450031D01*
X99023715Y-45454811D01*
X99001076Y-45464188D01*
X98980702Y-45477802D01*
X98963375Y-45495129D01*
X98949761Y-45515503D01*
X98940388Y-45538131D01*
X98936521Y-45550879D01*
X98936519Y-45550882D01*
X98885357Y-45646600D01*
X98816501Y-45730501D01*
X98732600Y-45799357D01*
X98677942Y-45828572D01*
X98636879Y-45850521D01*
X98624131Y-45854388D01*
X98601504Y-45863760D01*
X98581130Y-45877374D01*
X98563803Y-45894701D01*
X98550189Y-45915075D01*
X98540812Y-45937714D01*
X98536031Y-45961747D01*
X98313969Y-45961747D01*
X98309189Y-45937715D01*
X98299812Y-45915076D01*
X98286198Y-45894702D01*
X98268871Y-45877375D01*
X98248497Y-45863761D01*
X98225869Y-45854388D01*
X98213121Y-45850521D01*
X98172058Y-45828572D01*
X98117400Y-45799357D01*
X98033499Y-45730501D01*
X97964643Y-45646600D01*
X97913481Y-45550882D01*
X97913479Y-45550879D01*
X97909612Y-45538131D01*
X97900240Y-45515504D01*
X97886626Y-45495130D01*
X97869299Y-45477803D01*
X97848925Y-45464189D01*
X97826286Y-45454812D01*
X97802253Y-45450031D01*
X97777749Y-45450031D01*
X97753715Y-45454811D01*
X97731076Y-45464188D01*
X97710702Y-45477802D01*
X97693375Y-45495129D01*
X97679761Y-45515503D01*
X97670388Y-45538131D01*
X97666521Y-45550879D01*
X97666519Y-45550882D01*
X97615357Y-45646600D01*
X97546501Y-45730501D01*
X97462600Y-45799356D01*
X97418807Y-45822764D01*
X97398437Y-45836375D01*
X97381110Y-45853702D01*
X97367496Y-45874076D01*
X97358119Y-45896715D01*
X97353338Y-45920748D01*
X96956058Y-45920748D01*
X96954862Y-45908615D01*
X96947749Y-45885166D01*
X96936198Y-45863555D01*
X96920653Y-45844613D01*
X96901711Y-45829068D01*
X96891198Y-45822767D01*
X96847400Y-45799356D01*
X96763499Y-45730501D01*
X96694643Y-45646600D01*
X96643481Y-45550882D01*
X96643479Y-45550879D01*
X96611973Y-45447015D01*
X96601334Y-45339000D01*
X96611973Y-45230985D01*
X96643479Y-45127121D01*
X96658005Y-45099945D01*
X96694643Y-45031400D01*
X96763499Y-44947499D01*
X96847400Y-44878643D01*
X96915945Y-44842005D01*
X96943121Y-44827479D01*
X97046985Y-44795973D01*
X97127933Y-44788000D01*
X97182067Y-44788000D01*
X97263015Y-44795973D01*
X97263015Y-44795973D01*
G37*
G36*
X131150500Y-44028500D02*
G01*
X127548500Y-44028500D01*
X127548500Y-40426500D01*
X131150500Y-40426500D01*
X131150500Y-44028500D01*
X131150500Y-44028500D01*
G37*
G36*
X103812818Y-41085696D02*
G01*
X103926105Y-41120062D01*
X104030512Y-41175869D01*
X104122027Y-41250973D01*
X104197131Y-41342488D01*
X104252938Y-41446895D01*
X104287304Y-41560182D01*
X104296000Y-41648482D01*
X104296000Y-42107519D01*
X104287304Y-42195818D01*
X104252938Y-42309105D01*
X104197131Y-42413512D01*
X104197130Y-42413513D01*
X104122027Y-42505027D01*
X104046923Y-42566662D01*
X104030511Y-42580131D01*
X103926104Y-42635938D01*
X103812817Y-42670304D01*
X103695000Y-42681907D01*
X103577182Y-42670304D01*
X103463895Y-42635938D01*
X103359488Y-42580131D01*
X103345572Y-42568711D01*
X103267973Y-42505027D01*
X103192870Y-42413512D01*
X103192869Y-42413511D01*
X103137062Y-42309104D01*
X103102696Y-42195817D01*
X103094000Y-42107518D01*
X103094000Y-41648481D01*
X103102696Y-41560182D01*
X103137062Y-41446895D01*
X103192869Y-41342488D01*
X103267974Y-41250973D01*
X103359489Y-41175869D01*
X103463896Y-41120062D01*
X103577183Y-41085696D01*
X103695000Y-41074093D01*
X103812818Y-41085696D01*
X103812818Y-41085696D01*
G37*
G36*
X98972818Y-41085696D02*
G01*
X99086105Y-41120062D01*
X99190512Y-41175869D01*
X99282027Y-41250973D01*
X99357131Y-41342488D01*
X99412938Y-41446895D01*
X99447304Y-41560182D01*
X99456000Y-41648482D01*
X99456000Y-42107519D01*
X99447304Y-42195818D01*
X99412938Y-42309105D01*
X99357131Y-42413512D01*
X99357130Y-42413513D01*
X99282027Y-42505027D01*
X99206923Y-42566662D01*
X99190511Y-42580131D01*
X99086104Y-42635938D01*
X98972817Y-42670304D01*
X98855000Y-42681907D01*
X98737182Y-42670304D01*
X98623895Y-42635938D01*
X98519488Y-42580131D01*
X98505572Y-42568711D01*
X98427973Y-42505027D01*
X98352870Y-42413512D01*
X98352869Y-42413511D01*
X98297062Y-42309104D01*
X98262696Y-42195817D01*
X98254000Y-42107518D01*
X98254000Y-41648481D01*
X98262696Y-41560182D01*
X98297062Y-41446895D01*
X98352869Y-41342488D01*
X98427974Y-41250973D01*
X98519489Y-41175869D01*
X98623896Y-41120062D01*
X98737183Y-41085696D01*
X98855000Y-41074093D01*
X98972818Y-41085696D01*
X98972818Y-41085696D01*
G37*
G36*
X86341015Y-37607773D02*
G01*
X86444879Y-37639279D01*
X86472055Y-37653805D01*
X86540600Y-37690443D01*
X86624501Y-37759299D01*
X86693357Y-37843200D01*
X86729995Y-37911745D01*
X86744521Y-37938921D01*
X86776027Y-38042785D01*
X86786666Y-38150800D01*
X86776027Y-38258815D01*
X86744521Y-38362679D01*
X86744519Y-38362682D01*
X86693357Y-38458400D01*
X86624501Y-38542301D01*
X86540600Y-38611157D01*
X86478857Y-38644159D01*
X86444879Y-38662321D01*
X86432131Y-38666188D01*
X86409504Y-38675560D01*
X86389130Y-38689174D01*
X86371803Y-38706501D01*
X86358189Y-38726875D01*
X86348812Y-38749514D01*
X86344031Y-38773547D01*
X86344031Y-38798051D01*
X86348811Y-38822085D01*
X86358188Y-38844724D01*
X86371802Y-38865098D01*
X86389129Y-38882425D01*
X86409503Y-38896039D01*
X86432131Y-38905412D01*
X86444879Y-38909279D01*
X86472055Y-38923805D01*
X86540600Y-38960443D01*
X86624501Y-39029299D01*
X86693357Y-39113200D01*
X86714915Y-39153533D01*
X86744521Y-39208921D01*
X86776027Y-39312785D01*
X86786666Y-39420800D01*
X86776027Y-39528815D01*
X86744521Y-39632679D01*
X86744519Y-39632682D01*
X86693357Y-39728400D01*
X86648948Y-39782512D01*
X86624501Y-39812301D01*
X86540600Y-39881156D01*
X86496807Y-39904564D01*
X86476437Y-39918175D01*
X86459110Y-39935502D01*
X86445496Y-39955876D01*
X86436119Y-39978515D01*
X86431338Y-40002548D01*
X86431338Y-40027052D01*
X86436118Y-40051086D01*
X86445495Y-40073724D01*
X86459109Y-40094099D01*
X86476436Y-40111426D01*
X86496810Y-40125040D01*
X86519449Y-40134417D01*
X86543482Y-40139198D01*
X86555735Y-40139800D01*
X86784000Y-40139800D01*
X86784000Y-41241800D01*
X85682000Y-41241800D01*
X85682000Y-40139800D01*
X85910265Y-40139800D01*
X85934651Y-40137398D01*
X85958100Y-40130285D01*
X85979711Y-40118734D01*
X85998653Y-40103189D01*
X86014198Y-40084247D01*
X86025749Y-40062636D01*
X86032862Y-40039187D01*
X86035264Y-40014801D01*
X86032862Y-39990415D01*
X86025749Y-39966966D01*
X86014198Y-39945355D01*
X85998653Y-39926413D01*
X85979711Y-39910868D01*
X85969198Y-39904567D01*
X85925400Y-39881156D01*
X85841499Y-39812301D01*
X85817052Y-39782512D01*
X85772643Y-39728400D01*
X85721481Y-39632682D01*
X85721479Y-39632679D01*
X85689973Y-39528815D01*
X85679334Y-39420800D01*
X85689973Y-39312785D01*
X85721479Y-39208921D01*
X85751085Y-39153533D01*
X85772643Y-39113200D01*
X85841499Y-39029299D01*
X85925400Y-38960443D01*
X85993945Y-38923805D01*
X86021121Y-38909279D01*
X86033869Y-38905412D01*
X86056496Y-38896040D01*
X86076870Y-38882426D01*
X86094197Y-38865099D01*
X86107811Y-38844725D01*
X86117188Y-38822086D01*
X86121969Y-38798053D01*
X86121969Y-38773549D01*
X86117189Y-38749515D01*
X86107812Y-38726876D01*
X86094198Y-38706502D01*
X86076871Y-38689175D01*
X86056497Y-38675561D01*
X86033869Y-38666188D01*
X86021121Y-38662321D01*
X85987143Y-38644159D01*
X85925400Y-38611157D01*
X85841499Y-38542301D01*
X85772643Y-38458400D01*
X85721481Y-38362682D01*
X85721479Y-38362679D01*
X85689973Y-38258815D01*
X85679334Y-38150800D01*
X85689973Y-38042785D01*
X85721479Y-37938921D01*
X85736005Y-37911745D01*
X85772643Y-37843200D01*
X85841499Y-37759299D01*
X85925400Y-37690443D01*
X85993945Y-37653805D01*
X86021121Y-37639279D01*
X86124985Y-37607773D01*
X86205933Y-37599800D01*
X86260067Y-37599800D01*
X86341015Y-37607773D01*
X86341015Y-37607773D01*
G37*
G36*
X124568559Y-38505360D02*
G01*
X124702116Y-38560681D01*
X124705232Y-38561972D01*
X124828235Y-38644160D01*
X124932840Y-38748765D01*
X124996958Y-38844725D01*
X125015029Y-38871770D01*
X125071640Y-39008441D01*
X125100500Y-39153532D01*
X125100500Y-39301468D01*
X125094393Y-39332171D01*
X125071640Y-39446559D01*
X125015028Y-39583232D01*
X124932840Y-39706235D01*
X124828235Y-39810840D01*
X124705232Y-39893028D01*
X124705231Y-39893029D01*
X124705230Y-39893029D01*
X124568559Y-39949640D01*
X124423468Y-39978500D01*
X124275532Y-39978500D01*
X124130441Y-39949640D01*
X123993770Y-39893029D01*
X123993769Y-39893029D01*
X123993768Y-39893028D01*
X123870765Y-39810840D01*
X123766160Y-39706235D01*
X123683972Y-39583232D01*
X123627360Y-39446559D01*
X123604607Y-39332171D01*
X123598500Y-39301468D01*
X123598500Y-39153532D01*
X123627360Y-39008441D01*
X123683971Y-38871770D01*
X123702042Y-38844725D01*
X123766160Y-38748765D01*
X123870765Y-38644160D01*
X123993768Y-38561972D01*
X123996885Y-38560681D01*
X124130441Y-38505360D01*
X124275532Y-38476500D01*
X124423468Y-38476500D01*
X124568559Y-38505360D01*
X124568559Y-38505360D01*
G37*
G36*
X98687321Y-37987505D02*
G01*
X98824172Y-38029019D01*
X98824175Y-38029020D01*
X98950294Y-38096432D01*
X99060843Y-38187157D01*
X99151568Y-38297706D01*
X99218980Y-38423824D01*
X99218981Y-38423828D01*
X99260495Y-38560680D01*
X99260495Y-38560682D01*
X99270506Y-38662321D01*
X99271000Y-38667342D01*
X99271000Y-39088659D01*
X99260495Y-39195321D01*
X99256370Y-39208918D01*
X99218980Y-39332175D01*
X99151568Y-39458294D01*
X99060843Y-39568842D01*
X98950293Y-39659568D01*
X98824174Y-39726980D01*
X98824171Y-39726981D01*
X98687320Y-39768495D01*
X98545000Y-39782512D01*
X98402679Y-39768495D01*
X98265828Y-39726981D01*
X98265825Y-39726980D01*
X98139706Y-39659568D01*
X98029158Y-39568843D01*
X97938432Y-39458293D01*
X97871020Y-39332174D01*
X97833631Y-39208921D01*
X97829505Y-39195320D01*
X97819000Y-39088658D01*
X97819000Y-38667341D01*
X97829505Y-38560679D01*
X97871019Y-38423828D01*
X97871020Y-38423825D01*
X97938432Y-38297706D01*
X98029158Y-38187157D01*
X98139707Y-38096432D01*
X98265826Y-38029020D01*
X98265829Y-38029019D01*
X98402680Y-37987505D01*
X98545000Y-37973488D01*
X98687321Y-37987505D01*
X98687321Y-37987505D01*
G37*
G36*
X104147321Y-37987505D02*
G01*
X104284172Y-38029019D01*
X104284175Y-38029020D01*
X104410294Y-38096432D01*
X104520843Y-38187157D01*
X104611568Y-38297706D01*
X104678980Y-38423824D01*
X104678981Y-38423828D01*
X104720495Y-38560680D01*
X104720495Y-38560682D01*
X104730506Y-38662321D01*
X104731000Y-38667342D01*
X104731000Y-39088659D01*
X104720495Y-39195321D01*
X104716370Y-39208918D01*
X104678980Y-39332175D01*
X104611568Y-39458294D01*
X104520843Y-39568842D01*
X104410293Y-39659568D01*
X104284174Y-39726980D01*
X104284171Y-39726981D01*
X104147320Y-39768495D01*
X104005000Y-39782512D01*
X103862679Y-39768495D01*
X103725828Y-39726981D01*
X103725825Y-39726980D01*
X103599706Y-39659568D01*
X103489158Y-39568843D01*
X103398432Y-39458293D01*
X103331020Y-39332174D01*
X103293631Y-39208921D01*
X103289505Y-39195320D01*
X103279000Y-39088658D01*
X103279000Y-38667341D01*
X103289505Y-38560679D01*
X103331019Y-38423828D01*
X103331020Y-38423825D01*
X103398432Y-38297706D01*
X103489158Y-38187157D01*
X103599707Y-38096432D01*
X103725826Y-38029020D01*
X103725829Y-38029019D01*
X103862680Y-37987505D01*
X104005000Y-37973488D01*
X104147321Y-37987505D01*
X104147321Y-37987505D01*
G37*
M02*
