M48
; DRILL file {KiCad 5.1.4-e60b266~84~ubuntu18.04.1} date Tue 17 Sep 2019 17:53:49 AEST
; FORMAT={-:-/ absolute / inch / decimal}
; #@! TF.CreationDate,2019-09-17T17:53:49+10:00
; #@! TF.GenerationSoftware,Kicad,Pcbnew,5.1.4-e60b266~84~ubuntu18.04.1
; #@! TF.FileFunction,Plated,1,2,PTH
FMAT,2
INCH
T1C0.0157
T2C0.0256
T3C0.0276
T4C0.0394
T5C0.0748
%
G90
G05
T1
X3.485Y-1.9425
X3.485Y-2.565
X3.53Y-2.0825
X3.555Y-2.273
X3.59Y-1.775
X3.5975Y-1.87
X3.5983Y-2.1363
X3.6008Y-2.1934
X3.6075Y-1.5725
X3.74Y-2.545
X3.813Y-1.988
X3.865Y-2.1876
X3.8925Y-2.31
X3.895Y-2.24
X3.905Y-1.985
X3.98Y-2.409
X3.99Y-1.895
X4.0301Y-2.3037
X4.035Y-1.85
X4.055Y-2.395
X4.075Y-1.725
X4.0825Y-1.8375
X4.165Y-2.51
X4.17Y-2.5685
X4.1747Y-2.2994
X4.18Y-2.4715
X4.205Y-2.334
X4.2425Y-2.3054
X4.25Y-1.575
X4.265Y-1.94
X4.2815Y-2.4715
X4.3312Y-2.2212
X4.349Y-1.9465
X4.4002Y-2.1898
X4.405Y-2.15
X4.445Y-2.2
X4.49Y-2.43
X4.54Y-2.335
X4.555Y-1.4825
X4.6563Y-2.351
X4.715Y-1.765
X4.76Y-1.655
X4.965Y-2.08
T2
X4.005Y-2.58
X4.055Y-2.58
X4.105Y-2.58
X3.395Y-1.502
X3.395Y-1.552
X3.395Y-1.602
X3.395Y-2.452
X3.395Y-2.502
X3.395Y-2.552
X3.825Y-1.785
X3.825Y-1.835
X3.875Y-1.785
X3.875Y-1.835
X3.925Y-1.785
X3.925Y-1.835
X4.2475Y-2.5775
X4.2975Y-2.5775
X4.3475Y-2.5775
X3.395Y-1.972
X3.395Y-2.022
X3.395Y-2.072
X3.395Y-2.2
X3.395Y-2.25
X3.395Y-2.3
X3.395Y-2.35
T4
X4.8956Y-1.5444
X4.8956Y-1.9775
X4.8956Y-2.1175
X4.8956Y-2.5506
T5
X5.0925Y-1.6625
X5.0925Y-1.8594
X5.0925Y-2.2356
X5.0925Y-2.4325
T2
G00X3.8919Y-1.6409
M15
G01X3.8919Y-1.6566
M16
G05
G00X4.0825Y-1.6409
M15
G01X4.0825Y-1.6566
M16
G05
T3
G00X3.8797Y-1.5208
M15
G01X3.8797Y-1.5405
M16
G05
G00X4.0947Y-1.5208
M15
G01X4.0947Y-1.5405
M16
G05
T0
M30
