G04 #@! TF.GenerationSoftware,KiCad,Pcbnew,5.1.4-e60b266~84~ubuntu18.04.1*
G04 #@! TF.CreationDate,2019-09-17T17:50:47+10:00*
G04 #@! TF.ProjectId,RC-Endpoint-Limiter,52432d45-6e64-4706-9f69-6e742d4c696d,rev?*
G04 #@! TF.SameCoordinates,Original*
G04 #@! TF.FileFunction,Soldermask,Top*
G04 #@! TF.FilePolarity,Negative*
%FSLAX46Y46*%
G04 Gerber Fmt 4.6, Leading zero omitted, Abs format (unit mm)*
G04 Created by KiCad (PCBNEW 5.1.4-e60b266~84~ubuntu18.04.1) date 2019-09-17 17:50:47*
%MOMM*%
%LPD*%
G04 APERTURE LIST*
%ADD10C,0.100000*%
G04 APERTURE END LIST*
D10*
G36*
X101835015Y-64988973D02*
G01*
X101938879Y-65020479D01*
X101966055Y-65035005D01*
X102034600Y-65071643D01*
X102118501Y-65140499D01*
X102187357Y-65224400D01*
X102209262Y-65265382D01*
X102238521Y-65320121D01*
X102242388Y-65332869D01*
X102251760Y-65355496D01*
X102265374Y-65375870D01*
X102282701Y-65393197D01*
X102303075Y-65406811D01*
X102325714Y-65416188D01*
X102349747Y-65420969D01*
X102374251Y-65420969D01*
X102398285Y-65416189D01*
X102420924Y-65406812D01*
X102441298Y-65393198D01*
X102458625Y-65375871D01*
X102472239Y-65355497D01*
X102481612Y-65332869D01*
X102485479Y-65320121D01*
X102514738Y-65265382D01*
X102536643Y-65224400D01*
X102605499Y-65140499D01*
X102689400Y-65071643D01*
X102757945Y-65035005D01*
X102785121Y-65020479D01*
X102888985Y-64988973D01*
X102969933Y-64981000D01*
X103024067Y-64981000D01*
X103105015Y-64988973D01*
X103208879Y-65020479D01*
X103236055Y-65035005D01*
X103304600Y-65071643D01*
X103388501Y-65140499D01*
X103457356Y-65224400D01*
X103480764Y-65268193D01*
X103494375Y-65288563D01*
X103511702Y-65305890D01*
X103532076Y-65319504D01*
X103554715Y-65328881D01*
X103578748Y-65333662D01*
X103603252Y-65333662D01*
X103627286Y-65328882D01*
X103649924Y-65319505D01*
X103670299Y-65305891D01*
X103687626Y-65288564D01*
X103701240Y-65268190D01*
X103710617Y-65245551D01*
X103715398Y-65221518D01*
X103716000Y-65209265D01*
X103716000Y-64981000D01*
X104818000Y-64981000D01*
X104818000Y-66083000D01*
X103716000Y-66083000D01*
X103716000Y-65854735D01*
X103713598Y-65830349D01*
X103706485Y-65806900D01*
X103694934Y-65785289D01*
X103679389Y-65766347D01*
X103660447Y-65750802D01*
X103638836Y-65739251D01*
X103615387Y-65732138D01*
X103591001Y-65729736D01*
X103566615Y-65732138D01*
X103543166Y-65739251D01*
X103521555Y-65750802D01*
X103502613Y-65766347D01*
X103487068Y-65785289D01*
X103480767Y-65795802D01*
X103457356Y-65839600D01*
X103388501Y-65923501D01*
X103304600Y-65992357D01*
X103236055Y-66028995D01*
X103208879Y-66043521D01*
X103105015Y-66075027D01*
X103024067Y-66083000D01*
X102969933Y-66083000D01*
X102888985Y-66075027D01*
X102785121Y-66043521D01*
X102757945Y-66028995D01*
X102689400Y-65992357D01*
X102605499Y-65923501D01*
X102536643Y-65839600D01*
X102497489Y-65766347D01*
X102485479Y-65743879D01*
X102481612Y-65731131D01*
X102472240Y-65708504D01*
X102458626Y-65688130D01*
X102441299Y-65670803D01*
X102420925Y-65657189D01*
X102398286Y-65647812D01*
X102374253Y-65643031D01*
X102349749Y-65643031D01*
X102325715Y-65647811D01*
X102303076Y-65657188D01*
X102282702Y-65670802D01*
X102265375Y-65688129D01*
X102251761Y-65708503D01*
X102242388Y-65731131D01*
X102238521Y-65743879D01*
X102226511Y-65766347D01*
X102187357Y-65839600D01*
X102118501Y-65923501D01*
X102034600Y-65992357D01*
X101966055Y-66028995D01*
X101938879Y-66043521D01*
X101835015Y-66075027D01*
X101754067Y-66083000D01*
X101699933Y-66083000D01*
X101618985Y-66075027D01*
X101515121Y-66043521D01*
X101487945Y-66028995D01*
X101419400Y-65992357D01*
X101335499Y-65923501D01*
X101266643Y-65839600D01*
X101227489Y-65766347D01*
X101215479Y-65743879D01*
X101183973Y-65640015D01*
X101173334Y-65532000D01*
X101183973Y-65423985D01*
X101215479Y-65320121D01*
X101244738Y-65265382D01*
X101266643Y-65224400D01*
X101335499Y-65140499D01*
X101419400Y-65071643D01*
X101487945Y-65035005D01*
X101515121Y-65020479D01*
X101618985Y-64988973D01*
X101699933Y-64981000D01*
X101754067Y-64981000D01*
X101835015Y-64988973D01*
X101835015Y-64988973D01*
G37*
G36*
X107994515Y-64925473D02*
G01*
X108098379Y-64956979D01*
X108125555Y-64971505D01*
X108194100Y-65008143D01*
X108278001Y-65076999D01*
X108346857Y-65160900D01*
X108358162Y-65182051D01*
X108398021Y-65256621D01*
X108401888Y-65269369D01*
X108411260Y-65291996D01*
X108424874Y-65312370D01*
X108442201Y-65329697D01*
X108462575Y-65343311D01*
X108485214Y-65352688D01*
X108509247Y-65357469D01*
X108533751Y-65357469D01*
X108557785Y-65352689D01*
X108580424Y-65343312D01*
X108600798Y-65329698D01*
X108618125Y-65312371D01*
X108631739Y-65291997D01*
X108641112Y-65269369D01*
X108644979Y-65256621D01*
X108684838Y-65182051D01*
X108696143Y-65160900D01*
X108764999Y-65076999D01*
X108848900Y-65008143D01*
X108917445Y-64971505D01*
X108944621Y-64956979D01*
X109048485Y-64925473D01*
X109129433Y-64917500D01*
X109183567Y-64917500D01*
X109264515Y-64925473D01*
X109368379Y-64956979D01*
X109395555Y-64971505D01*
X109464100Y-65008143D01*
X109541475Y-65071643D01*
X109548001Y-65076999D01*
X109616856Y-65160900D01*
X109640264Y-65204693D01*
X109653875Y-65225063D01*
X109671202Y-65242390D01*
X109691576Y-65256004D01*
X109714215Y-65265381D01*
X109738248Y-65270162D01*
X109762752Y-65270162D01*
X109786786Y-65265382D01*
X109809424Y-65256005D01*
X109829799Y-65242391D01*
X109847126Y-65225064D01*
X109860740Y-65204690D01*
X109870117Y-65182051D01*
X109874898Y-65158018D01*
X109875500Y-65145765D01*
X109875500Y-64917500D01*
X110977500Y-64917500D01*
X110977500Y-66019500D01*
X109875500Y-66019500D01*
X109875500Y-65791235D01*
X109873098Y-65766849D01*
X109865985Y-65743400D01*
X109854434Y-65721789D01*
X109838889Y-65702847D01*
X109819947Y-65687302D01*
X109798336Y-65675751D01*
X109774887Y-65668638D01*
X109750501Y-65666236D01*
X109726115Y-65668638D01*
X109702666Y-65675751D01*
X109681055Y-65687302D01*
X109662113Y-65702847D01*
X109646568Y-65721789D01*
X109640267Y-65732302D01*
X109616856Y-65776100D01*
X109616855Y-65776101D01*
X109548001Y-65860001D01*
X109464100Y-65928857D01*
X109420802Y-65952000D01*
X109368379Y-65980021D01*
X109264515Y-66011527D01*
X109183567Y-66019500D01*
X109129433Y-66019500D01*
X109048485Y-66011527D01*
X108944621Y-65980021D01*
X108892198Y-65952000D01*
X108848900Y-65928857D01*
X108764999Y-65860001D01*
X108696143Y-65776100D01*
X108649122Y-65688129D01*
X108644979Y-65680379D01*
X108641112Y-65667631D01*
X108631740Y-65645004D01*
X108618126Y-65624630D01*
X108600799Y-65607303D01*
X108580425Y-65593689D01*
X108557786Y-65584312D01*
X108533753Y-65579531D01*
X108509249Y-65579531D01*
X108485215Y-65584311D01*
X108462576Y-65593688D01*
X108442202Y-65607302D01*
X108424875Y-65624629D01*
X108411261Y-65645003D01*
X108401888Y-65667631D01*
X108398021Y-65680379D01*
X108393878Y-65688129D01*
X108346857Y-65776100D01*
X108278001Y-65860001D01*
X108194100Y-65928857D01*
X108150802Y-65952000D01*
X108098379Y-65980021D01*
X107994515Y-66011527D01*
X107913567Y-66019500D01*
X107859433Y-66019500D01*
X107778485Y-66011527D01*
X107674621Y-65980021D01*
X107622198Y-65952000D01*
X107578900Y-65928857D01*
X107494999Y-65860001D01*
X107426143Y-65776100D01*
X107379122Y-65688129D01*
X107374979Y-65680379D01*
X107343473Y-65576515D01*
X107332834Y-65468500D01*
X107343473Y-65360485D01*
X107374979Y-65256621D01*
X107414838Y-65182051D01*
X107426143Y-65160900D01*
X107494999Y-65076999D01*
X107578900Y-65008143D01*
X107647445Y-64971505D01*
X107674621Y-64956979D01*
X107778485Y-64925473D01*
X107859433Y-64917500D01*
X107913567Y-64917500D01*
X107994515Y-64925473D01*
X107994515Y-64925473D01*
G37*
G36*
X92021000Y-65952000D02*
G01*
X89619000Y-65952000D01*
X89619000Y-64350000D01*
X92021000Y-64350000D01*
X92021000Y-65952000D01*
X92021000Y-65952000D01*
G37*
G36*
X124568559Y-64063360D02*
G01*
X124677573Y-64108515D01*
X124705232Y-64119972D01*
X124828235Y-64202160D01*
X124932840Y-64306765D01*
X125015028Y-64429768D01*
X125071640Y-64566441D01*
X125100500Y-64711533D01*
X125100500Y-64859467D01*
X125071640Y-65004559D01*
X125015028Y-65141232D01*
X124932840Y-65264235D01*
X124828235Y-65368840D01*
X124705232Y-65451028D01*
X124705231Y-65451029D01*
X124705230Y-65451029D01*
X124568559Y-65507640D01*
X124423468Y-65536500D01*
X124275532Y-65536500D01*
X124130441Y-65507640D01*
X123993770Y-65451029D01*
X123993769Y-65451029D01*
X123993768Y-65451028D01*
X123870765Y-65368840D01*
X123766160Y-65264235D01*
X123683972Y-65141232D01*
X123627360Y-65004559D01*
X123598500Y-64859467D01*
X123598500Y-64711533D01*
X123627360Y-64566441D01*
X123683972Y-64429768D01*
X123766160Y-64306765D01*
X123870765Y-64202160D01*
X123993768Y-64119972D01*
X124021428Y-64108515D01*
X124130441Y-64063360D01*
X124275532Y-64034500D01*
X124423468Y-64034500D01*
X124568559Y-64063360D01*
X124568559Y-64063360D01*
G37*
G36*
X86341015Y-61737773D02*
G01*
X86444879Y-61769279D01*
X86456590Y-61775539D01*
X86540600Y-61820443D01*
X86624501Y-61889299D01*
X86693357Y-61973200D01*
X86729995Y-62041745D01*
X86744521Y-62068921D01*
X86776027Y-62172785D01*
X86786666Y-62280800D01*
X86776027Y-62388815D01*
X86744521Y-62492679D01*
X86734327Y-62511750D01*
X86693357Y-62588400D01*
X86624501Y-62672301D01*
X86540600Y-62741157D01*
X86472055Y-62777795D01*
X86444879Y-62792321D01*
X86432131Y-62796188D01*
X86409504Y-62805560D01*
X86389130Y-62819174D01*
X86371803Y-62836501D01*
X86358189Y-62856875D01*
X86348812Y-62879514D01*
X86344031Y-62903547D01*
X86344031Y-62928051D01*
X86348811Y-62952085D01*
X86358188Y-62974724D01*
X86371802Y-62995098D01*
X86389129Y-63012425D01*
X86409503Y-63026039D01*
X86432131Y-63035412D01*
X86444879Y-63039279D01*
X86472055Y-63053805D01*
X86540600Y-63090443D01*
X86624501Y-63159299D01*
X86693357Y-63243200D01*
X86729003Y-63309890D01*
X86744521Y-63338921D01*
X86776027Y-63442785D01*
X86786666Y-63550800D01*
X86776027Y-63658815D01*
X86744521Y-63762679D01*
X86744519Y-63762682D01*
X86693357Y-63858400D01*
X86624501Y-63942301D01*
X86540600Y-64011156D01*
X86496807Y-64034564D01*
X86476437Y-64048175D01*
X86459110Y-64065502D01*
X86445496Y-64085876D01*
X86436119Y-64108515D01*
X86431338Y-64132548D01*
X86431338Y-64157052D01*
X86436118Y-64181086D01*
X86445495Y-64203724D01*
X86459109Y-64224099D01*
X86476436Y-64241426D01*
X86496810Y-64255040D01*
X86519449Y-64264417D01*
X86543482Y-64269198D01*
X86555735Y-64269800D01*
X86784000Y-64269800D01*
X86784000Y-65371800D01*
X85682000Y-65371800D01*
X85682000Y-64269800D01*
X85910265Y-64269800D01*
X85934651Y-64267398D01*
X85958100Y-64260285D01*
X85979711Y-64248734D01*
X85998653Y-64233189D01*
X86014198Y-64214247D01*
X86025749Y-64192636D01*
X86032862Y-64169187D01*
X86035264Y-64144801D01*
X86032862Y-64120415D01*
X86025749Y-64096966D01*
X86014198Y-64075355D01*
X85998653Y-64056413D01*
X85979711Y-64040868D01*
X85969198Y-64034567D01*
X85925400Y-64011156D01*
X85841499Y-63942301D01*
X85772643Y-63858400D01*
X85721481Y-63762682D01*
X85721479Y-63762679D01*
X85689973Y-63658815D01*
X85679334Y-63550800D01*
X85689973Y-63442785D01*
X85721479Y-63338921D01*
X85736997Y-63309890D01*
X85772643Y-63243200D01*
X85841499Y-63159299D01*
X85925400Y-63090443D01*
X85993945Y-63053805D01*
X86021121Y-63039279D01*
X86033869Y-63035412D01*
X86056496Y-63026040D01*
X86076870Y-63012426D01*
X86094197Y-62995099D01*
X86107811Y-62974725D01*
X86117188Y-62952086D01*
X86121969Y-62928053D01*
X86121969Y-62903549D01*
X86117189Y-62879515D01*
X86107812Y-62856876D01*
X86094198Y-62836502D01*
X86076871Y-62819175D01*
X86056497Y-62805561D01*
X86033869Y-62796188D01*
X86021121Y-62792321D01*
X85993945Y-62777795D01*
X85925400Y-62741157D01*
X85841499Y-62672301D01*
X85772643Y-62588400D01*
X85731673Y-62511750D01*
X85721479Y-62492679D01*
X85689973Y-62388815D01*
X85679334Y-62280800D01*
X85689973Y-62172785D01*
X85721479Y-62068921D01*
X85736005Y-62041745D01*
X85772643Y-61973200D01*
X85841499Y-61889299D01*
X85925400Y-61820443D01*
X86009410Y-61775539D01*
X86021121Y-61769279D01*
X86124985Y-61737773D01*
X86205933Y-61729800D01*
X86260067Y-61729800D01*
X86341015Y-61737773D01*
X86341015Y-61737773D01*
G37*
G36*
X112407091Y-63105085D02*
G01*
X112441069Y-63115393D01*
X112472390Y-63132134D01*
X112499839Y-63154661D01*
X112522366Y-63182110D01*
X112539107Y-63213431D01*
X112549415Y-63247409D01*
X112553500Y-63288890D01*
X112553500Y-63965110D01*
X112549415Y-64006591D01*
X112539107Y-64040569D01*
X112522366Y-64071890D01*
X112499839Y-64099339D01*
X112472390Y-64121866D01*
X112441069Y-64138607D01*
X112407091Y-64148915D01*
X112365610Y-64153000D01*
X111764390Y-64153000D01*
X111722909Y-64148915D01*
X111688931Y-64138607D01*
X111657610Y-64121866D01*
X111630161Y-64099339D01*
X111607634Y-64071890D01*
X111590893Y-64040569D01*
X111580585Y-64006591D01*
X111576500Y-63965110D01*
X111576500Y-63288890D01*
X111580585Y-63247409D01*
X111590893Y-63213431D01*
X111607634Y-63182110D01*
X111630161Y-63154661D01*
X111657610Y-63132134D01*
X111688931Y-63115393D01*
X111722909Y-63105085D01*
X111764390Y-63101000D01*
X112365610Y-63101000D01*
X112407091Y-63105085D01*
X112407091Y-63105085D01*
G37*
G36*
X115734091Y-63105085D02*
G01*
X115768069Y-63115393D01*
X115799390Y-63132134D01*
X115826839Y-63154661D01*
X115849366Y-63182110D01*
X115866107Y-63213431D01*
X115876415Y-63247409D01*
X115880500Y-63288890D01*
X115880500Y-63965110D01*
X115876415Y-64006591D01*
X115866107Y-64040569D01*
X115849366Y-64071890D01*
X115826839Y-64099339D01*
X115799390Y-64121866D01*
X115768069Y-64138607D01*
X115734091Y-64148915D01*
X115692610Y-64153000D01*
X115091390Y-64153000D01*
X115049909Y-64148915D01*
X115015931Y-64138607D01*
X114984610Y-64121866D01*
X114957161Y-64099339D01*
X114934634Y-64071890D01*
X114917893Y-64040569D01*
X114907585Y-64006591D01*
X114903500Y-63965110D01*
X114903500Y-63288890D01*
X114907585Y-63247409D01*
X114917893Y-63213431D01*
X114934634Y-63182110D01*
X114957161Y-63154661D01*
X114984610Y-63132134D01*
X115015931Y-63115393D01*
X115049909Y-63105085D01*
X115091390Y-63101000D01*
X115692610Y-63101000D01*
X115734091Y-63105085D01*
X115734091Y-63105085D01*
G37*
G36*
X117309091Y-63105085D02*
G01*
X117343069Y-63115393D01*
X117374390Y-63132134D01*
X117401839Y-63154661D01*
X117424366Y-63182110D01*
X117441107Y-63213431D01*
X117451415Y-63247409D01*
X117455500Y-63288890D01*
X117455500Y-63965110D01*
X117451415Y-64006591D01*
X117441107Y-64040569D01*
X117424366Y-64071890D01*
X117401839Y-64099339D01*
X117374390Y-64121866D01*
X117343069Y-64138607D01*
X117309091Y-64148915D01*
X117267610Y-64153000D01*
X116666390Y-64153000D01*
X116624909Y-64148915D01*
X116590931Y-64138607D01*
X116559610Y-64121866D01*
X116532161Y-64099339D01*
X116509634Y-64071890D01*
X116492893Y-64040569D01*
X116482585Y-64006591D01*
X116478500Y-63965110D01*
X116478500Y-63288890D01*
X116482585Y-63247409D01*
X116492893Y-63213431D01*
X116509634Y-63182110D01*
X116532161Y-63154661D01*
X116559610Y-63132134D01*
X116590931Y-63115393D01*
X116624909Y-63105085D01*
X116666390Y-63101000D01*
X117267610Y-63101000D01*
X117309091Y-63105085D01*
X117309091Y-63105085D01*
G37*
G36*
X110832091Y-63105085D02*
G01*
X110866069Y-63115393D01*
X110897390Y-63132134D01*
X110924839Y-63154661D01*
X110947366Y-63182110D01*
X110964107Y-63213431D01*
X110974415Y-63247409D01*
X110978500Y-63288890D01*
X110978500Y-63965110D01*
X110974415Y-64006591D01*
X110964107Y-64040569D01*
X110947366Y-64071890D01*
X110924839Y-64099339D01*
X110897390Y-64121866D01*
X110866069Y-64138607D01*
X110832091Y-64148915D01*
X110790610Y-64153000D01*
X110189390Y-64153000D01*
X110147909Y-64148915D01*
X110113931Y-64138607D01*
X110082610Y-64121866D01*
X110055161Y-64099339D01*
X110032634Y-64071890D01*
X110015893Y-64040569D01*
X110005585Y-64006591D01*
X110001500Y-63965110D01*
X110001500Y-63288890D01*
X110005585Y-63247409D01*
X110015893Y-63213431D01*
X110032634Y-63182110D01*
X110055161Y-63154661D01*
X110082610Y-63132134D01*
X110113931Y-63115393D01*
X110147909Y-63105085D01*
X110189390Y-63101000D01*
X110790610Y-63101000D01*
X110832091Y-63105085D01*
X110832091Y-63105085D01*
G37*
G36*
X129874831Y-60053711D02*
G01*
X130202592Y-60189474D01*
X130497570Y-60386572D01*
X130748428Y-60637430D01*
X130945526Y-60932408D01*
X131081289Y-61260169D01*
X131150500Y-61608116D01*
X131150500Y-61962884D01*
X131081289Y-62310831D01*
X130945526Y-62638592D01*
X130748428Y-62933570D01*
X130497570Y-63184428D01*
X130202592Y-63381526D01*
X129874831Y-63517289D01*
X129526884Y-63586500D01*
X129172116Y-63586500D01*
X128824169Y-63517289D01*
X128496408Y-63381526D01*
X128201430Y-63184428D01*
X127950572Y-62933570D01*
X127753474Y-62638592D01*
X127617711Y-62310831D01*
X127548500Y-61962884D01*
X127548500Y-61608116D01*
X127617711Y-61260169D01*
X127753474Y-60932408D01*
X127950572Y-60637430D01*
X128201430Y-60386572D01*
X128496408Y-60189474D01*
X128824169Y-60053711D01*
X129172116Y-59984500D01*
X129526884Y-59984500D01*
X129874831Y-60053711D01*
X129874831Y-60053711D01*
G37*
G36*
X101002091Y-62343085D02*
G01*
X101036069Y-62353393D01*
X101067390Y-62370134D01*
X101094839Y-62392661D01*
X101117366Y-62420110D01*
X101134107Y-62451431D01*
X101144415Y-62485409D01*
X101148500Y-62526890D01*
X101148500Y-63203110D01*
X101144415Y-63244591D01*
X101134107Y-63278569D01*
X101117366Y-63309890D01*
X101094839Y-63337339D01*
X101067390Y-63359866D01*
X101036069Y-63376607D01*
X101002091Y-63386915D01*
X100960610Y-63391000D01*
X100359390Y-63391000D01*
X100317909Y-63386915D01*
X100283931Y-63376607D01*
X100252610Y-63359866D01*
X100225161Y-63337339D01*
X100202634Y-63309890D01*
X100185893Y-63278569D01*
X100175585Y-63244591D01*
X100171500Y-63203110D01*
X100171500Y-62526890D01*
X100175585Y-62485409D01*
X100185893Y-62451431D01*
X100202634Y-62420110D01*
X100225161Y-62392661D01*
X100252610Y-62370134D01*
X100283931Y-62353393D01*
X100317909Y-62343085D01*
X100359390Y-62339000D01*
X100960610Y-62339000D01*
X101002091Y-62343085D01*
X101002091Y-62343085D01*
G37*
G36*
X102577091Y-62343085D02*
G01*
X102611069Y-62353393D01*
X102642390Y-62370134D01*
X102669839Y-62392661D01*
X102692366Y-62420110D01*
X102709107Y-62451431D01*
X102719415Y-62485409D01*
X102723500Y-62526890D01*
X102723500Y-63203110D01*
X102719415Y-63244591D01*
X102709107Y-63278569D01*
X102692366Y-63309890D01*
X102669839Y-63337339D01*
X102642390Y-63359866D01*
X102611069Y-63376607D01*
X102577091Y-63386915D01*
X102535610Y-63391000D01*
X101934390Y-63391000D01*
X101892909Y-63386915D01*
X101858931Y-63376607D01*
X101827610Y-63359866D01*
X101800161Y-63337339D01*
X101777634Y-63309890D01*
X101760893Y-63278569D01*
X101750585Y-63244591D01*
X101746500Y-63203110D01*
X101746500Y-62526890D01*
X101750585Y-62485409D01*
X101760893Y-62451431D01*
X101777634Y-62420110D01*
X101800161Y-62392661D01*
X101827610Y-62370134D01*
X101858931Y-62353393D01*
X101892909Y-62343085D01*
X101934390Y-62339000D01*
X102535610Y-62339000D01*
X102577091Y-62343085D01*
X102577091Y-62343085D01*
G37*
G36*
X94202000Y-62863500D02*
G01*
X91600000Y-62863500D01*
X91600000Y-60961500D01*
X94202000Y-60961500D01*
X94202000Y-62863500D01*
X94202000Y-62863500D01*
G37*
G36*
X98202000Y-62863500D02*
G01*
X95600000Y-62863500D01*
X95600000Y-60961500D01*
X98202000Y-60961500D01*
X98202000Y-62863500D01*
X98202000Y-62863500D01*
G37*
G36*
X126132591Y-61708085D02*
G01*
X126166569Y-61718393D01*
X126197890Y-61735134D01*
X126225339Y-61757661D01*
X126247866Y-61785110D01*
X126264607Y-61816431D01*
X126274915Y-61850409D01*
X126279000Y-61891890D01*
X126279000Y-62568110D01*
X126274915Y-62609591D01*
X126264607Y-62643569D01*
X126247866Y-62674890D01*
X126225339Y-62702339D01*
X126197890Y-62724866D01*
X126166569Y-62741607D01*
X126132591Y-62751915D01*
X126091110Y-62756000D01*
X125489890Y-62756000D01*
X125448409Y-62751915D01*
X125414431Y-62741607D01*
X125383110Y-62724866D01*
X125355661Y-62702339D01*
X125333134Y-62674890D01*
X125316393Y-62643569D01*
X125306085Y-62609591D01*
X125302000Y-62568110D01*
X125302000Y-61891890D01*
X125306085Y-61850409D01*
X125316393Y-61816431D01*
X125333134Y-61785110D01*
X125355661Y-61757661D01*
X125383110Y-61735134D01*
X125414431Y-61718393D01*
X125448409Y-61708085D01*
X125489890Y-61704000D01*
X126091110Y-61704000D01*
X126132591Y-61708085D01*
X126132591Y-61708085D01*
G37*
G36*
X124557591Y-61708085D02*
G01*
X124591569Y-61718393D01*
X124622890Y-61735134D01*
X124650339Y-61757661D01*
X124672866Y-61785110D01*
X124689607Y-61816431D01*
X124699915Y-61850409D01*
X124704000Y-61891890D01*
X124704000Y-62568110D01*
X124699915Y-62609591D01*
X124689607Y-62643569D01*
X124672866Y-62674890D01*
X124650339Y-62702339D01*
X124622890Y-62724866D01*
X124591569Y-62741607D01*
X124557591Y-62751915D01*
X124516110Y-62756000D01*
X123914890Y-62756000D01*
X123873409Y-62751915D01*
X123839431Y-62741607D01*
X123808110Y-62724866D01*
X123780661Y-62702339D01*
X123758134Y-62674890D01*
X123741393Y-62643569D01*
X123731085Y-62609591D01*
X123727000Y-62568110D01*
X123727000Y-61891890D01*
X123731085Y-61850409D01*
X123741393Y-61816431D01*
X123758134Y-61785110D01*
X123780661Y-61757661D01*
X123808110Y-61735134D01*
X123839431Y-61718393D01*
X123873409Y-61708085D01*
X123914890Y-61704000D01*
X124516110Y-61704000D01*
X124557591Y-61708085D01*
X124557591Y-61708085D01*
G37*
G36*
X88429091Y-61454085D02*
G01*
X88463069Y-61464393D01*
X88494390Y-61481134D01*
X88521839Y-61503661D01*
X88544366Y-61531110D01*
X88561107Y-61562431D01*
X88571415Y-61596409D01*
X88575500Y-61637890D01*
X88575500Y-62314110D01*
X88571415Y-62355591D01*
X88561107Y-62389569D01*
X88544366Y-62420890D01*
X88521839Y-62448339D01*
X88494390Y-62470866D01*
X88463069Y-62487607D01*
X88429091Y-62497915D01*
X88387610Y-62502000D01*
X87786390Y-62502000D01*
X87744909Y-62497915D01*
X87710931Y-62487607D01*
X87679610Y-62470866D01*
X87652161Y-62448339D01*
X87629634Y-62420890D01*
X87612893Y-62389569D01*
X87602585Y-62355591D01*
X87598500Y-62314110D01*
X87598500Y-61637890D01*
X87602585Y-61596409D01*
X87612893Y-61562431D01*
X87629634Y-61531110D01*
X87652161Y-61503661D01*
X87679610Y-61481134D01*
X87710931Y-61464393D01*
X87744909Y-61454085D01*
X87786390Y-61450000D01*
X88387610Y-61450000D01*
X88429091Y-61454085D01*
X88429091Y-61454085D01*
G37*
G36*
X90004091Y-61454085D02*
G01*
X90038069Y-61464393D01*
X90069390Y-61481134D01*
X90096839Y-61503661D01*
X90119366Y-61531110D01*
X90136107Y-61562431D01*
X90146415Y-61596409D01*
X90150500Y-61637890D01*
X90150500Y-62314110D01*
X90146415Y-62355591D01*
X90136107Y-62389569D01*
X90119366Y-62420890D01*
X90096839Y-62448339D01*
X90069390Y-62470866D01*
X90038069Y-62487607D01*
X90004091Y-62497915D01*
X89962610Y-62502000D01*
X89361390Y-62502000D01*
X89319909Y-62497915D01*
X89285931Y-62487607D01*
X89254610Y-62470866D01*
X89227161Y-62448339D01*
X89204634Y-62420890D01*
X89187893Y-62389569D01*
X89177585Y-62355591D01*
X89173500Y-62314110D01*
X89173500Y-61637890D01*
X89177585Y-61596409D01*
X89187893Y-61562431D01*
X89204634Y-61531110D01*
X89227161Y-61503661D01*
X89254610Y-61481134D01*
X89285931Y-61464393D01*
X89319909Y-61454085D01*
X89361390Y-61450000D01*
X89962610Y-61450000D01*
X90004091Y-61454085D01*
X90004091Y-61454085D01*
G37*
G36*
X121967091Y-60438085D02*
G01*
X122001069Y-60448393D01*
X122032390Y-60465134D01*
X122059839Y-60487661D01*
X122082366Y-60515110D01*
X122099107Y-60546431D01*
X122109415Y-60580409D01*
X122113500Y-60621890D01*
X122113500Y-61298110D01*
X122109415Y-61339591D01*
X122099107Y-61373569D01*
X122082366Y-61404890D01*
X122059839Y-61432339D01*
X122032390Y-61454866D01*
X122001069Y-61471607D01*
X121967091Y-61481915D01*
X121925610Y-61486000D01*
X121324390Y-61486000D01*
X121282909Y-61481915D01*
X121248931Y-61471607D01*
X121217610Y-61454866D01*
X121190161Y-61432339D01*
X121167634Y-61404890D01*
X121150893Y-61373569D01*
X121140585Y-61339591D01*
X121136500Y-61298110D01*
X121136500Y-60621890D01*
X121140585Y-60580409D01*
X121150893Y-60546431D01*
X121167634Y-60515110D01*
X121190161Y-60487661D01*
X121217610Y-60465134D01*
X121248931Y-60448393D01*
X121282909Y-60438085D01*
X121324390Y-60434000D01*
X121925610Y-60434000D01*
X121967091Y-60438085D01*
X121967091Y-60438085D01*
G37*
G36*
X110832091Y-60438085D02*
G01*
X110866069Y-60448393D01*
X110897390Y-60465134D01*
X110924839Y-60487661D01*
X110947366Y-60515110D01*
X110964107Y-60546431D01*
X110974415Y-60580409D01*
X110978500Y-60621890D01*
X110978500Y-61298110D01*
X110974415Y-61339591D01*
X110964107Y-61373569D01*
X110947366Y-61404890D01*
X110924839Y-61432339D01*
X110897390Y-61454866D01*
X110866069Y-61471607D01*
X110832091Y-61481915D01*
X110790610Y-61486000D01*
X110189390Y-61486000D01*
X110147909Y-61481915D01*
X110113931Y-61471607D01*
X110082610Y-61454866D01*
X110055161Y-61432339D01*
X110032634Y-61404890D01*
X110015893Y-61373569D01*
X110005585Y-61339591D01*
X110001500Y-61298110D01*
X110001500Y-60621890D01*
X110005585Y-60580409D01*
X110015893Y-60546431D01*
X110032634Y-60515110D01*
X110055161Y-60487661D01*
X110082610Y-60465134D01*
X110113931Y-60448393D01*
X110147909Y-60438085D01*
X110189390Y-60434000D01*
X110790610Y-60434000D01*
X110832091Y-60438085D01*
X110832091Y-60438085D01*
G37*
G36*
X106768091Y-60438085D02*
G01*
X106802069Y-60448393D01*
X106833390Y-60465134D01*
X106860839Y-60487661D01*
X106883366Y-60515110D01*
X106900107Y-60546431D01*
X106910415Y-60580409D01*
X106914500Y-60621890D01*
X106914500Y-61298110D01*
X106910415Y-61339591D01*
X106900107Y-61373569D01*
X106883366Y-61404890D01*
X106860839Y-61432339D01*
X106833390Y-61454866D01*
X106802069Y-61471607D01*
X106768091Y-61481915D01*
X106726610Y-61486000D01*
X106125390Y-61486000D01*
X106083909Y-61481915D01*
X106049931Y-61471607D01*
X106018610Y-61454866D01*
X105991161Y-61432339D01*
X105968634Y-61404890D01*
X105951893Y-61373569D01*
X105941585Y-61339591D01*
X105937500Y-61298110D01*
X105937500Y-60621890D01*
X105941585Y-60580409D01*
X105951893Y-60546431D01*
X105968634Y-60515110D01*
X105991161Y-60487661D01*
X106018610Y-60465134D01*
X106049931Y-60448393D01*
X106083909Y-60438085D01*
X106125390Y-60434000D01*
X106726610Y-60434000D01*
X106768091Y-60438085D01*
X106768091Y-60438085D01*
G37*
G36*
X105193091Y-60438085D02*
G01*
X105227069Y-60448393D01*
X105258390Y-60465134D01*
X105285839Y-60487661D01*
X105308366Y-60515110D01*
X105325107Y-60546431D01*
X105335415Y-60580409D01*
X105339500Y-60621890D01*
X105339500Y-61298110D01*
X105335415Y-61339591D01*
X105325107Y-61373569D01*
X105308366Y-61404890D01*
X105285839Y-61432339D01*
X105258390Y-61454866D01*
X105227069Y-61471607D01*
X105193091Y-61481915D01*
X105151610Y-61486000D01*
X104550390Y-61486000D01*
X104508909Y-61481915D01*
X104474931Y-61471607D01*
X104443610Y-61454866D01*
X104416161Y-61432339D01*
X104393634Y-61404890D01*
X104376893Y-61373569D01*
X104366585Y-61339591D01*
X104362500Y-61298110D01*
X104362500Y-60621890D01*
X104366585Y-60580409D01*
X104376893Y-60546431D01*
X104393634Y-60515110D01*
X104416161Y-60487661D01*
X104443610Y-60465134D01*
X104474931Y-60448393D01*
X104508909Y-60438085D01*
X104550390Y-60434000D01*
X105151610Y-60434000D01*
X105193091Y-60438085D01*
X105193091Y-60438085D01*
G37*
G36*
X117309091Y-60438085D02*
G01*
X117343069Y-60448393D01*
X117374390Y-60465134D01*
X117401839Y-60487661D01*
X117424366Y-60515110D01*
X117441107Y-60546431D01*
X117451415Y-60580409D01*
X117455500Y-60621890D01*
X117455500Y-61298110D01*
X117451415Y-61339591D01*
X117441107Y-61373569D01*
X117424366Y-61404890D01*
X117401839Y-61432339D01*
X117374390Y-61454866D01*
X117343069Y-61471607D01*
X117309091Y-61481915D01*
X117267610Y-61486000D01*
X116666390Y-61486000D01*
X116624909Y-61481915D01*
X116590931Y-61471607D01*
X116559610Y-61454866D01*
X116532161Y-61432339D01*
X116509634Y-61404890D01*
X116492893Y-61373569D01*
X116482585Y-61339591D01*
X116478500Y-61298110D01*
X116478500Y-60621890D01*
X116482585Y-60580409D01*
X116492893Y-60546431D01*
X116509634Y-60515110D01*
X116532161Y-60487661D01*
X116559610Y-60465134D01*
X116590931Y-60448393D01*
X116624909Y-60438085D01*
X116666390Y-60434000D01*
X117267610Y-60434000D01*
X117309091Y-60438085D01*
X117309091Y-60438085D01*
G37*
G36*
X112407091Y-60438085D02*
G01*
X112441069Y-60448393D01*
X112472390Y-60465134D01*
X112499839Y-60487661D01*
X112522366Y-60515110D01*
X112539107Y-60546431D01*
X112549415Y-60580409D01*
X112553500Y-60621890D01*
X112553500Y-61298110D01*
X112549415Y-61339591D01*
X112539107Y-61373569D01*
X112522366Y-61404890D01*
X112499839Y-61432339D01*
X112472390Y-61454866D01*
X112441069Y-61471607D01*
X112407091Y-61481915D01*
X112365610Y-61486000D01*
X111764390Y-61486000D01*
X111722909Y-61481915D01*
X111688931Y-61471607D01*
X111657610Y-61454866D01*
X111630161Y-61432339D01*
X111607634Y-61404890D01*
X111590893Y-61373569D01*
X111580585Y-61339591D01*
X111576500Y-61298110D01*
X111576500Y-60621890D01*
X111580585Y-60580409D01*
X111590893Y-60546431D01*
X111607634Y-60515110D01*
X111630161Y-60487661D01*
X111657610Y-60465134D01*
X111688931Y-60448393D01*
X111722909Y-60438085D01*
X111764390Y-60434000D01*
X112365610Y-60434000D01*
X112407091Y-60438085D01*
X112407091Y-60438085D01*
G37*
G36*
X120392091Y-60438085D02*
G01*
X120426069Y-60448393D01*
X120457390Y-60465134D01*
X120484839Y-60487661D01*
X120507366Y-60515110D01*
X120524107Y-60546431D01*
X120534415Y-60580409D01*
X120538500Y-60621890D01*
X120538500Y-61298110D01*
X120534415Y-61339591D01*
X120524107Y-61373569D01*
X120507366Y-61404890D01*
X120484839Y-61432339D01*
X120457390Y-61454866D01*
X120426069Y-61471607D01*
X120392091Y-61481915D01*
X120350610Y-61486000D01*
X119749390Y-61486000D01*
X119707909Y-61481915D01*
X119673931Y-61471607D01*
X119642610Y-61454866D01*
X119615161Y-61432339D01*
X119592634Y-61404890D01*
X119575893Y-61373569D01*
X119565585Y-61339591D01*
X119561500Y-61298110D01*
X119561500Y-60621890D01*
X119565585Y-60580409D01*
X119575893Y-60546431D01*
X119592634Y-60515110D01*
X119615161Y-60487661D01*
X119642610Y-60465134D01*
X119673931Y-60448393D01*
X119707909Y-60438085D01*
X119749390Y-60434000D01*
X120350610Y-60434000D01*
X120392091Y-60438085D01*
X120392091Y-60438085D01*
G37*
G36*
X115734091Y-60438085D02*
G01*
X115768069Y-60448393D01*
X115799390Y-60465134D01*
X115826839Y-60487661D01*
X115849366Y-60515110D01*
X115866107Y-60546431D01*
X115876415Y-60580409D01*
X115880500Y-60621890D01*
X115880500Y-61298110D01*
X115876415Y-61339591D01*
X115866107Y-61373569D01*
X115849366Y-61404890D01*
X115826839Y-61432339D01*
X115799390Y-61454866D01*
X115768069Y-61471607D01*
X115734091Y-61481915D01*
X115692610Y-61486000D01*
X115091390Y-61486000D01*
X115049909Y-61481915D01*
X115015931Y-61471607D01*
X114984610Y-61454866D01*
X114957161Y-61432339D01*
X114934634Y-61404890D01*
X114917893Y-61373569D01*
X114907585Y-61339591D01*
X114903500Y-61298110D01*
X114903500Y-60621890D01*
X114907585Y-60580409D01*
X114917893Y-60546431D01*
X114934634Y-60515110D01*
X114957161Y-60487661D01*
X114984610Y-60465134D01*
X115015931Y-60448393D01*
X115049909Y-60438085D01*
X115091390Y-60434000D01*
X115692610Y-60434000D01*
X115734091Y-60438085D01*
X115734091Y-60438085D01*
G37*
G36*
X90004091Y-59422085D02*
G01*
X90038069Y-59432393D01*
X90069390Y-59449134D01*
X90096839Y-59471661D01*
X90119366Y-59499110D01*
X90136107Y-59530431D01*
X90146415Y-59564409D01*
X90150500Y-59605890D01*
X90150500Y-60282110D01*
X90146415Y-60323591D01*
X90136107Y-60357569D01*
X90119366Y-60388890D01*
X90096839Y-60416339D01*
X90069390Y-60438866D01*
X90038069Y-60455607D01*
X90004091Y-60465915D01*
X89962610Y-60470000D01*
X89361390Y-60470000D01*
X89319909Y-60465915D01*
X89285931Y-60455607D01*
X89254610Y-60438866D01*
X89227161Y-60416339D01*
X89204634Y-60388890D01*
X89187893Y-60357569D01*
X89177585Y-60323591D01*
X89173500Y-60282110D01*
X89173500Y-59605890D01*
X89177585Y-59564409D01*
X89187893Y-59530431D01*
X89204634Y-59499110D01*
X89227161Y-59471661D01*
X89254610Y-59449134D01*
X89285931Y-59432393D01*
X89319909Y-59422085D01*
X89361390Y-59418000D01*
X89962610Y-59418000D01*
X90004091Y-59422085D01*
X90004091Y-59422085D01*
G37*
G36*
X88429091Y-59422085D02*
G01*
X88463069Y-59432393D01*
X88494390Y-59449134D01*
X88521839Y-59471661D01*
X88544366Y-59499110D01*
X88561107Y-59530431D01*
X88571415Y-59564409D01*
X88575500Y-59605890D01*
X88575500Y-60282110D01*
X88571415Y-60323591D01*
X88561107Y-60357569D01*
X88544366Y-60388890D01*
X88521839Y-60416339D01*
X88494390Y-60438866D01*
X88463069Y-60455607D01*
X88429091Y-60465915D01*
X88387610Y-60470000D01*
X87786390Y-60470000D01*
X87744909Y-60465915D01*
X87710931Y-60455607D01*
X87679610Y-60438866D01*
X87652161Y-60416339D01*
X87629634Y-60388890D01*
X87612893Y-60357569D01*
X87602585Y-60323591D01*
X87598500Y-60282110D01*
X87598500Y-59605890D01*
X87602585Y-59564409D01*
X87612893Y-59530431D01*
X87629634Y-59499110D01*
X87652161Y-59471661D01*
X87679610Y-59449134D01*
X87710931Y-59432393D01*
X87744909Y-59422085D01*
X87786390Y-59418000D01*
X88387610Y-59418000D01*
X88429091Y-59422085D01*
X88429091Y-59422085D01*
G37*
G36*
X86341015Y-55336973D02*
G01*
X86444879Y-55368479D01*
X86472055Y-55383005D01*
X86540600Y-55419643D01*
X86624501Y-55488499D01*
X86693357Y-55572400D01*
X86729119Y-55639307D01*
X86744521Y-55668121D01*
X86776027Y-55771985D01*
X86786666Y-55880000D01*
X86776027Y-55988015D01*
X86744521Y-56091879D01*
X86739415Y-56101431D01*
X86693357Y-56187600D01*
X86624501Y-56271501D01*
X86540600Y-56340357D01*
X86472055Y-56376995D01*
X86444879Y-56391521D01*
X86432131Y-56395388D01*
X86409504Y-56404760D01*
X86389130Y-56418374D01*
X86371803Y-56435701D01*
X86358189Y-56456075D01*
X86348812Y-56478714D01*
X86344031Y-56502747D01*
X86344031Y-56527251D01*
X86348811Y-56551285D01*
X86358188Y-56573924D01*
X86371802Y-56594298D01*
X86389129Y-56611625D01*
X86409503Y-56625239D01*
X86432131Y-56634612D01*
X86444879Y-56638479D01*
X86472055Y-56653005D01*
X86540600Y-56689643D01*
X86624501Y-56758499D01*
X86693357Y-56842400D01*
X86718917Y-56890220D01*
X86744521Y-56938121D01*
X86776027Y-57041985D01*
X86786666Y-57150000D01*
X86776027Y-57258015D01*
X86744521Y-57361879D01*
X86739415Y-57371431D01*
X86693357Y-57457600D01*
X86624501Y-57541501D01*
X86540600Y-57610357D01*
X86472055Y-57646995D01*
X86444879Y-57661521D01*
X86432131Y-57665388D01*
X86409504Y-57674760D01*
X86389130Y-57688374D01*
X86371803Y-57705701D01*
X86358189Y-57726075D01*
X86348812Y-57748714D01*
X86344031Y-57772747D01*
X86344031Y-57797251D01*
X86348811Y-57821285D01*
X86358188Y-57843924D01*
X86371802Y-57864298D01*
X86389129Y-57881625D01*
X86409503Y-57895239D01*
X86432131Y-57904612D01*
X86444879Y-57908479D01*
X86472055Y-57923005D01*
X86540600Y-57959643D01*
X86624501Y-58028499D01*
X86693357Y-58112400D01*
X86729119Y-58179307D01*
X86744521Y-58208121D01*
X86776027Y-58311985D01*
X86786666Y-58420000D01*
X86776027Y-58528015D01*
X86744521Y-58631879D01*
X86744519Y-58631882D01*
X86693357Y-58727600D01*
X86624501Y-58811501D01*
X86540600Y-58880356D01*
X86496807Y-58903764D01*
X86476437Y-58917375D01*
X86459110Y-58934702D01*
X86445496Y-58955076D01*
X86436119Y-58977715D01*
X86431338Y-59001748D01*
X86431338Y-59026252D01*
X86436118Y-59050286D01*
X86445495Y-59072924D01*
X86459109Y-59093299D01*
X86476436Y-59110626D01*
X86496810Y-59124240D01*
X86519449Y-59133617D01*
X86543482Y-59138398D01*
X86555735Y-59139000D01*
X86784000Y-59139000D01*
X86784000Y-60241000D01*
X85682000Y-60241000D01*
X85682000Y-59139000D01*
X85910265Y-59139000D01*
X85934651Y-59136598D01*
X85958100Y-59129485D01*
X85979711Y-59117934D01*
X85998653Y-59102389D01*
X86014198Y-59083447D01*
X86025749Y-59061836D01*
X86032862Y-59038387D01*
X86035264Y-59014001D01*
X86032862Y-58989615D01*
X86025749Y-58966166D01*
X86014198Y-58944555D01*
X85998653Y-58925613D01*
X85979711Y-58910068D01*
X85969198Y-58903767D01*
X85925400Y-58880356D01*
X85841499Y-58811501D01*
X85772643Y-58727600D01*
X85721481Y-58631882D01*
X85721479Y-58631879D01*
X85689973Y-58528015D01*
X85679334Y-58420000D01*
X85689973Y-58311985D01*
X85721479Y-58208121D01*
X85736881Y-58179307D01*
X85772643Y-58112400D01*
X85841499Y-58028499D01*
X85925400Y-57959643D01*
X85993945Y-57923005D01*
X86021121Y-57908479D01*
X86033869Y-57904612D01*
X86056496Y-57895240D01*
X86076870Y-57881626D01*
X86094197Y-57864299D01*
X86107811Y-57843925D01*
X86117188Y-57821286D01*
X86121969Y-57797253D01*
X86121969Y-57772749D01*
X86117189Y-57748715D01*
X86107812Y-57726076D01*
X86094198Y-57705702D01*
X86076871Y-57688375D01*
X86056497Y-57674761D01*
X86033869Y-57665388D01*
X86021121Y-57661521D01*
X85993945Y-57646995D01*
X85925400Y-57610357D01*
X85841499Y-57541501D01*
X85772643Y-57457600D01*
X85726585Y-57371431D01*
X85721479Y-57361879D01*
X85689973Y-57258015D01*
X85679334Y-57150000D01*
X85689973Y-57041985D01*
X85721479Y-56938121D01*
X85747083Y-56890220D01*
X85772643Y-56842400D01*
X85841499Y-56758499D01*
X85925400Y-56689643D01*
X85993945Y-56653005D01*
X86021121Y-56638479D01*
X86033869Y-56634612D01*
X86056496Y-56625240D01*
X86076870Y-56611626D01*
X86094197Y-56594299D01*
X86107811Y-56573925D01*
X86117188Y-56551286D01*
X86121969Y-56527253D01*
X86121969Y-56502749D01*
X86117189Y-56478715D01*
X86107812Y-56456076D01*
X86094198Y-56435702D01*
X86076871Y-56418375D01*
X86056497Y-56404761D01*
X86033869Y-56395388D01*
X86021121Y-56391521D01*
X85993945Y-56376995D01*
X85925400Y-56340357D01*
X85841499Y-56271501D01*
X85772643Y-56187600D01*
X85726585Y-56101431D01*
X85721479Y-56091879D01*
X85689973Y-55988015D01*
X85679334Y-55880000D01*
X85689973Y-55771985D01*
X85721479Y-55668121D01*
X85736881Y-55639307D01*
X85772643Y-55572400D01*
X85841499Y-55488499D01*
X85925400Y-55419643D01*
X85993945Y-55383005D01*
X86021121Y-55368479D01*
X86124985Y-55336973D01*
X86205933Y-55329000D01*
X86260067Y-55329000D01*
X86341015Y-55336973D01*
X86341015Y-55336973D01*
G37*
G36*
X102602591Y-59168085D02*
G01*
X102636569Y-59178393D01*
X102667890Y-59195134D01*
X102695339Y-59217661D01*
X102717866Y-59245110D01*
X102734607Y-59276431D01*
X102744915Y-59310409D01*
X102749000Y-59351890D01*
X102749000Y-60028110D01*
X102744915Y-60069591D01*
X102734607Y-60103569D01*
X102717866Y-60134890D01*
X102695339Y-60162339D01*
X102667890Y-60184866D01*
X102636569Y-60201607D01*
X102602591Y-60211915D01*
X102561110Y-60216000D01*
X101959890Y-60216000D01*
X101918409Y-60211915D01*
X101884431Y-60201607D01*
X101853110Y-60184866D01*
X101825661Y-60162339D01*
X101803134Y-60134890D01*
X101786393Y-60103569D01*
X101776085Y-60069591D01*
X101772000Y-60028110D01*
X101772000Y-59351890D01*
X101776085Y-59310409D01*
X101786393Y-59276431D01*
X101803134Y-59245110D01*
X101825661Y-59217661D01*
X101853110Y-59195134D01*
X101884431Y-59178393D01*
X101918409Y-59168085D01*
X101959890Y-59164000D01*
X102561110Y-59164000D01*
X102602591Y-59168085D01*
X102602591Y-59168085D01*
G37*
G36*
X124684591Y-59168085D02*
G01*
X124718569Y-59178393D01*
X124749890Y-59195134D01*
X124777339Y-59217661D01*
X124799866Y-59245110D01*
X124816607Y-59276431D01*
X124826915Y-59310409D01*
X124831000Y-59351890D01*
X124831000Y-60028110D01*
X124826915Y-60069591D01*
X124816607Y-60103569D01*
X124799866Y-60134890D01*
X124777339Y-60162339D01*
X124749890Y-60184866D01*
X124718569Y-60201607D01*
X124684591Y-60211915D01*
X124643110Y-60216000D01*
X124041890Y-60216000D01*
X124000409Y-60211915D01*
X123966431Y-60201607D01*
X123935110Y-60184866D01*
X123907661Y-60162339D01*
X123885134Y-60134890D01*
X123868393Y-60103569D01*
X123858085Y-60069591D01*
X123854000Y-60028110D01*
X123854000Y-59351890D01*
X123858085Y-59310409D01*
X123868393Y-59276431D01*
X123885134Y-59245110D01*
X123907661Y-59217661D01*
X123935110Y-59195134D01*
X123966431Y-59178393D01*
X124000409Y-59168085D01*
X124041890Y-59164000D01*
X124643110Y-59164000D01*
X124684591Y-59168085D01*
X124684591Y-59168085D01*
G37*
G36*
X126259591Y-59168085D02*
G01*
X126293569Y-59178393D01*
X126324890Y-59195134D01*
X126352339Y-59217661D01*
X126374866Y-59245110D01*
X126391607Y-59276431D01*
X126401915Y-59310409D01*
X126406000Y-59351890D01*
X126406000Y-60028110D01*
X126401915Y-60069591D01*
X126391607Y-60103569D01*
X126374866Y-60134890D01*
X126352339Y-60162339D01*
X126324890Y-60184866D01*
X126293569Y-60201607D01*
X126259591Y-60211915D01*
X126218110Y-60216000D01*
X125616890Y-60216000D01*
X125575409Y-60211915D01*
X125541431Y-60201607D01*
X125510110Y-60184866D01*
X125482661Y-60162339D01*
X125460134Y-60134890D01*
X125443393Y-60103569D01*
X125433085Y-60069591D01*
X125429000Y-60028110D01*
X125429000Y-59351890D01*
X125433085Y-59310409D01*
X125443393Y-59276431D01*
X125460134Y-59245110D01*
X125482661Y-59217661D01*
X125510110Y-59195134D01*
X125541431Y-59178393D01*
X125575409Y-59168085D01*
X125616890Y-59164000D01*
X126218110Y-59164000D01*
X126259591Y-59168085D01*
X126259591Y-59168085D01*
G37*
G36*
X101027591Y-59168085D02*
G01*
X101061569Y-59178393D01*
X101092890Y-59195134D01*
X101120339Y-59217661D01*
X101142866Y-59245110D01*
X101159607Y-59276431D01*
X101169915Y-59310409D01*
X101174000Y-59351890D01*
X101174000Y-60028110D01*
X101169915Y-60069591D01*
X101159607Y-60103569D01*
X101142866Y-60134890D01*
X101120339Y-60162339D01*
X101092890Y-60184866D01*
X101061569Y-60201607D01*
X101027591Y-60211915D01*
X100986110Y-60216000D01*
X100384890Y-60216000D01*
X100343409Y-60211915D01*
X100309431Y-60201607D01*
X100278110Y-60184866D01*
X100250661Y-60162339D01*
X100228134Y-60134890D01*
X100211393Y-60103569D01*
X100201085Y-60069591D01*
X100197000Y-60028110D01*
X100197000Y-59351890D01*
X100201085Y-59310409D01*
X100211393Y-59276431D01*
X100228134Y-59245110D01*
X100250661Y-59217661D01*
X100278110Y-59195134D01*
X100309431Y-59178393D01*
X100343409Y-59168085D01*
X100384890Y-59164000D01*
X100986110Y-59164000D01*
X101027591Y-59168085D01*
X101027591Y-59168085D01*
G37*
G36*
X131150500Y-58586500D02*
G01*
X127548500Y-58586500D01*
X127548500Y-54984500D01*
X131150500Y-54984500D01*
X131150500Y-58586500D01*
X131150500Y-58586500D01*
G37*
G36*
X121814591Y-57263085D02*
G01*
X121848569Y-57273393D01*
X121879890Y-57290134D01*
X121907339Y-57312661D01*
X121929866Y-57340110D01*
X121946607Y-57371431D01*
X121956915Y-57405409D01*
X121961000Y-57446890D01*
X121961000Y-58123110D01*
X121956915Y-58164591D01*
X121946607Y-58198569D01*
X121929866Y-58229890D01*
X121907339Y-58257339D01*
X121879890Y-58279866D01*
X121848569Y-58296607D01*
X121814591Y-58306915D01*
X121773110Y-58311000D01*
X121171890Y-58311000D01*
X121130409Y-58306915D01*
X121096431Y-58296607D01*
X121065110Y-58279866D01*
X121037661Y-58257339D01*
X121015134Y-58229890D01*
X120998393Y-58198569D01*
X120988085Y-58164591D01*
X120984000Y-58123110D01*
X120984000Y-57446890D01*
X120988085Y-57405409D01*
X120998393Y-57371431D01*
X121015134Y-57340110D01*
X121037661Y-57312661D01*
X121065110Y-57290134D01*
X121096431Y-57273393D01*
X121130409Y-57263085D01*
X121171890Y-57259000D01*
X121773110Y-57259000D01*
X121814591Y-57263085D01*
X121814591Y-57263085D01*
G37*
G36*
X117207591Y-57263085D02*
G01*
X117241569Y-57273393D01*
X117272890Y-57290134D01*
X117300339Y-57312661D01*
X117322866Y-57340110D01*
X117339607Y-57371431D01*
X117349915Y-57405409D01*
X117354000Y-57446890D01*
X117354000Y-58123110D01*
X117349915Y-58164591D01*
X117339607Y-58198569D01*
X117322866Y-58229890D01*
X117300339Y-58257339D01*
X117272890Y-58279866D01*
X117241569Y-58296607D01*
X117207591Y-58306915D01*
X117166110Y-58311000D01*
X116564890Y-58311000D01*
X116523409Y-58306915D01*
X116489431Y-58296607D01*
X116458110Y-58279866D01*
X116430661Y-58257339D01*
X116408134Y-58229890D01*
X116391393Y-58198569D01*
X116381085Y-58164591D01*
X116377000Y-58123110D01*
X116377000Y-57446890D01*
X116381085Y-57405409D01*
X116391393Y-57371431D01*
X116408134Y-57340110D01*
X116430661Y-57312661D01*
X116458110Y-57290134D01*
X116489431Y-57273393D01*
X116523409Y-57263085D01*
X116564890Y-57259000D01*
X117166110Y-57259000D01*
X117207591Y-57263085D01*
X117207591Y-57263085D01*
G37*
G36*
X115632591Y-57263085D02*
G01*
X115666569Y-57273393D01*
X115697890Y-57290134D01*
X115725339Y-57312661D01*
X115747866Y-57340110D01*
X115764607Y-57371431D01*
X115774915Y-57405409D01*
X115779000Y-57446890D01*
X115779000Y-58123110D01*
X115774915Y-58164591D01*
X115764607Y-58198569D01*
X115747866Y-58229890D01*
X115725339Y-58257339D01*
X115697890Y-58279866D01*
X115666569Y-58296607D01*
X115632591Y-58306915D01*
X115591110Y-58311000D01*
X114989890Y-58311000D01*
X114948409Y-58306915D01*
X114914431Y-58296607D01*
X114883110Y-58279866D01*
X114855661Y-58257339D01*
X114833134Y-58229890D01*
X114816393Y-58198569D01*
X114806085Y-58164591D01*
X114802000Y-58123110D01*
X114802000Y-57446890D01*
X114806085Y-57405409D01*
X114816393Y-57371431D01*
X114833134Y-57340110D01*
X114855661Y-57312661D01*
X114883110Y-57290134D01*
X114914431Y-57273393D01*
X114948409Y-57263085D01*
X114989890Y-57259000D01*
X115591110Y-57259000D01*
X115632591Y-57263085D01*
X115632591Y-57263085D01*
G37*
G36*
X112407091Y-57263085D02*
G01*
X112441069Y-57273393D01*
X112472390Y-57290134D01*
X112499839Y-57312661D01*
X112522366Y-57340110D01*
X112539107Y-57371431D01*
X112549415Y-57405409D01*
X112553500Y-57446890D01*
X112553500Y-58123110D01*
X112549415Y-58164591D01*
X112539107Y-58198569D01*
X112522366Y-58229890D01*
X112499839Y-58257339D01*
X112472390Y-58279866D01*
X112441069Y-58296607D01*
X112407091Y-58306915D01*
X112365610Y-58311000D01*
X111764390Y-58311000D01*
X111722909Y-58306915D01*
X111688931Y-58296607D01*
X111657610Y-58279866D01*
X111630161Y-58257339D01*
X111607634Y-58229890D01*
X111590893Y-58198569D01*
X111580585Y-58164591D01*
X111576500Y-58123110D01*
X111576500Y-57446890D01*
X111580585Y-57405409D01*
X111590893Y-57371431D01*
X111607634Y-57340110D01*
X111630161Y-57312661D01*
X111657610Y-57290134D01*
X111688931Y-57273393D01*
X111722909Y-57263085D01*
X111764390Y-57259000D01*
X112365610Y-57259000D01*
X112407091Y-57263085D01*
X112407091Y-57263085D01*
G37*
G36*
X110832091Y-57263085D02*
G01*
X110866069Y-57273393D01*
X110897390Y-57290134D01*
X110924839Y-57312661D01*
X110947366Y-57340110D01*
X110964107Y-57371431D01*
X110974415Y-57405409D01*
X110978500Y-57446890D01*
X110978500Y-58123110D01*
X110974415Y-58164591D01*
X110964107Y-58198569D01*
X110947366Y-58229890D01*
X110924839Y-58257339D01*
X110897390Y-58279866D01*
X110866069Y-58296607D01*
X110832091Y-58306915D01*
X110790610Y-58311000D01*
X110189390Y-58311000D01*
X110147909Y-58306915D01*
X110113931Y-58296607D01*
X110082610Y-58279866D01*
X110055161Y-58257339D01*
X110032634Y-58229890D01*
X110015893Y-58198569D01*
X110005585Y-58164591D01*
X110001500Y-58123110D01*
X110001500Y-57446890D01*
X110005585Y-57405409D01*
X110015893Y-57371431D01*
X110032634Y-57340110D01*
X110055161Y-57312661D01*
X110082610Y-57290134D01*
X110113931Y-57273393D01*
X110147909Y-57263085D01*
X110189390Y-57259000D01*
X110790610Y-57259000D01*
X110832091Y-57263085D01*
X110832091Y-57263085D01*
G37*
G36*
X120239591Y-57263085D02*
G01*
X120273569Y-57273393D01*
X120304890Y-57290134D01*
X120332339Y-57312661D01*
X120354866Y-57340110D01*
X120371607Y-57371431D01*
X120381915Y-57405409D01*
X120386000Y-57446890D01*
X120386000Y-58123110D01*
X120381915Y-58164591D01*
X120371607Y-58198569D01*
X120354866Y-58229890D01*
X120332339Y-58257339D01*
X120304890Y-58279866D01*
X120273569Y-58296607D01*
X120239591Y-58306915D01*
X120198110Y-58311000D01*
X119596890Y-58311000D01*
X119555409Y-58306915D01*
X119521431Y-58296607D01*
X119490110Y-58279866D01*
X119462661Y-58257339D01*
X119440134Y-58229890D01*
X119423393Y-58198569D01*
X119413085Y-58164591D01*
X119409000Y-58123110D01*
X119409000Y-57446890D01*
X119413085Y-57405409D01*
X119423393Y-57371431D01*
X119440134Y-57340110D01*
X119462661Y-57312661D01*
X119490110Y-57290134D01*
X119521431Y-57273393D01*
X119555409Y-57263085D01*
X119596890Y-57259000D01*
X120198110Y-57259000D01*
X120239591Y-57263085D01*
X120239591Y-57263085D01*
G37*
G36*
X94807091Y-57136085D02*
G01*
X94841069Y-57146393D01*
X94872390Y-57163134D01*
X94899839Y-57185661D01*
X94922366Y-57213110D01*
X94939107Y-57244431D01*
X94949415Y-57278409D01*
X94953500Y-57319890D01*
X94953500Y-57996110D01*
X94949415Y-58037591D01*
X94939107Y-58071569D01*
X94922366Y-58102890D01*
X94899839Y-58130339D01*
X94872390Y-58152866D01*
X94841069Y-58169607D01*
X94807091Y-58179915D01*
X94765610Y-58184000D01*
X94164390Y-58184000D01*
X94122909Y-58179915D01*
X94088931Y-58169607D01*
X94057610Y-58152866D01*
X94030161Y-58130339D01*
X94007634Y-58102890D01*
X93990893Y-58071569D01*
X93980585Y-58037591D01*
X93976500Y-57996110D01*
X93976500Y-57319890D01*
X93980585Y-57278409D01*
X93990893Y-57244431D01*
X94007634Y-57213110D01*
X94030161Y-57185661D01*
X94057610Y-57163134D01*
X94088931Y-57146393D01*
X94122909Y-57136085D01*
X94164390Y-57132000D01*
X94765610Y-57132000D01*
X94807091Y-57136085D01*
X94807091Y-57136085D01*
G37*
G36*
X89750091Y-57136085D02*
G01*
X89784069Y-57146393D01*
X89815390Y-57163134D01*
X89842839Y-57185661D01*
X89865366Y-57213110D01*
X89882107Y-57244431D01*
X89892415Y-57278409D01*
X89896500Y-57319890D01*
X89896500Y-57996110D01*
X89892415Y-58037591D01*
X89882107Y-58071569D01*
X89865366Y-58102890D01*
X89842839Y-58130339D01*
X89815390Y-58152866D01*
X89784069Y-58169607D01*
X89750091Y-58179915D01*
X89708610Y-58184000D01*
X89107390Y-58184000D01*
X89065909Y-58179915D01*
X89031931Y-58169607D01*
X89000610Y-58152866D01*
X88973161Y-58130339D01*
X88950634Y-58102890D01*
X88933893Y-58071569D01*
X88923585Y-58037591D01*
X88919500Y-57996110D01*
X88919500Y-57319890D01*
X88923585Y-57278409D01*
X88933893Y-57244431D01*
X88950634Y-57213110D01*
X88973161Y-57185661D01*
X89000610Y-57163134D01*
X89031931Y-57146393D01*
X89065909Y-57136085D01*
X89107390Y-57132000D01*
X89708610Y-57132000D01*
X89750091Y-57136085D01*
X89750091Y-57136085D01*
G37*
G36*
X88175091Y-57136085D02*
G01*
X88209069Y-57146393D01*
X88240390Y-57163134D01*
X88267839Y-57185661D01*
X88290366Y-57213110D01*
X88307107Y-57244431D01*
X88317415Y-57278409D01*
X88321500Y-57319890D01*
X88321500Y-57996110D01*
X88317415Y-58037591D01*
X88307107Y-58071569D01*
X88290366Y-58102890D01*
X88267839Y-58130339D01*
X88240390Y-58152866D01*
X88209069Y-58169607D01*
X88175091Y-58179915D01*
X88133610Y-58184000D01*
X87532390Y-58184000D01*
X87490909Y-58179915D01*
X87456931Y-58169607D01*
X87425610Y-58152866D01*
X87398161Y-58130339D01*
X87375634Y-58102890D01*
X87358893Y-58071569D01*
X87348585Y-58037591D01*
X87344500Y-57996110D01*
X87344500Y-57319890D01*
X87348585Y-57278409D01*
X87358893Y-57244431D01*
X87375634Y-57213110D01*
X87398161Y-57185661D01*
X87425610Y-57163134D01*
X87456931Y-57146393D01*
X87490909Y-57136085D01*
X87532390Y-57132000D01*
X88133610Y-57132000D01*
X88175091Y-57136085D01*
X88175091Y-57136085D01*
G37*
G36*
X93232091Y-57136085D02*
G01*
X93266069Y-57146393D01*
X93297390Y-57163134D01*
X93324839Y-57185661D01*
X93347366Y-57213110D01*
X93364107Y-57244431D01*
X93374415Y-57278409D01*
X93378500Y-57319890D01*
X93378500Y-57996110D01*
X93374415Y-58037591D01*
X93364107Y-58071569D01*
X93347366Y-58102890D01*
X93324839Y-58130339D01*
X93297390Y-58152866D01*
X93266069Y-58169607D01*
X93232091Y-58179915D01*
X93190610Y-58184000D01*
X92589390Y-58184000D01*
X92547909Y-58179915D01*
X92513931Y-58169607D01*
X92482610Y-58152866D01*
X92455161Y-58130339D01*
X92432634Y-58102890D01*
X92415893Y-58071569D01*
X92405585Y-58037591D01*
X92401500Y-57996110D01*
X92401500Y-57319890D01*
X92405585Y-57278409D01*
X92415893Y-57244431D01*
X92432634Y-57213110D01*
X92455161Y-57185661D01*
X92482610Y-57163134D01*
X92513931Y-57146393D01*
X92547909Y-57136085D01*
X92589390Y-57132000D01*
X93190610Y-57132000D01*
X93232091Y-57136085D01*
X93232091Y-57136085D01*
G37*
G36*
X101795355Y-49415083D02*
G01*
X101800029Y-49416501D01*
X101804330Y-49418800D01*
X101810702Y-49424029D01*
X101831076Y-49437643D01*
X101853715Y-49447020D01*
X101877749Y-49451800D01*
X101902253Y-49451800D01*
X101926286Y-49447019D01*
X101948925Y-49437642D01*
X101969298Y-49424029D01*
X101975670Y-49418800D01*
X101979971Y-49416501D01*
X101984645Y-49415083D01*
X101995641Y-49414000D01*
X102284359Y-49414000D01*
X102295355Y-49415083D01*
X102300029Y-49416501D01*
X102304330Y-49418800D01*
X102310702Y-49424029D01*
X102331076Y-49437643D01*
X102353715Y-49447020D01*
X102377749Y-49451800D01*
X102402253Y-49451800D01*
X102426286Y-49447019D01*
X102448925Y-49437642D01*
X102469298Y-49424029D01*
X102475670Y-49418800D01*
X102479971Y-49416501D01*
X102484645Y-49415083D01*
X102495641Y-49414000D01*
X102784359Y-49414000D01*
X102795355Y-49415083D01*
X102800029Y-49416501D01*
X102804330Y-49418800D01*
X102810702Y-49424029D01*
X102831076Y-49437643D01*
X102853715Y-49447020D01*
X102877749Y-49451800D01*
X102902253Y-49451800D01*
X102926286Y-49447019D01*
X102948925Y-49437642D01*
X102969298Y-49424029D01*
X102975670Y-49418800D01*
X102979971Y-49416501D01*
X102984645Y-49415083D01*
X102995641Y-49414000D01*
X103284359Y-49414000D01*
X103295355Y-49415083D01*
X103300029Y-49416501D01*
X103304330Y-49418800D01*
X103310702Y-49424029D01*
X103331076Y-49437643D01*
X103353715Y-49447020D01*
X103377749Y-49451800D01*
X103402253Y-49451800D01*
X103426286Y-49447019D01*
X103448925Y-49437642D01*
X103469298Y-49424029D01*
X103475670Y-49418800D01*
X103479971Y-49416501D01*
X103484645Y-49415083D01*
X103495641Y-49414000D01*
X103784359Y-49414000D01*
X103795355Y-49415083D01*
X103800029Y-49416501D01*
X103804330Y-49418800D01*
X103810702Y-49424029D01*
X103831076Y-49437643D01*
X103853715Y-49447020D01*
X103877749Y-49451800D01*
X103902253Y-49451800D01*
X103926286Y-49447019D01*
X103948925Y-49437642D01*
X103969298Y-49424029D01*
X103975670Y-49418800D01*
X103979971Y-49416501D01*
X103984645Y-49415083D01*
X103995641Y-49414000D01*
X104284359Y-49414000D01*
X104295355Y-49415083D01*
X104300029Y-49416501D01*
X104304330Y-49418800D01*
X104310702Y-49424029D01*
X104331076Y-49437643D01*
X104353715Y-49447020D01*
X104377749Y-49451800D01*
X104402253Y-49451800D01*
X104426286Y-49447019D01*
X104448925Y-49437642D01*
X104469298Y-49424029D01*
X104475670Y-49418800D01*
X104479971Y-49416501D01*
X104484645Y-49415083D01*
X104495641Y-49414000D01*
X104784359Y-49414000D01*
X104795355Y-49415083D01*
X104800029Y-49416501D01*
X104804330Y-49418800D01*
X104810702Y-49424029D01*
X104831076Y-49437643D01*
X104853715Y-49447020D01*
X104877749Y-49451800D01*
X104902253Y-49451800D01*
X104926286Y-49447019D01*
X104948925Y-49437642D01*
X104969298Y-49424029D01*
X104975670Y-49418800D01*
X104979971Y-49416501D01*
X104984645Y-49415083D01*
X104995641Y-49414000D01*
X105284359Y-49414000D01*
X105295355Y-49415083D01*
X105300029Y-49416501D01*
X105304330Y-49418800D01*
X105310702Y-49424029D01*
X105331076Y-49437643D01*
X105353715Y-49447020D01*
X105377749Y-49451800D01*
X105402253Y-49451800D01*
X105426286Y-49447019D01*
X105448925Y-49437642D01*
X105469298Y-49424029D01*
X105475670Y-49418800D01*
X105479971Y-49416501D01*
X105484645Y-49415083D01*
X105495641Y-49414000D01*
X105784359Y-49414000D01*
X105795355Y-49415083D01*
X105800029Y-49416501D01*
X105804330Y-49418800D01*
X105810702Y-49424029D01*
X105831076Y-49437643D01*
X105853715Y-49447020D01*
X105877749Y-49451800D01*
X105902253Y-49451800D01*
X105926286Y-49447019D01*
X105948925Y-49437642D01*
X105969298Y-49424029D01*
X105975670Y-49418800D01*
X105979971Y-49416501D01*
X105984645Y-49415083D01*
X105995641Y-49414000D01*
X106284359Y-49414000D01*
X106295355Y-49415083D01*
X106300029Y-49416501D01*
X106304330Y-49418800D01*
X106310702Y-49424029D01*
X106331076Y-49437643D01*
X106353715Y-49447020D01*
X106377749Y-49451800D01*
X106402253Y-49451800D01*
X106426286Y-49447019D01*
X106448925Y-49437642D01*
X106469298Y-49424029D01*
X106475670Y-49418800D01*
X106479971Y-49416501D01*
X106484645Y-49415083D01*
X106495641Y-49414000D01*
X106784359Y-49414000D01*
X106795355Y-49415083D01*
X106800029Y-49416501D01*
X106804331Y-49418800D01*
X106808104Y-49421896D01*
X106811200Y-49425669D01*
X106813499Y-49429971D01*
X106814917Y-49434645D01*
X106816000Y-49445641D01*
X106816000Y-50539001D01*
X106818402Y-50563387D01*
X106825515Y-50586836D01*
X106837066Y-50608447D01*
X106852611Y-50627389D01*
X106871553Y-50642934D01*
X106893164Y-50654485D01*
X106916613Y-50661598D01*
X106940999Y-50664000D01*
X108034359Y-50664000D01*
X108045355Y-50665083D01*
X108050029Y-50666501D01*
X108054331Y-50668800D01*
X108058104Y-50671896D01*
X108061200Y-50675669D01*
X108063499Y-50679971D01*
X108064917Y-50684645D01*
X108066000Y-50695641D01*
X108066000Y-50984359D01*
X108064917Y-50995355D01*
X108063499Y-51000029D01*
X108061200Y-51004330D01*
X108055971Y-51010702D01*
X108042357Y-51031076D01*
X108032980Y-51053715D01*
X108028200Y-51077749D01*
X108028200Y-51102253D01*
X108032981Y-51126286D01*
X108042358Y-51148925D01*
X108055971Y-51169298D01*
X108061200Y-51175670D01*
X108063499Y-51179971D01*
X108064917Y-51184645D01*
X108066000Y-51195641D01*
X108066000Y-51484359D01*
X108064917Y-51495355D01*
X108063499Y-51500029D01*
X108061200Y-51504330D01*
X108055971Y-51510702D01*
X108042357Y-51531076D01*
X108032980Y-51553715D01*
X108028200Y-51577749D01*
X108028200Y-51602253D01*
X108032981Y-51626286D01*
X108042358Y-51648925D01*
X108055971Y-51669298D01*
X108061200Y-51675670D01*
X108063499Y-51679971D01*
X108064917Y-51684645D01*
X108066000Y-51695641D01*
X108066000Y-51984359D01*
X108064917Y-51995355D01*
X108063499Y-52000029D01*
X108061200Y-52004330D01*
X108055971Y-52010702D01*
X108042357Y-52031076D01*
X108032980Y-52053715D01*
X108028200Y-52077749D01*
X108028200Y-52102253D01*
X108032981Y-52126286D01*
X108042358Y-52148925D01*
X108055971Y-52169298D01*
X108061200Y-52175670D01*
X108063499Y-52179971D01*
X108064917Y-52184645D01*
X108066000Y-52195641D01*
X108066000Y-52484359D01*
X108064917Y-52495355D01*
X108063499Y-52500029D01*
X108061200Y-52504330D01*
X108055971Y-52510702D01*
X108042357Y-52531076D01*
X108032980Y-52553715D01*
X108028200Y-52577749D01*
X108028200Y-52602253D01*
X108032981Y-52626286D01*
X108042358Y-52648925D01*
X108055971Y-52669298D01*
X108061200Y-52675670D01*
X108063499Y-52679971D01*
X108064917Y-52684645D01*
X108066000Y-52695641D01*
X108066000Y-52984359D01*
X108064917Y-52995355D01*
X108063499Y-53000029D01*
X108061200Y-53004330D01*
X108055971Y-53010702D01*
X108042357Y-53031076D01*
X108032980Y-53053715D01*
X108028200Y-53077749D01*
X108028200Y-53102253D01*
X108032981Y-53126286D01*
X108042358Y-53148925D01*
X108055971Y-53169298D01*
X108061200Y-53175670D01*
X108063499Y-53179971D01*
X108064917Y-53184645D01*
X108066000Y-53195641D01*
X108066000Y-53484359D01*
X108064917Y-53495355D01*
X108063499Y-53500029D01*
X108061200Y-53504330D01*
X108055971Y-53510702D01*
X108042357Y-53531076D01*
X108032980Y-53553715D01*
X108028200Y-53577749D01*
X108028200Y-53602253D01*
X108032981Y-53626286D01*
X108042358Y-53648925D01*
X108055971Y-53669298D01*
X108061200Y-53675670D01*
X108063499Y-53679971D01*
X108064917Y-53684645D01*
X108066000Y-53695641D01*
X108066000Y-53984359D01*
X108064917Y-53995355D01*
X108063499Y-54000029D01*
X108061200Y-54004330D01*
X108055971Y-54010702D01*
X108042357Y-54031076D01*
X108032980Y-54053715D01*
X108028200Y-54077749D01*
X108028200Y-54102253D01*
X108032981Y-54126286D01*
X108042358Y-54148925D01*
X108055971Y-54169298D01*
X108061200Y-54175670D01*
X108063499Y-54179971D01*
X108064917Y-54184645D01*
X108066000Y-54195641D01*
X108066000Y-54484359D01*
X108064917Y-54495355D01*
X108063499Y-54500029D01*
X108061200Y-54504330D01*
X108055971Y-54510702D01*
X108042357Y-54531076D01*
X108032980Y-54553715D01*
X108028200Y-54577749D01*
X108028200Y-54602253D01*
X108032981Y-54626286D01*
X108042358Y-54648925D01*
X108055971Y-54669298D01*
X108061200Y-54675670D01*
X108063499Y-54679971D01*
X108064917Y-54684645D01*
X108066000Y-54695641D01*
X108066000Y-54984359D01*
X108064917Y-54995355D01*
X108063499Y-55000029D01*
X108061200Y-55004330D01*
X108055971Y-55010702D01*
X108042357Y-55031076D01*
X108032980Y-55053715D01*
X108028200Y-55077749D01*
X108028200Y-55102253D01*
X108032981Y-55126286D01*
X108042358Y-55148925D01*
X108055971Y-55169298D01*
X108061200Y-55175670D01*
X108063499Y-55179971D01*
X108064917Y-55184645D01*
X108066000Y-55195641D01*
X108066000Y-55484359D01*
X108064917Y-55495355D01*
X108063499Y-55500029D01*
X108061200Y-55504330D01*
X108055971Y-55510702D01*
X108042357Y-55531076D01*
X108032980Y-55553715D01*
X108028200Y-55577749D01*
X108028200Y-55602253D01*
X108032981Y-55626286D01*
X108042358Y-55648925D01*
X108055971Y-55669298D01*
X108061200Y-55675670D01*
X108063499Y-55679971D01*
X108064917Y-55684645D01*
X108066000Y-55695641D01*
X108066000Y-55984359D01*
X108064917Y-55995355D01*
X108063499Y-56000029D01*
X108061200Y-56004331D01*
X108058104Y-56008104D01*
X108054331Y-56011200D01*
X108050029Y-56013499D01*
X108045355Y-56014917D01*
X108034359Y-56016000D01*
X106940999Y-56016000D01*
X106916613Y-56018402D01*
X106893164Y-56025515D01*
X106871553Y-56037066D01*
X106852611Y-56052611D01*
X106837066Y-56071553D01*
X106825515Y-56093164D01*
X106818402Y-56116613D01*
X106816000Y-56140999D01*
X106816000Y-57234359D01*
X106814917Y-57245355D01*
X106813499Y-57250029D01*
X106811200Y-57254331D01*
X106808104Y-57258104D01*
X106804331Y-57261200D01*
X106800029Y-57263499D01*
X106795355Y-57264917D01*
X106784359Y-57266000D01*
X106495641Y-57266000D01*
X106484645Y-57264917D01*
X106479971Y-57263499D01*
X106475670Y-57261200D01*
X106469298Y-57255971D01*
X106448924Y-57242357D01*
X106426285Y-57232980D01*
X106402251Y-57228200D01*
X106377747Y-57228200D01*
X106353714Y-57232981D01*
X106331075Y-57242358D01*
X106310702Y-57255971D01*
X106304330Y-57261200D01*
X106300029Y-57263499D01*
X106295355Y-57264917D01*
X106284359Y-57266000D01*
X105995641Y-57266000D01*
X105984645Y-57264917D01*
X105979971Y-57263499D01*
X105975670Y-57261200D01*
X105969298Y-57255971D01*
X105948924Y-57242357D01*
X105926285Y-57232980D01*
X105902251Y-57228200D01*
X105877747Y-57228200D01*
X105853714Y-57232981D01*
X105831075Y-57242358D01*
X105810702Y-57255971D01*
X105804330Y-57261200D01*
X105800029Y-57263499D01*
X105795355Y-57264917D01*
X105784359Y-57266000D01*
X105495641Y-57266000D01*
X105484645Y-57264917D01*
X105479971Y-57263499D01*
X105475670Y-57261200D01*
X105469298Y-57255971D01*
X105448924Y-57242357D01*
X105426285Y-57232980D01*
X105402251Y-57228200D01*
X105377747Y-57228200D01*
X105353714Y-57232981D01*
X105331075Y-57242358D01*
X105310702Y-57255971D01*
X105304330Y-57261200D01*
X105300029Y-57263499D01*
X105295355Y-57264917D01*
X105284359Y-57266000D01*
X104995641Y-57266000D01*
X104984645Y-57264917D01*
X104979971Y-57263499D01*
X104975670Y-57261200D01*
X104969298Y-57255971D01*
X104948924Y-57242357D01*
X104926285Y-57232980D01*
X104902251Y-57228200D01*
X104877747Y-57228200D01*
X104853714Y-57232981D01*
X104831075Y-57242358D01*
X104810702Y-57255971D01*
X104804330Y-57261200D01*
X104800029Y-57263499D01*
X104795355Y-57264917D01*
X104784359Y-57266000D01*
X104495641Y-57266000D01*
X104484645Y-57264917D01*
X104479971Y-57263499D01*
X104475670Y-57261200D01*
X104469298Y-57255971D01*
X104448924Y-57242357D01*
X104426285Y-57232980D01*
X104402251Y-57228200D01*
X104377747Y-57228200D01*
X104353714Y-57232981D01*
X104331075Y-57242358D01*
X104310702Y-57255971D01*
X104304330Y-57261200D01*
X104300029Y-57263499D01*
X104295355Y-57264917D01*
X104284359Y-57266000D01*
X103995641Y-57266000D01*
X103984645Y-57264917D01*
X103979971Y-57263499D01*
X103975670Y-57261200D01*
X103969298Y-57255971D01*
X103948924Y-57242357D01*
X103926285Y-57232980D01*
X103902251Y-57228200D01*
X103877747Y-57228200D01*
X103853714Y-57232981D01*
X103831075Y-57242358D01*
X103810702Y-57255971D01*
X103804330Y-57261200D01*
X103800029Y-57263499D01*
X103795355Y-57264917D01*
X103784359Y-57266000D01*
X103495641Y-57266000D01*
X103484645Y-57264917D01*
X103479971Y-57263499D01*
X103475670Y-57261200D01*
X103469298Y-57255971D01*
X103448924Y-57242357D01*
X103426285Y-57232980D01*
X103402251Y-57228200D01*
X103377747Y-57228200D01*
X103353714Y-57232981D01*
X103331075Y-57242358D01*
X103310702Y-57255971D01*
X103304330Y-57261200D01*
X103300029Y-57263499D01*
X103295355Y-57264917D01*
X103284359Y-57266000D01*
X102995641Y-57266000D01*
X102984645Y-57264917D01*
X102979971Y-57263499D01*
X102975670Y-57261200D01*
X102969298Y-57255971D01*
X102948924Y-57242357D01*
X102926285Y-57232980D01*
X102902251Y-57228200D01*
X102877747Y-57228200D01*
X102853714Y-57232981D01*
X102831075Y-57242358D01*
X102810702Y-57255971D01*
X102804330Y-57261200D01*
X102800029Y-57263499D01*
X102795355Y-57264917D01*
X102784359Y-57266000D01*
X102495641Y-57266000D01*
X102484645Y-57264917D01*
X102479971Y-57263499D01*
X102475670Y-57261200D01*
X102469298Y-57255971D01*
X102448924Y-57242357D01*
X102426285Y-57232980D01*
X102402251Y-57228200D01*
X102377747Y-57228200D01*
X102353714Y-57232981D01*
X102331075Y-57242358D01*
X102310702Y-57255971D01*
X102304330Y-57261200D01*
X102300029Y-57263499D01*
X102295355Y-57264917D01*
X102284359Y-57266000D01*
X101995641Y-57266000D01*
X101984645Y-57264917D01*
X101979971Y-57263499D01*
X101975670Y-57261200D01*
X101969298Y-57255971D01*
X101948924Y-57242357D01*
X101926285Y-57232980D01*
X101902251Y-57228200D01*
X101877747Y-57228200D01*
X101853714Y-57232981D01*
X101831075Y-57242358D01*
X101810702Y-57255971D01*
X101804330Y-57261200D01*
X101800029Y-57263499D01*
X101795355Y-57264917D01*
X101784359Y-57266000D01*
X101495641Y-57266000D01*
X101484645Y-57264917D01*
X101479971Y-57263499D01*
X101475669Y-57261200D01*
X101471896Y-57258104D01*
X101468800Y-57254331D01*
X101466501Y-57250029D01*
X101465083Y-57245355D01*
X101464000Y-57234359D01*
X101464000Y-56140999D01*
X101461598Y-56116613D01*
X101454485Y-56093164D01*
X101442934Y-56071553D01*
X101427389Y-56052611D01*
X101408447Y-56037066D01*
X101386836Y-56025515D01*
X101363387Y-56018402D01*
X101339001Y-56016000D01*
X100245641Y-56016000D01*
X100234645Y-56014917D01*
X100229971Y-56013499D01*
X100225669Y-56011200D01*
X100221896Y-56008104D01*
X100218800Y-56004331D01*
X100216501Y-56000029D01*
X100215083Y-55995355D01*
X100214000Y-55984359D01*
X100214000Y-55695641D01*
X100215083Y-55684645D01*
X100216501Y-55679971D01*
X100218800Y-55675670D01*
X100224029Y-55669298D01*
X100237643Y-55648924D01*
X100247020Y-55626285D01*
X100251800Y-55602251D01*
X100251800Y-55577747D01*
X100247019Y-55553714D01*
X100237642Y-55531075D01*
X100224029Y-55510702D01*
X100218800Y-55504330D01*
X100216501Y-55500029D01*
X100215083Y-55495355D01*
X100214000Y-55484359D01*
X100214000Y-55195641D01*
X100215083Y-55184645D01*
X100216501Y-55179971D01*
X100218800Y-55175670D01*
X100224029Y-55169298D01*
X100237643Y-55148924D01*
X100247020Y-55126285D01*
X100251800Y-55102251D01*
X100251800Y-55077747D01*
X100247019Y-55053714D01*
X100237642Y-55031075D01*
X100224029Y-55010702D01*
X100218800Y-55004330D01*
X100216501Y-55000029D01*
X100215083Y-54995355D01*
X100214000Y-54984359D01*
X100214000Y-54695641D01*
X100215083Y-54684645D01*
X100216501Y-54679971D01*
X100218800Y-54675670D01*
X100224029Y-54669298D01*
X100237643Y-54648924D01*
X100247020Y-54626285D01*
X100251800Y-54602251D01*
X100251800Y-54577747D01*
X100247019Y-54553714D01*
X100237642Y-54531075D01*
X100224029Y-54510702D01*
X100218800Y-54504330D01*
X100216501Y-54500029D01*
X100215083Y-54495355D01*
X100214000Y-54484359D01*
X100214000Y-54195641D01*
X100215083Y-54184645D01*
X100216501Y-54179971D01*
X100218800Y-54175670D01*
X100224029Y-54169298D01*
X100237643Y-54148924D01*
X100247020Y-54126285D01*
X100251800Y-54102251D01*
X100251800Y-54077747D01*
X100247019Y-54053714D01*
X100237642Y-54031075D01*
X100224029Y-54010702D01*
X100218800Y-54004330D01*
X100216501Y-54000029D01*
X100215083Y-53995355D01*
X100214000Y-53984359D01*
X100214000Y-53695641D01*
X100215083Y-53684645D01*
X100216501Y-53679971D01*
X100218800Y-53675670D01*
X100224029Y-53669298D01*
X100237643Y-53648924D01*
X100247020Y-53626285D01*
X100251800Y-53602251D01*
X100251800Y-53577747D01*
X100247019Y-53553714D01*
X100237642Y-53531075D01*
X100224029Y-53510702D01*
X100218800Y-53504330D01*
X100216501Y-53500029D01*
X100215083Y-53495355D01*
X100214000Y-53484359D01*
X100214000Y-53195641D01*
X100215083Y-53184645D01*
X100216501Y-53179971D01*
X100218800Y-53175670D01*
X100224029Y-53169298D01*
X100237643Y-53148924D01*
X100247020Y-53126285D01*
X100251800Y-53102251D01*
X100251800Y-53077747D01*
X100247019Y-53053714D01*
X100237642Y-53031075D01*
X100224029Y-53010702D01*
X100218800Y-53004330D01*
X100216501Y-53000029D01*
X100215083Y-52995355D01*
X100214000Y-52984359D01*
X100214000Y-52695641D01*
X100215083Y-52684645D01*
X100216501Y-52679971D01*
X100218800Y-52675670D01*
X100224029Y-52669298D01*
X100237643Y-52648924D01*
X100247020Y-52626285D01*
X100251800Y-52602251D01*
X100251800Y-52577747D01*
X100247019Y-52553714D01*
X100237642Y-52531075D01*
X100224029Y-52510702D01*
X100218800Y-52504330D01*
X100216501Y-52500029D01*
X100215083Y-52495355D01*
X100214000Y-52484359D01*
X100214000Y-52195641D01*
X100215083Y-52184645D01*
X100216501Y-52179971D01*
X100218800Y-52175670D01*
X100224029Y-52169298D01*
X100237643Y-52148924D01*
X100247020Y-52126285D01*
X100251800Y-52102251D01*
X100251800Y-52077747D01*
X100247019Y-52053714D01*
X100237642Y-52031075D01*
X100224029Y-52010702D01*
X100218800Y-52004330D01*
X100216501Y-52000029D01*
X100215083Y-51995355D01*
X100214000Y-51984359D01*
X100214000Y-51695641D01*
X100215083Y-51684645D01*
X100216501Y-51679971D01*
X100218800Y-51675670D01*
X100224029Y-51669298D01*
X100237643Y-51648924D01*
X100247020Y-51626285D01*
X100251800Y-51602251D01*
X100251800Y-51577747D01*
X100247019Y-51553714D01*
X100237642Y-51531075D01*
X100224029Y-51510702D01*
X100218800Y-51504330D01*
X100216501Y-51500029D01*
X100215083Y-51495355D01*
X100214000Y-51484359D01*
X100214000Y-51195641D01*
X100215083Y-51184645D01*
X100216501Y-51179971D01*
X100218800Y-51175670D01*
X100224029Y-51169298D01*
X100237643Y-51148924D01*
X100247020Y-51126285D01*
X100251800Y-51102251D01*
X100251800Y-51077747D01*
X100247019Y-51053714D01*
X100237642Y-51031075D01*
X100224029Y-51010702D01*
X100218800Y-51004330D01*
X100216501Y-51000029D01*
X100215083Y-50995355D01*
X100214000Y-50984359D01*
X100214000Y-50695641D01*
X100215083Y-50684645D01*
X100216501Y-50679971D01*
X100218800Y-50675669D01*
X100221896Y-50671896D01*
X100225669Y-50668800D01*
X100229971Y-50666501D01*
X100234645Y-50665083D01*
X100245641Y-50664000D01*
X101339001Y-50664000D01*
X101363387Y-50661598D01*
X101386836Y-50654485D01*
X101408447Y-50642934D01*
X101427389Y-50627389D01*
X101442934Y-50608447D01*
X101454485Y-50586836D01*
X101461598Y-50563387D01*
X101464000Y-50539001D01*
X101464000Y-49445641D01*
X101465083Y-49434645D01*
X101466501Y-49429971D01*
X101468800Y-49425669D01*
X101471896Y-49421896D01*
X101475669Y-49418800D01*
X101479971Y-49416501D01*
X101484645Y-49415083D01*
X101495641Y-49414000D01*
X101784359Y-49414000D01*
X101795355Y-49415083D01*
X101795355Y-49415083D01*
G37*
G36*
X126132591Y-55993085D02*
G01*
X126166569Y-56003393D01*
X126197890Y-56020134D01*
X126225339Y-56042661D01*
X126247866Y-56070110D01*
X126264607Y-56101431D01*
X126274915Y-56135409D01*
X126279000Y-56176890D01*
X126279000Y-56853110D01*
X126274915Y-56894591D01*
X126264607Y-56928569D01*
X126247866Y-56959890D01*
X126225339Y-56987339D01*
X126197890Y-57009866D01*
X126166569Y-57026607D01*
X126132591Y-57036915D01*
X126091110Y-57041000D01*
X125489890Y-57041000D01*
X125448409Y-57036915D01*
X125414431Y-57026607D01*
X125383110Y-57009866D01*
X125355661Y-56987339D01*
X125333134Y-56959890D01*
X125316393Y-56928569D01*
X125306085Y-56894591D01*
X125302000Y-56853110D01*
X125302000Y-56176890D01*
X125306085Y-56135409D01*
X125316393Y-56101431D01*
X125333134Y-56070110D01*
X125355661Y-56042661D01*
X125383110Y-56020134D01*
X125414431Y-56003393D01*
X125448409Y-55993085D01*
X125489890Y-55989000D01*
X126091110Y-55989000D01*
X126132591Y-55993085D01*
X126132591Y-55993085D01*
G37*
G36*
X124557591Y-55993085D02*
G01*
X124591569Y-56003393D01*
X124622890Y-56020134D01*
X124650339Y-56042661D01*
X124672866Y-56070110D01*
X124689607Y-56101431D01*
X124699915Y-56135409D01*
X124704000Y-56176890D01*
X124704000Y-56853110D01*
X124699915Y-56894591D01*
X124689607Y-56928569D01*
X124672866Y-56959890D01*
X124650339Y-56987339D01*
X124622890Y-57009866D01*
X124591569Y-57026607D01*
X124557591Y-57036915D01*
X124516110Y-57041000D01*
X123914890Y-57041000D01*
X123873409Y-57036915D01*
X123839431Y-57026607D01*
X123808110Y-57009866D01*
X123780661Y-56987339D01*
X123758134Y-56959890D01*
X123741393Y-56928569D01*
X123731085Y-56894591D01*
X123727000Y-56853110D01*
X123727000Y-56176890D01*
X123731085Y-56135409D01*
X123741393Y-56101431D01*
X123758134Y-56070110D01*
X123780661Y-56042661D01*
X123808110Y-56020134D01*
X123839431Y-56003393D01*
X123873409Y-55993085D01*
X123914890Y-55989000D01*
X124516110Y-55989000D01*
X124557591Y-55993085D01*
X124557591Y-55993085D01*
G37*
G36*
X94961000Y-55861000D02*
G01*
X92459000Y-55861000D01*
X92459000Y-53759000D01*
X94961000Y-53759000D01*
X94961000Y-55861000D01*
X94961000Y-55861000D01*
G37*
G36*
X89750091Y-54596085D02*
G01*
X89784069Y-54606393D01*
X89815390Y-54623134D01*
X89842839Y-54645661D01*
X89865366Y-54673110D01*
X89882107Y-54704431D01*
X89892415Y-54738409D01*
X89896500Y-54779890D01*
X89896500Y-55456110D01*
X89892415Y-55497591D01*
X89882107Y-55531569D01*
X89865366Y-55562890D01*
X89842839Y-55590339D01*
X89815390Y-55612866D01*
X89784069Y-55629607D01*
X89750091Y-55639915D01*
X89708610Y-55644000D01*
X89107390Y-55644000D01*
X89065909Y-55639915D01*
X89031931Y-55629607D01*
X89000610Y-55612866D01*
X88973161Y-55590339D01*
X88950634Y-55562890D01*
X88933893Y-55531569D01*
X88923585Y-55497591D01*
X88919500Y-55456110D01*
X88919500Y-54779890D01*
X88923585Y-54738409D01*
X88933893Y-54704431D01*
X88950634Y-54673110D01*
X88973161Y-54645661D01*
X89000610Y-54623134D01*
X89031931Y-54606393D01*
X89065909Y-54596085D01*
X89107390Y-54592000D01*
X89708610Y-54592000D01*
X89750091Y-54596085D01*
X89750091Y-54596085D01*
G37*
G36*
X88175091Y-54596085D02*
G01*
X88209069Y-54606393D01*
X88240390Y-54623134D01*
X88267839Y-54645661D01*
X88290366Y-54673110D01*
X88307107Y-54704431D01*
X88317415Y-54738409D01*
X88321500Y-54779890D01*
X88321500Y-55456110D01*
X88317415Y-55497591D01*
X88307107Y-55531569D01*
X88290366Y-55562890D01*
X88267839Y-55590339D01*
X88240390Y-55612866D01*
X88209069Y-55629607D01*
X88175091Y-55639915D01*
X88133610Y-55644000D01*
X87532390Y-55644000D01*
X87490909Y-55639915D01*
X87456931Y-55629607D01*
X87425610Y-55612866D01*
X87398161Y-55590339D01*
X87375634Y-55562890D01*
X87358893Y-55531569D01*
X87348585Y-55497591D01*
X87344500Y-55456110D01*
X87344500Y-54779890D01*
X87348585Y-54738409D01*
X87358893Y-54704431D01*
X87375634Y-54673110D01*
X87398161Y-54645661D01*
X87425610Y-54623134D01*
X87456931Y-54606393D01*
X87490909Y-54596085D01*
X87532390Y-54592000D01*
X88133610Y-54592000D01*
X88175091Y-54596085D01*
X88175091Y-54596085D01*
G37*
G36*
X120392091Y-54088085D02*
G01*
X120426069Y-54098393D01*
X120457390Y-54115134D01*
X120484839Y-54137661D01*
X120507366Y-54165110D01*
X120524107Y-54196431D01*
X120534415Y-54230409D01*
X120538500Y-54271890D01*
X120538500Y-54948110D01*
X120534415Y-54989591D01*
X120524107Y-55023569D01*
X120507366Y-55054890D01*
X120484839Y-55082339D01*
X120457390Y-55104866D01*
X120426069Y-55121607D01*
X120392091Y-55131915D01*
X120350610Y-55136000D01*
X119749390Y-55136000D01*
X119707909Y-55131915D01*
X119673931Y-55121607D01*
X119642610Y-55104866D01*
X119615161Y-55082339D01*
X119592634Y-55054890D01*
X119575893Y-55023569D01*
X119565585Y-54989591D01*
X119561500Y-54948110D01*
X119561500Y-54271890D01*
X119565585Y-54230409D01*
X119575893Y-54196431D01*
X119592634Y-54165110D01*
X119615161Y-54137661D01*
X119642610Y-54115134D01*
X119673931Y-54098393D01*
X119707909Y-54088085D01*
X119749390Y-54084000D01*
X120350610Y-54084000D01*
X120392091Y-54088085D01*
X120392091Y-54088085D01*
G37*
G36*
X121967091Y-54088085D02*
G01*
X122001069Y-54098393D01*
X122032390Y-54115134D01*
X122059839Y-54137661D01*
X122082366Y-54165110D01*
X122099107Y-54196431D01*
X122109415Y-54230409D01*
X122113500Y-54271890D01*
X122113500Y-54948110D01*
X122109415Y-54989591D01*
X122099107Y-55023569D01*
X122082366Y-55054890D01*
X122059839Y-55082339D01*
X122032390Y-55104866D01*
X122001069Y-55121607D01*
X121967091Y-55131915D01*
X121925610Y-55136000D01*
X121324390Y-55136000D01*
X121282909Y-55131915D01*
X121248931Y-55121607D01*
X121217610Y-55104866D01*
X121190161Y-55082339D01*
X121167634Y-55054890D01*
X121150893Y-55023569D01*
X121140585Y-54989591D01*
X121136500Y-54948110D01*
X121136500Y-54271890D01*
X121140585Y-54230409D01*
X121150893Y-54196431D01*
X121167634Y-54165110D01*
X121190161Y-54137661D01*
X121217610Y-54115134D01*
X121248931Y-54098393D01*
X121282909Y-54088085D01*
X121324390Y-54084000D01*
X121925610Y-54084000D01*
X121967091Y-54088085D01*
X121967091Y-54088085D01*
G37*
G36*
X117207591Y-54088085D02*
G01*
X117241569Y-54098393D01*
X117272890Y-54115134D01*
X117300339Y-54137661D01*
X117322866Y-54165110D01*
X117339607Y-54196431D01*
X117349915Y-54230409D01*
X117354000Y-54271890D01*
X117354000Y-54948110D01*
X117349915Y-54989591D01*
X117339607Y-55023569D01*
X117322866Y-55054890D01*
X117300339Y-55082339D01*
X117272890Y-55104866D01*
X117241569Y-55121607D01*
X117207591Y-55131915D01*
X117166110Y-55136000D01*
X116564890Y-55136000D01*
X116523409Y-55131915D01*
X116489431Y-55121607D01*
X116458110Y-55104866D01*
X116430661Y-55082339D01*
X116408134Y-55054890D01*
X116391393Y-55023569D01*
X116381085Y-54989591D01*
X116377000Y-54948110D01*
X116377000Y-54271890D01*
X116381085Y-54230409D01*
X116391393Y-54196431D01*
X116408134Y-54165110D01*
X116430661Y-54137661D01*
X116458110Y-54115134D01*
X116489431Y-54098393D01*
X116523409Y-54088085D01*
X116564890Y-54084000D01*
X117166110Y-54084000D01*
X117207591Y-54088085D01*
X117207591Y-54088085D01*
G37*
G36*
X115632591Y-54088085D02*
G01*
X115666569Y-54098393D01*
X115697890Y-54115134D01*
X115725339Y-54137661D01*
X115747866Y-54165110D01*
X115764607Y-54196431D01*
X115774915Y-54230409D01*
X115779000Y-54271890D01*
X115779000Y-54948110D01*
X115774915Y-54989591D01*
X115764607Y-55023569D01*
X115747866Y-55054890D01*
X115725339Y-55082339D01*
X115697890Y-55104866D01*
X115666569Y-55121607D01*
X115632591Y-55131915D01*
X115591110Y-55136000D01*
X114989890Y-55136000D01*
X114948409Y-55131915D01*
X114914431Y-55121607D01*
X114883110Y-55104866D01*
X114855661Y-55082339D01*
X114833134Y-55054890D01*
X114816393Y-55023569D01*
X114806085Y-54989591D01*
X114802000Y-54948110D01*
X114802000Y-54271890D01*
X114806085Y-54230409D01*
X114816393Y-54196431D01*
X114833134Y-54165110D01*
X114855661Y-54137661D01*
X114883110Y-54115134D01*
X114914431Y-54098393D01*
X114948409Y-54088085D01*
X114989890Y-54084000D01*
X115591110Y-54084000D01*
X115632591Y-54088085D01*
X115632591Y-54088085D01*
G37*
G36*
X124568559Y-53063360D02*
G01*
X124705232Y-53119972D01*
X124828235Y-53202160D01*
X124932840Y-53306765D01*
X125015028Y-53429768D01*
X125015029Y-53429770D01*
X125071640Y-53566441D01*
X125100500Y-53711532D01*
X125100500Y-53859468D01*
X125071640Y-54004559D01*
X125036791Y-54088693D01*
X125015028Y-54141232D01*
X124932840Y-54264235D01*
X124828235Y-54368840D01*
X124705232Y-54451028D01*
X124705231Y-54451029D01*
X124705230Y-54451029D01*
X124568559Y-54507640D01*
X124423468Y-54536500D01*
X124275532Y-54536500D01*
X124130441Y-54507640D01*
X123993770Y-54451029D01*
X123993769Y-54451029D01*
X123993768Y-54451028D01*
X123870765Y-54368840D01*
X123766160Y-54264235D01*
X123683972Y-54141232D01*
X123662210Y-54088693D01*
X123627360Y-54004559D01*
X123598500Y-53859468D01*
X123598500Y-53711532D01*
X123627360Y-53566441D01*
X123683971Y-53429770D01*
X123683972Y-53429768D01*
X123766160Y-53306765D01*
X123870765Y-53202160D01*
X123993768Y-53119972D01*
X124130441Y-53063360D01*
X124275532Y-53034500D01*
X124423468Y-53034500D01*
X124568559Y-53063360D01*
X124568559Y-53063360D01*
G37*
G36*
X86341015Y-49545773D02*
G01*
X86444879Y-49577279D01*
X86472055Y-49591805D01*
X86540600Y-49628443D01*
X86624501Y-49697299D01*
X86693357Y-49781200D01*
X86712262Y-49816569D01*
X86744521Y-49876921D01*
X86776027Y-49980785D01*
X86786666Y-50088800D01*
X86776027Y-50196815D01*
X86744521Y-50300679D01*
X86744099Y-50301468D01*
X86693357Y-50396400D01*
X86624501Y-50480301D01*
X86540600Y-50549157D01*
X86476853Y-50583230D01*
X86444879Y-50600321D01*
X86432131Y-50604188D01*
X86409504Y-50613560D01*
X86389130Y-50627174D01*
X86371803Y-50644501D01*
X86358189Y-50664875D01*
X86348812Y-50687514D01*
X86344031Y-50711547D01*
X86344031Y-50736051D01*
X86348811Y-50760085D01*
X86358188Y-50782724D01*
X86371802Y-50803098D01*
X86389129Y-50820425D01*
X86409503Y-50834039D01*
X86432131Y-50843412D01*
X86444879Y-50847279D01*
X86472055Y-50861805D01*
X86540600Y-50898443D01*
X86624501Y-50967299D01*
X86693357Y-51051200D01*
X86729995Y-51119745D01*
X86744521Y-51146921D01*
X86776027Y-51250785D01*
X86786666Y-51358800D01*
X86776027Y-51466815D01*
X86744521Y-51570679D01*
X86744519Y-51570682D01*
X86693357Y-51666400D01*
X86650744Y-51718324D01*
X86624501Y-51750301D01*
X86540600Y-51819156D01*
X86496807Y-51842564D01*
X86476437Y-51856175D01*
X86459110Y-51873502D01*
X86445496Y-51893876D01*
X86436119Y-51916515D01*
X86431338Y-51940548D01*
X86431338Y-51965052D01*
X86436118Y-51989086D01*
X86445495Y-52011724D01*
X86459109Y-52032099D01*
X86476436Y-52049426D01*
X86496810Y-52063040D01*
X86519449Y-52072417D01*
X86543482Y-52077198D01*
X86555735Y-52077800D01*
X86784000Y-52077800D01*
X86784000Y-53179800D01*
X85682000Y-53179800D01*
X85682000Y-52077800D01*
X85910265Y-52077800D01*
X85934651Y-52075398D01*
X85958100Y-52068285D01*
X85979711Y-52056734D01*
X85998653Y-52041189D01*
X86014198Y-52022247D01*
X86025749Y-52000636D01*
X86032862Y-51977187D01*
X86035264Y-51952801D01*
X86032862Y-51928415D01*
X86025749Y-51904966D01*
X86014198Y-51883355D01*
X85998653Y-51864413D01*
X85979711Y-51848868D01*
X85969198Y-51842567D01*
X85925400Y-51819156D01*
X85841499Y-51750301D01*
X85815256Y-51718324D01*
X85772643Y-51666400D01*
X85721481Y-51570682D01*
X85721479Y-51570679D01*
X85689973Y-51466815D01*
X85679334Y-51358800D01*
X85689973Y-51250785D01*
X85721479Y-51146921D01*
X85736005Y-51119745D01*
X85772643Y-51051200D01*
X85841499Y-50967299D01*
X85925400Y-50898443D01*
X85993945Y-50861805D01*
X86021121Y-50847279D01*
X86033869Y-50843412D01*
X86056496Y-50834040D01*
X86076870Y-50820426D01*
X86094197Y-50803099D01*
X86107811Y-50782725D01*
X86117188Y-50760086D01*
X86121969Y-50736053D01*
X86121969Y-50711549D01*
X86117189Y-50687515D01*
X86107812Y-50664876D01*
X86094198Y-50644502D01*
X86076871Y-50627175D01*
X86056497Y-50613561D01*
X86033869Y-50604188D01*
X86021121Y-50600321D01*
X85989147Y-50583230D01*
X85925400Y-50549157D01*
X85841499Y-50480301D01*
X85772643Y-50396400D01*
X85721901Y-50301468D01*
X85721479Y-50300679D01*
X85689973Y-50196815D01*
X85679334Y-50088800D01*
X85689973Y-49980785D01*
X85721479Y-49876921D01*
X85753738Y-49816569D01*
X85772643Y-49781200D01*
X85841499Y-49697299D01*
X85925400Y-49628443D01*
X85993945Y-49591805D01*
X86021121Y-49577279D01*
X86124985Y-49545773D01*
X86205933Y-49537800D01*
X86260067Y-49537800D01*
X86341015Y-49545773D01*
X86341015Y-49545773D01*
G37*
G36*
X94961000Y-52161000D02*
G01*
X92459000Y-52161000D01*
X92459000Y-50059000D01*
X94961000Y-50059000D01*
X94961000Y-52161000D01*
X94961000Y-52161000D01*
G37*
G36*
X117207591Y-50913085D02*
G01*
X117241569Y-50923393D01*
X117272890Y-50940134D01*
X117300339Y-50962661D01*
X117322866Y-50990110D01*
X117339607Y-51021431D01*
X117349915Y-51055409D01*
X117354000Y-51096890D01*
X117354000Y-51773110D01*
X117349915Y-51814591D01*
X117339607Y-51848569D01*
X117322866Y-51879890D01*
X117300339Y-51907339D01*
X117272890Y-51929866D01*
X117241569Y-51946607D01*
X117207591Y-51956915D01*
X117166110Y-51961000D01*
X116564890Y-51961000D01*
X116523409Y-51956915D01*
X116489431Y-51946607D01*
X116458110Y-51929866D01*
X116430661Y-51907339D01*
X116408134Y-51879890D01*
X116391393Y-51848569D01*
X116381085Y-51814591D01*
X116377000Y-51773110D01*
X116377000Y-51096890D01*
X116381085Y-51055409D01*
X116391393Y-51021431D01*
X116408134Y-50990110D01*
X116430661Y-50962661D01*
X116458110Y-50940134D01*
X116489431Y-50923393D01*
X116523409Y-50913085D01*
X116564890Y-50909000D01*
X117166110Y-50909000D01*
X117207591Y-50913085D01*
X117207591Y-50913085D01*
G37*
G36*
X115632591Y-50913085D02*
G01*
X115666569Y-50923393D01*
X115697890Y-50940134D01*
X115725339Y-50962661D01*
X115747866Y-50990110D01*
X115764607Y-51021431D01*
X115774915Y-51055409D01*
X115779000Y-51096890D01*
X115779000Y-51773110D01*
X115774915Y-51814591D01*
X115764607Y-51848569D01*
X115747866Y-51879890D01*
X115725339Y-51907339D01*
X115697890Y-51929866D01*
X115666569Y-51946607D01*
X115632591Y-51956915D01*
X115591110Y-51961000D01*
X114989890Y-51961000D01*
X114948409Y-51956915D01*
X114914431Y-51946607D01*
X114883110Y-51929866D01*
X114855661Y-51907339D01*
X114833134Y-51879890D01*
X114816393Y-51848569D01*
X114806085Y-51814591D01*
X114802000Y-51773110D01*
X114802000Y-51096890D01*
X114806085Y-51055409D01*
X114816393Y-51021431D01*
X114833134Y-50990110D01*
X114855661Y-50962661D01*
X114883110Y-50940134D01*
X114914431Y-50923393D01*
X114948409Y-50913085D01*
X114989890Y-50909000D01*
X115591110Y-50909000D01*
X115632591Y-50913085D01*
X115632591Y-50913085D01*
G37*
G36*
X121967091Y-50913085D02*
G01*
X122001069Y-50923393D01*
X122032390Y-50940134D01*
X122059839Y-50962661D01*
X122082366Y-50990110D01*
X122099107Y-51021431D01*
X122109415Y-51055409D01*
X122113500Y-51096890D01*
X122113500Y-51773110D01*
X122109415Y-51814591D01*
X122099107Y-51848569D01*
X122082366Y-51879890D01*
X122059839Y-51907339D01*
X122032390Y-51929866D01*
X122001069Y-51946607D01*
X121967091Y-51956915D01*
X121925610Y-51961000D01*
X121324390Y-51961000D01*
X121282909Y-51956915D01*
X121248931Y-51946607D01*
X121217610Y-51929866D01*
X121190161Y-51907339D01*
X121167634Y-51879890D01*
X121150893Y-51848569D01*
X121140585Y-51814591D01*
X121136500Y-51773110D01*
X121136500Y-51096890D01*
X121140585Y-51055409D01*
X121150893Y-51021431D01*
X121167634Y-50990110D01*
X121190161Y-50962661D01*
X121217610Y-50940134D01*
X121248931Y-50923393D01*
X121282909Y-50913085D01*
X121324390Y-50909000D01*
X121925610Y-50909000D01*
X121967091Y-50913085D01*
X121967091Y-50913085D01*
G37*
G36*
X120392091Y-50913085D02*
G01*
X120426069Y-50923393D01*
X120457390Y-50940134D01*
X120484839Y-50962661D01*
X120507366Y-50990110D01*
X120524107Y-51021431D01*
X120534415Y-51055409D01*
X120538500Y-51096890D01*
X120538500Y-51773110D01*
X120534415Y-51814591D01*
X120524107Y-51848569D01*
X120507366Y-51879890D01*
X120484839Y-51907339D01*
X120457390Y-51929866D01*
X120426069Y-51946607D01*
X120392091Y-51956915D01*
X120350610Y-51961000D01*
X119749390Y-51961000D01*
X119707909Y-51956915D01*
X119673931Y-51946607D01*
X119642610Y-51929866D01*
X119615161Y-51907339D01*
X119592634Y-51879890D01*
X119575893Y-51848569D01*
X119565585Y-51814591D01*
X119561500Y-51773110D01*
X119561500Y-51096890D01*
X119565585Y-51055409D01*
X119575893Y-51021431D01*
X119592634Y-50990110D01*
X119615161Y-50962661D01*
X119642610Y-50940134D01*
X119673931Y-50923393D01*
X119707909Y-50913085D01*
X119749390Y-50909000D01*
X120350610Y-50909000D01*
X120392091Y-50913085D01*
X120392091Y-50913085D01*
G37*
G36*
X112381591Y-50913085D02*
G01*
X112415569Y-50923393D01*
X112446890Y-50940134D01*
X112474339Y-50962661D01*
X112496866Y-50990110D01*
X112513607Y-51021431D01*
X112523915Y-51055409D01*
X112528000Y-51096890D01*
X112528000Y-51773110D01*
X112523915Y-51814591D01*
X112513607Y-51848569D01*
X112496866Y-51879890D01*
X112474339Y-51907339D01*
X112446890Y-51929866D01*
X112415569Y-51946607D01*
X112381591Y-51956915D01*
X112340110Y-51961000D01*
X111738890Y-51961000D01*
X111697409Y-51956915D01*
X111663431Y-51946607D01*
X111632110Y-51929866D01*
X111604661Y-51907339D01*
X111582134Y-51879890D01*
X111565393Y-51848569D01*
X111555085Y-51814591D01*
X111551000Y-51773110D01*
X111551000Y-51096890D01*
X111555085Y-51055409D01*
X111565393Y-51021431D01*
X111582134Y-50990110D01*
X111604661Y-50962661D01*
X111632110Y-50940134D01*
X111663431Y-50923393D01*
X111697409Y-50913085D01*
X111738890Y-50909000D01*
X112340110Y-50909000D01*
X112381591Y-50913085D01*
X112381591Y-50913085D01*
G37*
G36*
X110806591Y-50913085D02*
G01*
X110840569Y-50923393D01*
X110871890Y-50940134D01*
X110899339Y-50962661D01*
X110921866Y-50990110D01*
X110938607Y-51021431D01*
X110948915Y-51055409D01*
X110953000Y-51096890D01*
X110953000Y-51773110D01*
X110948915Y-51814591D01*
X110938607Y-51848569D01*
X110921866Y-51879890D01*
X110899339Y-51907339D01*
X110871890Y-51929866D01*
X110840569Y-51946607D01*
X110806591Y-51956915D01*
X110765110Y-51961000D01*
X110163890Y-51961000D01*
X110122409Y-51956915D01*
X110088431Y-51946607D01*
X110057110Y-51929866D01*
X110029661Y-51907339D01*
X110007134Y-51879890D01*
X109990393Y-51848569D01*
X109980085Y-51814591D01*
X109976000Y-51773110D01*
X109976000Y-51096890D01*
X109980085Y-51055409D01*
X109990393Y-51021431D01*
X110007134Y-50990110D01*
X110029661Y-50962661D01*
X110057110Y-50940134D01*
X110088431Y-50923393D01*
X110122409Y-50913085D01*
X110163890Y-50909000D01*
X110765110Y-50909000D01*
X110806591Y-50913085D01*
X110806591Y-50913085D01*
G37*
G36*
X124568559Y-49505360D02*
G01*
X124666125Y-49545773D01*
X124705232Y-49561972D01*
X124828235Y-49644160D01*
X124932840Y-49748765D01*
X124978145Y-49816569D01*
X125015029Y-49871770D01*
X125071640Y-50008441D01*
X125100500Y-50153532D01*
X125100500Y-50301468D01*
X125071640Y-50446559D01*
X125029143Y-50549157D01*
X125015028Y-50583232D01*
X124932840Y-50706235D01*
X124828235Y-50810840D01*
X124705232Y-50893028D01*
X124705231Y-50893029D01*
X124705230Y-50893029D01*
X124568559Y-50949640D01*
X124423468Y-50978500D01*
X124275532Y-50978500D01*
X124130441Y-50949640D01*
X123993770Y-50893029D01*
X123993769Y-50893029D01*
X123993768Y-50893028D01*
X123870765Y-50810840D01*
X123766160Y-50706235D01*
X123683972Y-50583232D01*
X123669858Y-50549157D01*
X123627360Y-50446559D01*
X123598500Y-50301468D01*
X123598500Y-50153532D01*
X123627360Y-50008441D01*
X123683971Y-49871770D01*
X123720855Y-49816569D01*
X123766160Y-49748765D01*
X123870765Y-49644160D01*
X123993768Y-49561972D01*
X124032876Y-49545773D01*
X124130441Y-49505360D01*
X124275532Y-49476500D01*
X124423468Y-49476500D01*
X124568559Y-49505360D01*
X124568559Y-49505360D01*
G37*
G36*
X98640091Y-48881085D02*
G01*
X98674069Y-48891393D01*
X98705390Y-48908134D01*
X98732839Y-48930661D01*
X98755366Y-48958110D01*
X98772107Y-48989431D01*
X98782415Y-49023409D01*
X98786500Y-49064890D01*
X98786500Y-49741110D01*
X98782415Y-49782591D01*
X98772107Y-49816569D01*
X98755366Y-49847890D01*
X98732839Y-49875339D01*
X98705390Y-49897866D01*
X98674069Y-49914607D01*
X98640091Y-49924915D01*
X98598610Y-49929000D01*
X97997390Y-49929000D01*
X97955909Y-49924915D01*
X97921931Y-49914607D01*
X97890610Y-49897866D01*
X97863161Y-49875339D01*
X97840634Y-49847890D01*
X97823893Y-49816569D01*
X97813585Y-49782591D01*
X97809500Y-49741110D01*
X97809500Y-49064890D01*
X97813585Y-49023409D01*
X97823893Y-48989431D01*
X97840634Y-48958110D01*
X97863161Y-48930661D01*
X97890610Y-48908134D01*
X97921931Y-48891393D01*
X97955909Y-48881085D01*
X97997390Y-48877000D01*
X98598610Y-48877000D01*
X98640091Y-48881085D01*
X98640091Y-48881085D01*
G37*
G36*
X97065091Y-48881085D02*
G01*
X97099069Y-48891393D01*
X97130390Y-48908134D01*
X97157839Y-48930661D01*
X97180366Y-48958110D01*
X97197107Y-48989431D01*
X97207415Y-49023409D01*
X97211500Y-49064890D01*
X97211500Y-49741110D01*
X97207415Y-49782591D01*
X97197107Y-49816569D01*
X97180366Y-49847890D01*
X97157839Y-49875339D01*
X97130390Y-49897866D01*
X97099069Y-49914607D01*
X97065091Y-49924915D01*
X97023610Y-49929000D01*
X96422390Y-49929000D01*
X96380909Y-49924915D01*
X96346931Y-49914607D01*
X96315610Y-49897866D01*
X96288161Y-49875339D01*
X96265634Y-49847890D01*
X96248893Y-49816569D01*
X96238585Y-49782591D01*
X96234500Y-49741110D01*
X96234500Y-49064890D01*
X96238585Y-49023409D01*
X96248893Y-48989431D01*
X96265634Y-48958110D01*
X96288161Y-48930661D01*
X96315610Y-48908134D01*
X96346931Y-48891393D01*
X96380909Y-48881085D01*
X96422390Y-48877000D01*
X97023610Y-48877000D01*
X97065091Y-48881085D01*
X97065091Y-48881085D01*
G37*
G36*
X129874831Y-45495711D02*
G01*
X130202592Y-45631474D01*
X130497570Y-45828572D01*
X130748428Y-46079430D01*
X130945526Y-46374408D01*
X131081289Y-46702169D01*
X131150500Y-47050116D01*
X131150500Y-47404884D01*
X131081289Y-47752831D01*
X130945526Y-48080592D01*
X130748428Y-48375570D01*
X130497570Y-48626428D01*
X130202592Y-48823526D01*
X129874831Y-48959289D01*
X129526884Y-49028500D01*
X129172116Y-49028500D01*
X128824169Y-48959289D01*
X128496408Y-48823526D01*
X128201430Y-48626428D01*
X127950572Y-48375570D01*
X127753474Y-48080592D01*
X127617711Y-47752831D01*
X127548500Y-47404884D01*
X127548500Y-47050116D01*
X127617711Y-46702169D01*
X127753474Y-46374408D01*
X127950572Y-46079430D01*
X128201430Y-45828572D01*
X128496408Y-45631474D01*
X128824169Y-45495711D01*
X129172116Y-45426500D01*
X129526884Y-45426500D01*
X129874831Y-45495711D01*
X129874831Y-45495711D01*
G37*
G36*
X112381591Y-47738085D02*
G01*
X112415569Y-47748393D01*
X112446890Y-47765134D01*
X112474339Y-47787661D01*
X112496866Y-47815110D01*
X112513607Y-47846431D01*
X112523915Y-47880409D01*
X112528000Y-47921890D01*
X112528000Y-48598110D01*
X112523915Y-48639591D01*
X112513607Y-48673569D01*
X112496866Y-48704890D01*
X112474339Y-48732339D01*
X112446890Y-48754866D01*
X112415569Y-48771607D01*
X112381591Y-48781915D01*
X112340110Y-48786000D01*
X111738890Y-48786000D01*
X111697409Y-48781915D01*
X111663431Y-48771607D01*
X111632110Y-48754866D01*
X111604661Y-48732339D01*
X111582134Y-48704890D01*
X111565393Y-48673569D01*
X111555085Y-48639591D01*
X111551000Y-48598110D01*
X111551000Y-47921890D01*
X111555085Y-47880409D01*
X111565393Y-47846431D01*
X111582134Y-47815110D01*
X111604661Y-47787661D01*
X111632110Y-47765134D01*
X111663431Y-47748393D01*
X111697409Y-47738085D01*
X111738890Y-47734000D01*
X112340110Y-47734000D01*
X112381591Y-47738085D01*
X112381591Y-47738085D01*
G37*
G36*
X121814591Y-47738085D02*
G01*
X121848569Y-47748393D01*
X121879890Y-47765134D01*
X121907339Y-47787661D01*
X121929866Y-47815110D01*
X121946607Y-47846431D01*
X121956915Y-47880409D01*
X121961000Y-47921890D01*
X121961000Y-48598110D01*
X121956915Y-48639591D01*
X121946607Y-48673569D01*
X121929866Y-48704890D01*
X121907339Y-48732339D01*
X121879890Y-48754866D01*
X121848569Y-48771607D01*
X121814591Y-48781915D01*
X121773110Y-48786000D01*
X121171890Y-48786000D01*
X121130409Y-48781915D01*
X121096431Y-48771607D01*
X121065110Y-48754866D01*
X121037661Y-48732339D01*
X121015134Y-48704890D01*
X120998393Y-48673569D01*
X120988085Y-48639591D01*
X120984000Y-48598110D01*
X120984000Y-47921890D01*
X120988085Y-47880409D01*
X120998393Y-47846431D01*
X121015134Y-47815110D01*
X121037661Y-47787661D01*
X121065110Y-47765134D01*
X121096431Y-47748393D01*
X121130409Y-47738085D01*
X121171890Y-47734000D01*
X121773110Y-47734000D01*
X121814591Y-47738085D01*
X121814591Y-47738085D01*
G37*
G36*
X120239591Y-47738085D02*
G01*
X120273569Y-47748393D01*
X120304890Y-47765134D01*
X120332339Y-47787661D01*
X120354866Y-47815110D01*
X120371607Y-47846431D01*
X120381915Y-47880409D01*
X120386000Y-47921890D01*
X120386000Y-48598110D01*
X120381915Y-48639591D01*
X120371607Y-48673569D01*
X120354866Y-48704890D01*
X120332339Y-48732339D01*
X120304890Y-48754866D01*
X120273569Y-48771607D01*
X120239591Y-48781915D01*
X120198110Y-48786000D01*
X119596890Y-48786000D01*
X119555409Y-48781915D01*
X119521431Y-48771607D01*
X119490110Y-48754866D01*
X119462661Y-48732339D01*
X119440134Y-48704890D01*
X119423393Y-48673569D01*
X119413085Y-48639591D01*
X119409000Y-48598110D01*
X119409000Y-47921890D01*
X119413085Y-47880409D01*
X119423393Y-47846431D01*
X119440134Y-47815110D01*
X119462661Y-47787661D01*
X119490110Y-47765134D01*
X119521431Y-47748393D01*
X119555409Y-47738085D01*
X119596890Y-47734000D01*
X120198110Y-47734000D01*
X120239591Y-47738085D01*
X120239591Y-47738085D01*
G37*
G36*
X94807091Y-47738085D02*
G01*
X94841069Y-47748393D01*
X94872390Y-47765134D01*
X94899839Y-47787661D01*
X94922366Y-47815110D01*
X94939107Y-47846431D01*
X94949415Y-47880409D01*
X94953500Y-47921890D01*
X94953500Y-48598110D01*
X94949415Y-48639591D01*
X94939107Y-48673569D01*
X94922366Y-48704890D01*
X94899839Y-48732339D01*
X94872390Y-48754866D01*
X94841069Y-48771607D01*
X94807091Y-48781915D01*
X94765610Y-48786000D01*
X94164390Y-48786000D01*
X94122909Y-48781915D01*
X94088931Y-48771607D01*
X94057610Y-48754866D01*
X94030161Y-48732339D01*
X94007634Y-48704890D01*
X93990893Y-48673569D01*
X93980585Y-48639591D01*
X93976500Y-48598110D01*
X93976500Y-47921890D01*
X93980585Y-47880409D01*
X93990893Y-47846431D01*
X94007634Y-47815110D01*
X94030161Y-47787661D01*
X94057610Y-47765134D01*
X94088931Y-47748393D01*
X94122909Y-47738085D01*
X94164390Y-47734000D01*
X94765610Y-47734000D01*
X94807091Y-47738085D01*
X94807091Y-47738085D01*
G37*
G36*
X93232091Y-47738085D02*
G01*
X93266069Y-47748393D01*
X93297390Y-47765134D01*
X93324839Y-47787661D01*
X93347366Y-47815110D01*
X93364107Y-47846431D01*
X93374415Y-47880409D01*
X93378500Y-47921890D01*
X93378500Y-48598110D01*
X93374415Y-48639591D01*
X93364107Y-48673569D01*
X93347366Y-48704890D01*
X93324839Y-48732339D01*
X93297390Y-48754866D01*
X93266069Y-48771607D01*
X93232091Y-48781915D01*
X93190610Y-48786000D01*
X92589390Y-48786000D01*
X92547909Y-48781915D01*
X92513931Y-48771607D01*
X92482610Y-48754866D01*
X92455161Y-48732339D01*
X92432634Y-48704890D01*
X92415893Y-48673569D01*
X92405585Y-48639591D01*
X92401500Y-48598110D01*
X92401500Y-47921890D01*
X92405585Y-47880409D01*
X92415893Y-47846431D01*
X92432634Y-47815110D01*
X92455161Y-47787661D01*
X92482610Y-47765134D01*
X92513931Y-47748393D01*
X92547909Y-47738085D01*
X92589390Y-47734000D01*
X93190610Y-47734000D01*
X93232091Y-47738085D01*
X93232091Y-47738085D01*
G37*
G36*
X117334591Y-47738085D02*
G01*
X117368569Y-47748393D01*
X117399890Y-47765134D01*
X117427339Y-47787661D01*
X117449866Y-47815110D01*
X117466607Y-47846431D01*
X117476915Y-47880409D01*
X117481000Y-47921890D01*
X117481000Y-48598110D01*
X117476915Y-48639591D01*
X117466607Y-48673569D01*
X117449866Y-48704890D01*
X117427339Y-48732339D01*
X117399890Y-48754866D01*
X117368569Y-48771607D01*
X117334591Y-48781915D01*
X117293110Y-48786000D01*
X116691890Y-48786000D01*
X116650409Y-48781915D01*
X116616431Y-48771607D01*
X116585110Y-48754866D01*
X116557661Y-48732339D01*
X116535134Y-48704890D01*
X116518393Y-48673569D01*
X116508085Y-48639591D01*
X116504000Y-48598110D01*
X116504000Y-47921890D01*
X116508085Y-47880409D01*
X116518393Y-47846431D01*
X116535134Y-47815110D01*
X116557661Y-47787661D01*
X116585110Y-47765134D01*
X116616431Y-47748393D01*
X116650409Y-47738085D01*
X116691890Y-47734000D01*
X117293110Y-47734000D01*
X117334591Y-47738085D01*
X117334591Y-47738085D01*
G37*
G36*
X115759591Y-47738085D02*
G01*
X115793569Y-47748393D01*
X115824890Y-47765134D01*
X115852339Y-47787661D01*
X115874866Y-47815110D01*
X115891607Y-47846431D01*
X115901915Y-47880409D01*
X115906000Y-47921890D01*
X115906000Y-48598110D01*
X115901915Y-48639591D01*
X115891607Y-48673569D01*
X115874866Y-48704890D01*
X115852339Y-48732339D01*
X115824890Y-48754866D01*
X115793569Y-48771607D01*
X115759591Y-48781915D01*
X115718110Y-48786000D01*
X115116890Y-48786000D01*
X115075409Y-48781915D01*
X115041431Y-48771607D01*
X115010110Y-48754866D01*
X114982661Y-48732339D01*
X114960134Y-48704890D01*
X114943393Y-48673569D01*
X114933085Y-48639591D01*
X114929000Y-48598110D01*
X114929000Y-47921890D01*
X114933085Y-47880409D01*
X114943393Y-47846431D01*
X114960134Y-47815110D01*
X114982661Y-47787661D01*
X115010110Y-47765134D01*
X115041431Y-47748393D01*
X115075409Y-47738085D01*
X115116890Y-47734000D01*
X115718110Y-47734000D01*
X115759591Y-47738085D01*
X115759591Y-47738085D01*
G37*
G36*
X110806591Y-47738085D02*
G01*
X110840569Y-47748393D01*
X110871890Y-47765134D01*
X110899339Y-47787661D01*
X110921866Y-47815110D01*
X110938607Y-47846431D01*
X110948915Y-47880409D01*
X110953000Y-47921890D01*
X110953000Y-48598110D01*
X110948915Y-48639591D01*
X110938607Y-48673569D01*
X110921866Y-48704890D01*
X110899339Y-48732339D01*
X110871890Y-48754866D01*
X110840569Y-48771607D01*
X110806591Y-48781915D01*
X110765110Y-48786000D01*
X110163890Y-48786000D01*
X110122409Y-48781915D01*
X110088431Y-48771607D01*
X110057110Y-48754866D01*
X110029661Y-48732339D01*
X110007134Y-48704890D01*
X109990393Y-48673569D01*
X109980085Y-48639591D01*
X109976000Y-48598110D01*
X109976000Y-47921890D01*
X109980085Y-47880409D01*
X109990393Y-47846431D01*
X110007134Y-47815110D01*
X110029661Y-47787661D01*
X110057110Y-47765134D01*
X110088431Y-47748393D01*
X110122409Y-47738085D01*
X110163890Y-47734000D01*
X110765110Y-47734000D01*
X110806591Y-47738085D01*
X110806591Y-47738085D01*
G37*
G36*
X124684591Y-47103085D02*
G01*
X124718569Y-47113393D01*
X124749890Y-47130134D01*
X124777339Y-47152661D01*
X124799866Y-47180110D01*
X124816607Y-47211431D01*
X124826915Y-47245409D01*
X124831000Y-47286890D01*
X124831000Y-47963110D01*
X124826915Y-48004591D01*
X124816607Y-48038569D01*
X124799866Y-48069890D01*
X124777339Y-48097339D01*
X124749890Y-48119866D01*
X124718569Y-48136607D01*
X124684591Y-48146915D01*
X124643110Y-48151000D01*
X124041890Y-48151000D01*
X124000409Y-48146915D01*
X123966431Y-48136607D01*
X123935110Y-48119866D01*
X123907661Y-48097339D01*
X123885134Y-48069890D01*
X123868393Y-48038569D01*
X123858085Y-48004591D01*
X123854000Y-47963110D01*
X123854000Y-47286890D01*
X123858085Y-47245409D01*
X123868393Y-47211431D01*
X123885134Y-47180110D01*
X123907661Y-47152661D01*
X123935110Y-47130134D01*
X123966431Y-47113393D01*
X124000409Y-47103085D01*
X124041890Y-47099000D01*
X124643110Y-47099000D01*
X124684591Y-47103085D01*
X124684591Y-47103085D01*
G37*
G36*
X126259591Y-47103085D02*
G01*
X126293569Y-47113393D01*
X126324890Y-47130134D01*
X126352339Y-47152661D01*
X126374866Y-47180110D01*
X126391607Y-47211431D01*
X126401915Y-47245409D01*
X126406000Y-47286890D01*
X126406000Y-47963110D01*
X126401915Y-48004591D01*
X126391607Y-48038569D01*
X126374866Y-48069890D01*
X126352339Y-48097339D01*
X126324890Y-48119866D01*
X126293569Y-48136607D01*
X126259591Y-48146915D01*
X126218110Y-48151000D01*
X125616890Y-48151000D01*
X125575409Y-48146915D01*
X125541431Y-48136607D01*
X125510110Y-48119866D01*
X125482661Y-48097339D01*
X125460134Y-48069890D01*
X125443393Y-48038569D01*
X125433085Y-48004591D01*
X125429000Y-47963110D01*
X125429000Y-47286890D01*
X125433085Y-47245409D01*
X125443393Y-47211431D01*
X125460134Y-47180110D01*
X125482661Y-47152661D01*
X125510110Y-47130134D01*
X125541431Y-47113393D01*
X125575409Y-47103085D01*
X125616890Y-47099000D01*
X126218110Y-47099000D01*
X126259591Y-47103085D01*
X126259591Y-47103085D01*
G37*
G36*
X88454591Y-47103085D02*
G01*
X88488569Y-47113393D01*
X88519890Y-47130134D01*
X88547339Y-47152661D01*
X88569866Y-47180110D01*
X88586607Y-47211431D01*
X88596915Y-47245409D01*
X88601000Y-47286890D01*
X88601000Y-47963110D01*
X88596915Y-48004591D01*
X88586607Y-48038569D01*
X88569866Y-48069890D01*
X88547339Y-48097339D01*
X88519890Y-48119866D01*
X88488569Y-48136607D01*
X88454591Y-48146915D01*
X88413110Y-48151000D01*
X87811890Y-48151000D01*
X87770409Y-48146915D01*
X87736431Y-48136607D01*
X87705110Y-48119866D01*
X87677661Y-48097339D01*
X87655134Y-48069890D01*
X87638393Y-48038569D01*
X87628085Y-48004591D01*
X87624000Y-47963110D01*
X87624000Y-47286890D01*
X87628085Y-47245409D01*
X87638393Y-47211431D01*
X87655134Y-47180110D01*
X87677661Y-47152661D01*
X87705110Y-47130134D01*
X87736431Y-47113393D01*
X87770409Y-47103085D01*
X87811890Y-47099000D01*
X88413110Y-47099000D01*
X88454591Y-47103085D01*
X88454591Y-47103085D01*
G37*
G36*
X90029591Y-47103085D02*
G01*
X90063569Y-47113393D01*
X90094890Y-47130134D01*
X90122339Y-47152661D01*
X90144866Y-47180110D01*
X90161607Y-47211431D01*
X90171915Y-47245409D01*
X90176000Y-47286890D01*
X90176000Y-47963110D01*
X90171915Y-48004591D01*
X90161607Y-48038569D01*
X90144866Y-48069890D01*
X90122339Y-48097339D01*
X90094890Y-48119866D01*
X90063569Y-48136607D01*
X90029591Y-48146915D01*
X89988110Y-48151000D01*
X89386890Y-48151000D01*
X89345409Y-48146915D01*
X89311431Y-48136607D01*
X89280110Y-48119866D01*
X89252661Y-48097339D01*
X89230134Y-48069890D01*
X89213393Y-48038569D01*
X89203085Y-48004591D01*
X89199000Y-47963110D01*
X89199000Y-47286890D01*
X89203085Y-47245409D01*
X89213393Y-47211431D01*
X89230134Y-47180110D01*
X89252661Y-47152661D01*
X89280110Y-47130134D01*
X89311431Y-47113393D01*
X89345409Y-47103085D01*
X89386890Y-47099000D01*
X89988110Y-47099000D01*
X90029591Y-47103085D01*
X90029591Y-47103085D01*
G37*
G36*
X97263015Y-44795973D02*
G01*
X97366879Y-44827479D01*
X97370830Y-44829591D01*
X97462600Y-44878643D01*
X97546501Y-44947499D01*
X97615357Y-45031400D01*
X97651995Y-45099945D01*
X97666521Y-45127121D01*
X97670388Y-45139869D01*
X97679760Y-45162496D01*
X97693374Y-45182870D01*
X97710701Y-45200197D01*
X97731075Y-45213811D01*
X97753714Y-45223188D01*
X97777747Y-45227969D01*
X97802251Y-45227969D01*
X97826285Y-45223189D01*
X97848924Y-45213812D01*
X97869298Y-45200198D01*
X97886625Y-45182871D01*
X97900239Y-45162497D01*
X97909612Y-45139869D01*
X97913479Y-45127121D01*
X97928005Y-45099945D01*
X97964643Y-45031400D01*
X98033499Y-44947499D01*
X98117400Y-44878643D01*
X98209170Y-44829591D01*
X98213121Y-44827479D01*
X98316985Y-44795973D01*
X98397933Y-44788000D01*
X98452067Y-44788000D01*
X98533015Y-44795973D01*
X98636879Y-44827479D01*
X98640830Y-44829591D01*
X98732600Y-44878643D01*
X98816501Y-44947499D01*
X98885357Y-45031400D01*
X98921995Y-45099945D01*
X98936521Y-45127121D01*
X98940388Y-45139869D01*
X98949760Y-45162496D01*
X98963374Y-45182870D01*
X98980701Y-45200197D01*
X99001075Y-45213811D01*
X99023714Y-45223188D01*
X99047747Y-45227969D01*
X99072251Y-45227969D01*
X99096285Y-45223189D01*
X99118924Y-45213812D01*
X99139298Y-45200198D01*
X99156625Y-45182871D01*
X99170239Y-45162497D01*
X99179612Y-45139869D01*
X99183479Y-45127121D01*
X99198005Y-45099945D01*
X99234643Y-45031400D01*
X99303499Y-44947499D01*
X99387400Y-44878643D01*
X99479170Y-44829591D01*
X99483121Y-44827479D01*
X99586985Y-44795973D01*
X99667933Y-44788000D01*
X99722067Y-44788000D01*
X99803015Y-44795973D01*
X99906879Y-44827479D01*
X99910830Y-44829591D01*
X100002600Y-44878643D01*
X100086501Y-44947499D01*
X100155357Y-45031400D01*
X100191995Y-45099945D01*
X100206521Y-45127121D01*
X100238027Y-45230985D01*
X100248666Y-45339000D01*
X100238027Y-45447015D01*
X100206521Y-45550879D01*
X100206519Y-45550882D01*
X100155357Y-45646600D01*
X100086501Y-45730501D01*
X100002600Y-45799357D01*
X99947942Y-45828572D01*
X99906879Y-45850521D01*
X99894131Y-45854388D01*
X99871504Y-45863760D01*
X99851130Y-45877374D01*
X99833803Y-45894701D01*
X99820189Y-45915075D01*
X99810812Y-45937714D01*
X99806031Y-45961747D01*
X99806031Y-45986251D01*
X99810811Y-46010285D01*
X99820188Y-46032924D01*
X99833802Y-46053298D01*
X99851129Y-46070625D01*
X99871503Y-46084239D01*
X99894131Y-46093612D01*
X99906879Y-46097479D01*
X99934055Y-46112005D01*
X100002600Y-46148643D01*
X100086501Y-46217499D01*
X100155357Y-46301400D01*
X100191995Y-46369945D01*
X100206521Y-46397121D01*
X100238027Y-46500985D01*
X100248666Y-46609000D01*
X100238027Y-46717015D01*
X100206521Y-46820879D01*
X100206191Y-46821496D01*
X100155357Y-46916600D01*
X100086501Y-47000501D01*
X100002600Y-47069357D01*
X99947141Y-47099000D01*
X99906879Y-47120521D01*
X99803015Y-47152027D01*
X99722067Y-47160000D01*
X99667933Y-47160000D01*
X99586985Y-47152027D01*
X99483121Y-47120521D01*
X99442859Y-47099000D01*
X99387400Y-47069357D01*
X99303499Y-47000501D01*
X99234643Y-46916600D01*
X99183809Y-46821496D01*
X99183479Y-46820879D01*
X99179612Y-46808131D01*
X99170240Y-46785504D01*
X99156626Y-46765130D01*
X99139299Y-46747803D01*
X99118925Y-46734189D01*
X99096286Y-46724812D01*
X99072253Y-46720031D01*
X99047749Y-46720031D01*
X99023715Y-46724811D01*
X99001076Y-46734188D01*
X98980702Y-46747802D01*
X98963375Y-46765129D01*
X98949761Y-46785503D01*
X98940388Y-46808131D01*
X98936521Y-46820879D01*
X98936191Y-46821496D01*
X98885357Y-46916600D01*
X98816501Y-47000501D01*
X98732600Y-47069357D01*
X98677141Y-47099000D01*
X98636879Y-47120521D01*
X98533015Y-47152027D01*
X98452067Y-47160000D01*
X98397933Y-47160000D01*
X98316985Y-47152027D01*
X98213121Y-47120521D01*
X98172859Y-47099000D01*
X98117400Y-47069357D01*
X98033499Y-47000501D01*
X97964645Y-46916601D01*
X97964644Y-46916600D01*
X97941236Y-46872807D01*
X97927625Y-46852437D01*
X97910298Y-46835110D01*
X97889924Y-46821496D01*
X97867285Y-46812119D01*
X97843252Y-46807338D01*
X97818748Y-46807338D01*
X97794714Y-46812118D01*
X97772076Y-46821495D01*
X97751701Y-46835109D01*
X97734374Y-46852436D01*
X97720760Y-46872810D01*
X97711383Y-46895449D01*
X97706602Y-46919482D01*
X97706000Y-46931735D01*
X97706000Y-47160000D01*
X96604000Y-47160000D01*
X96604000Y-46058000D01*
X96832265Y-46058000D01*
X96856651Y-46055598D01*
X96880100Y-46048485D01*
X96901711Y-46036934D01*
X96920653Y-46021389D01*
X96936198Y-46002447D01*
X96947749Y-45980836D01*
X96954862Y-45957387D01*
X96957264Y-45933001D01*
X96956058Y-45920748D01*
X97353338Y-45920748D01*
X97353338Y-45945252D01*
X97358118Y-45969286D01*
X97367495Y-45991924D01*
X97381109Y-46012299D01*
X97398436Y-46029626D01*
X97418810Y-46043240D01*
X97441449Y-46052617D01*
X97465482Y-46057398D01*
X97477735Y-46058000D01*
X97706000Y-46058000D01*
X97706000Y-46286265D01*
X97708402Y-46310651D01*
X97715515Y-46334100D01*
X97727066Y-46355711D01*
X97742611Y-46374653D01*
X97761553Y-46390198D01*
X97783164Y-46401749D01*
X97806613Y-46408862D01*
X97830999Y-46411264D01*
X97855385Y-46408862D01*
X97878834Y-46401749D01*
X97900445Y-46390198D01*
X97919387Y-46374653D01*
X97934932Y-46355711D01*
X97941233Y-46345198D01*
X97964644Y-46301400D01*
X98033499Y-46217499D01*
X98117400Y-46148643D01*
X98185945Y-46112005D01*
X98213121Y-46097479D01*
X98225869Y-46093612D01*
X98248496Y-46084240D01*
X98268870Y-46070626D01*
X98286197Y-46053299D01*
X98299811Y-46032925D01*
X98309188Y-46010286D01*
X98313969Y-45986253D01*
X98313969Y-45961749D01*
X98313969Y-45961747D01*
X98536031Y-45961747D01*
X98536031Y-45986251D01*
X98540811Y-46010285D01*
X98550188Y-46032924D01*
X98563802Y-46053298D01*
X98581129Y-46070625D01*
X98601503Y-46084239D01*
X98624131Y-46093612D01*
X98636879Y-46097479D01*
X98664055Y-46112005D01*
X98732600Y-46148643D01*
X98816501Y-46217499D01*
X98885357Y-46301400D01*
X98921995Y-46369945D01*
X98936521Y-46397121D01*
X98940388Y-46409869D01*
X98949760Y-46432496D01*
X98963374Y-46452870D01*
X98980701Y-46470197D01*
X99001075Y-46483811D01*
X99023714Y-46493188D01*
X99047747Y-46497969D01*
X99072251Y-46497969D01*
X99096285Y-46493189D01*
X99118924Y-46483812D01*
X99139298Y-46470198D01*
X99156625Y-46452871D01*
X99170239Y-46432497D01*
X99179612Y-46409869D01*
X99183479Y-46397121D01*
X99198005Y-46369945D01*
X99234643Y-46301400D01*
X99303499Y-46217499D01*
X99387400Y-46148643D01*
X99455945Y-46112005D01*
X99483121Y-46097479D01*
X99495869Y-46093612D01*
X99518496Y-46084240D01*
X99538870Y-46070626D01*
X99556197Y-46053299D01*
X99569811Y-46032925D01*
X99579188Y-46010286D01*
X99583969Y-45986253D01*
X99583969Y-45961749D01*
X99579189Y-45937715D01*
X99569812Y-45915076D01*
X99556198Y-45894702D01*
X99538871Y-45877375D01*
X99518497Y-45863761D01*
X99495869Y-45854388D01*
X99483121Y-45850521D01*
X99442058Y-45828572D01*
X99387400Y-45799357D01*
X99303499Y-45730501D01*
X99234643Y-45646600D01*
X99183481Y-45550882D01*
X99183479Y-45550879D01*
X99179612Y-45538131D01*
X99170240Y-45515504D01*
X99156626Y-45495130D01*
X99139299Y-45477803D01*
X99118925Y-45464189D01*
X99096286Y-45454812D01*
X99072253Y-45450031D01*
X99047749Y-45450031D01*
X99023715Y-45454811D01*
X99001076Y-45464188D01*
X98980702Y-45477802D01*
X98963375Y-45495129D01*
X98949761Y-45515503D01*
X98940388Y-45538131D01*
X98936521Y-45550879D01*
X98936519Y-45550882D01*
X98885357Y-45646600D01*
X98816501Y-45730501D01*
X98732600Y-45799357D01*
X98677942Y-45828572D01*
X98636879Y-45850521D01*
X98624131Y-45854388D01*
X98601504Y-45863760D01*
X98581130Y-45877374D01*
X98563803Y-45894701D01*
X98550189Y-45915075D01*
X98540812Y-45937714D01*
X98536031Y-45961747D01*
X98313969Y-45961747D01*
X98309189Y-45937715D01*
X98299812Y-45915076D01*
X98286198Y-45894702D01*
X98268871Y-45877375D01*
X98248497Y-45863761D01*
X98225869Y-45854388D01*
X98213121Y-45850521D01*
X98172058Y-45828572D01*
X98117400Y-45799357D01*
X98033499Y-45730501D01*
X97964643Y-45646600D01*
X97913481Y-45550882D01*
X97913479Y-45550879D01*
X97909612Y-45538131D01*
X97900240Y-45515504D01*
X97886626Y-45495130D01*
X97869299Y-45477803D01*
X97848925Y-45464189D01*
X97826286Y-45454812D01*
X97802253Y-45450031D01*
X97777749Y-45450031D01*
X97753715Y-45454811D01*
X97731076Y-45464188D01*
X97710702Y-45477802D01*
X97693375Y-45495129D01*
X97679761Y-45515503D01*
X97670388Y-45538131D01*
X97666521Y-45550879D01*
X97666519Y-45550882D01*
X97615357Y-45646600D01*
X97546501Y-45730501D01*
X97462600Y-45799356D01*
X97418807Y-45822764D01*
X97398437Y-45836375D01*
X97381110Y-45853702D01*
X97367496Y-45874076D01*
X97358119Y-45896715D01*
X97353338Y-45920748D01*
X96956058Y-45920748D01*
X96954862Y-45908615D01*
X96947749Y-45885166D01*
X96936198Y-45863555D01*
X96920653Y-45844613D01*
X96901711Y-45829068D01*
X96891198Y-45822767D01*
X96847400Y-45799356D01*
X96763499Y-45730501D01*
X96694643Y-45646600D01*
X96643481Y-45550882D01*
X96643479Y-45550879D01*
X96611973Y-45447015D01*
X96601334Y-45339000D01*
X96611973Y-45230985D01*
X96643479Y-45127121D01*
X96658005Y-45099945D01*
X96694643Y-45031400D01*
X96763499Y-44947499D01*
X96847400Y-44878643D01*
X96939170Y-44829591D01*
X96943121Y-44827479D01*
X97046985Y-44795973D01*
X97127933Y-44788000D01*
X97182067Y-44788000D01*
X97263015Y-44795973D01*
X97263015Y-44795973D01*
G37*
G36*
X108597091Y-45833085D02*
G01*
X108631069Y-45843393D01*
X108662390Y-45860134D01*
X108689839Y-45882661D01*
X108712366Y-45910110D01*
X108729107Y-45941431D01*
X108739415Y-45975409D01*
X108743500Y-46016890D01*
X108743500Y-46693110D01*
X108739415Y-46734591D01*
X108729107Y-46768569D01*
X108712366Y-46799890D01*
X108689839Y-46827339D01*
X108662390Y-46849866D01*
X108631069Y-46866607D01*
X108597091Y-46876915D01*
X108555610Y-46881000D01*
X107954390Y-46881000D01*
X107912909Y-46876915D01*
X107878931Y-46866607D01*
X107847610Y-46849866D01*
X107820161Y-46827339D01*
X107797634Y-46799890D01*
X107780893Y-46768569D01*
X107770585Y-46734591D01*
X107766500Y-46693110D01*
X107766500Y-46016890D01*
X107770585Y-45975409D01*
X107780893Y-45941431D01*
X107797634Y-45910110D01*
X107820161Y-45882661D01*
X107847610Y-45860134D01*
X107878931Y-45843393D01*
X107912909Y-45833085D01*
X107954390Y-45829000D01*
X108555610Y-45829000D01*
X108597091Y-45833085D01*
X108597091Y-45833085D01*
G37*
G36*
X107022091Y-45833085D02*
G01*
X107056069Y-45843393D01*
X107087390Y-45860134D01*
X107114839Y-45882661D01*
X107137366Y-45910110D01*
X107154107Y-45941431D01*
X107164415Y-45975409D01*
X107168500Y-46016890D01*
X107168500Y-46693110D01*
X107164415Y-46734591D01*
X107154107Y-46768569D01*
X107137366Y-46799890D01*
X107114839Y-46827339D01*
X107087390Y-46849866D01*
X107056069Y-46866607D01*
X107022091Y-46876915D01*
X106980610Y-46881000D01*
X106379390Y-46881000D01*
X106337909Y-46876915D01*
X106303931Y-46866607D01*
X106272610Y-46849866D01*
X106245161Y-46827339D01*
X106222634Y-46799890D01*
X106205893Y-46768569D01*
X106195585Y-46734591D01*
X106191500Y-46693110D01*
X106191500Y-46016890D01*
X106195585Y-45975409D01*
X106205893Y-45941431D01*
X106222634Y-45910110D01*
X106245161Y-45882661D01*
X106272610Y-45860134D01*
X106303931Y-45843393D01*
X106337909Y-45833085D01*
X106379390Y-45829000D01*
X106980610Y-45829000D01*
X107022091Y-45833085D01*
X107022091Y-45833085D01*
G37*
G36*
X94931000Y-46481000D02*
G01*
X93029000Y-46481000D01*
X93029000Y-43879000D01*
X94931000Y-43879000D01*
X94931000Y-46481000D01*
X94931000Y-46481000D01*
G37*
G36*
X88454591Y-44563085D02*
G01*
X88488569Y-44573393D01*
X88519890Y-44590134D01*
X88547339Y-44612661D01*
X88569866Y-44640110D01*
X88586607Y-44671431D01*
X88596915Y-44705409D01*
X88601000Y-44746890D01*
X88601000Y-45423110D01*
X88596915Y-45464591D01*
X88586607Y-45498569D01*
X88569866Y-45529890D01*
X88547339Y-45557339D01*
X88519890Y-45579866D01*
X88488569Y-45596607D01*
X88454591Y-45606915D01*
X88413110Y-45611000D01*
X87811890Y-45611000D01*
X87770409Y-45606915D01*
X87736431Y-45596607D01*
X87705110Y-45579866D01*
X87677661Y-45557339D01*
X87655134Y-45529890D01*
X87638393Y-45498569D01*
X87628085Y-45464591D01*
X87624000Y-45423110D01*
X87624000Y-44746890D01*
X87628085Y-44705409D01*
X87638393Y-44671431D01*
X87655134Y-44640110D01*
X87677661Y-44612661D01*
X87705110Y-44590134D01*
X87736431Y-44573393D01*
X87770409Y-44563085D01*
X87811890Y-44559000D01*
X88413110Y-44559000D01*
X88454591Y-44563085D01*
X88454591Y-44563085D01*
G37*
G36*
X90029591Y-44563085D02*
G01*
X90063569Y-44573393D01*
X90094890Y-44590134D01*
X90122339Y-44612661D01*
X90144866Y-44640110D01*
X90161607Y-44671431D01*
X90171915Y-44705409D01*
X90176000Y-44746890D01*
X90176000Y-45423110D01*
X90171915Y-45464591D01*
X90161607Y-45498569D01*
X90144866Y-45529890D01*
X90122339Y-45557339D01*
X90094890Y-45579866D01*
X90063569Y-45596607D01*
X90029591Y-45606915D01*
X89988110Y-45611000D01*
X89386890Y-45611000D01*
X89345409Y-45606915D01*
X89311431Y-45596607D01*
X89280110Y-45579866D01*
X89252661Y-45557339D01*
X89230134Y-45529890D01*
X89213393Y-45498569D01*
X89203085Y-45464591D01*
X89199000Y-45423110D01*
X89199000Y-44746890D01*
X89203085Y-44705409D01*
X89213393Y-44671431D01*
X89230134Y-44640110D01*
X89252661Y-44612661D01*
X89280110Y-44590134D01*
X89311431Y-44573393D01*
X89345409Y-44563085D01*
X89386890Y-44559000D01*
X89988110Y-44559000D01*
X90029591Y-44563085D01*
X90029591Y-44563085D01*
G37*
G36*
X124684591Y-44309085D02*
G01*
X124718569Y-44319393D01*
X124749890Y-44336134D01*
X124777339Y-44358661D01*
X124799866Y-44386110D01*
X124816607Y-44417431D01*
X124826915Y-44451409D01*
X124831000Y-44492890D01*
X124831000Y-45169110D01*
X124826915Y-45210591D01*
X124816607Y-45244569D01*
X124799866Y-45275890D01*
X124777339Y-45303339D01*
X124749890Y-45325866D01*
X124718569Y-45342607D01*
X124684591Y-45352915D01*
X124643110Y-45357000D01*
X124041890Y-45357000D01*
X124000409Y-45352915D01*
X123966431Y-45342607D01*
X123935110Y-45325866D01*
X123907661Y-45303339D01*
X123885134Y-45275890D01*
X123868393Y-45244569D01*
X123858085Y-45210591D01*
X123854000Y-45169110D01*
X123854000Y-44492890D01*
X123858085Y-44451409D01*
X123868393Y-44417431D01*
X123885134Y-44386110D01*
X123907661Y-44358661D01*
X123935110Y-44336134D01*
X123966431Y-44319393D01*
X124000409Y-44309085D01*
X124041890Y-44305000D01*
X124643110Y-44305000D01*
X124684591Y-44309085D01*
X124684591Y-44309085D01*
G37*
G36*
X126259591Y-44309085D02*
G01*
X126293569Y-44319393D01*
X126324890Y-44336134D01*
X126352339Y-44358661D01*
X126374866Y-44386110D01*
X126391607Y-44417431D01*
X126401915Y-44451409D01*
X126406000Y-44492890D01*
X126406000Y-45169110D01*
X126401915Y-45210591D01*
X126391607Y-45244569D01*
X126374866Y-45275890D01*
X126352339Y-45303339D01*
X126324890Y-45325866D01*
X126293569Y-45342607D01*
X126259591Y-45352915D01*
X126218110Y-45357000D01*
X125616890Y-45357000D01*
X125575409Y-45352915D01*
X125541431Y-45342607D01*
X125510110Y-45325866D01*
X125482661Y-45303339D01*
X125460134Y-45275890D01*
X125443393Y-45244569D01*
X125433085Y-45210591D01*
X125429000Y-45169110D01*
X125429000Y-44492890D01*
X125433085Y-44451409D01*
X125443393Y-44417431D01*
X125460134Y-44386110D01*
X125482661Y-44358661D01*
X125510110Y-44336134D01*
X125541431Y-44319393D01*
X125575409Y-44309085D01*
X125616890Y-44305000D01*
X126218110Y-44305000D01*
X126259591Y-44309085D01*
X126259591Y-44309085D01*
G37*
G36*
X107022091Y-43928085D02*
G01*
X107056069Y-43938393D01*
X107087390Y-43955134D01*
X107114839Y-43977661D01*
X107137366Y-44005110D01*
X107154107Y-44036431D01*
X107164415Y-44070409D01*
X107168500Y-44111890D01*
X107168500Y-44788110D01*
X107164415Y-44829591D01*
X107154107Y-44863569D01*
X107137366Y-44894890D01*
X107114839Y-44922339D01*
X107087390Y-44944866D01*
X107056069Y-44961607D01*
X107022091Y-44971915D01*
X106980610Y-44976000D01*
X106379390Y-44976000D01*
X106337909Y-44971915D01*
X106303931Y-44961607D01*
X106272610Y-44944866D01*
X106245161Y-44922339D01*
X106222634Y-44894890D01*
X106205893Y-44863569D01*
X106195585Y-44829591D01*
X106191500Y-44788110D01*
X106191500Y-44111890D01*
X106195585Y-44070409D01*
X106205893Y-44036431D01*
X106222634Y-44005110D01*
X106245161Y-43977661D01*
X106272610Y-43955134D01*
X106303931Y-43938393D01*
X106337909Y-43928085D01*
X106379390Y-43924000D01*
X106980610Y-43924000D01*
X107022091Y-43928085D01*
X107022091Y-43928085D01*
G37*
G36*
X108597091Y-43928085D02*
G01*
X108631069Y-43938393D01*
X108662390Y-43955134D01*
X108689839Y-43977661D01*
X108712366Y-44005110D01*
X108729107Y-44036431D01*
X108739415Y-44070409D01*
X108743500Y-44111890D01*
X108743500Y-44788110D01*
X108739415Y-44829591D01*
X108729107Y-44863569D01*
X108712366Y-44894890D01*
X108689839Y-44922339D01*
X108662390Y-44944866D01*
X108631069Y-44961607D01*
X108597091Y-44971915D01*
X108555610Y-44976000D01*
X107954390Y-44976000D01*
X107912909Y-44971915D01*
X107878931Y-44961607D01*
X107847610Y-44944866D01*
X107820161Y-44922339D01*
X107797634Y-44894890D01*
X107780893Y-44863569D01*
X107770585Y-44829591D01*
X107766500Y-44788110D01*
X107766500Y-44111890D01*
X107770585Y-44070409D01*
X107780893Y-44036431D01*
X107797634Y-44005110D01*
X107820161Y-43977661D01*
X107847610Y-43955134D01*
X107878931Y-43938393D01*
X107912909Y-43928085D01*
X107954390Y-43924000D01*
X108555610Y-43924000D01*
X108597091Y-43928085D01*
X108597091Y-43928085D01*
G37*
G36*
X131150500Y-44028500D02*
G01*
X127548500Y-44028500D01*
X127548500Y-40426500D01*
X131150500Y-40426500D01*
X131150500Y-44028500D01*
X131150500Y-44028500D01*
G37*
G36*
X107022091Y-42023085D02*
G01*
X107056069Y-42033393D01*
X107087390Y-42050134D01*
X107114839Y-42072661D01*
X107137366Y-42100110D01*
X107154107Y-42131431D01*
X107164415Y-42165409D01*
X107168500Y-42206890D01*
X107168500Y-42883110D01*
X107164415Y-42924591D01*
X107154107Y-42958569D01*
X107137366Y-42989890D01*
X107114839Y-43017339D01*
X107087390Y-43039866D01*
X107056069Y-43056607D01*
X107022091Y-43066915D01*
X106980610Y-43071000D01*
X106379390Y-43071000D01*
X106337909Y-43066915D01*
X106303931Y-43056607D01*
X106272610Y-43039866D01*
X106245161Y-43017339D01*
X106222634Y-42989890D01*
X106205893Y-42958569D01*
X106195585Y-42924591D01*
X106191500Y-42883110D01*
X106191500Y-42206890D01*
X106195585Y-42165409D01*
X106205893Y-42131431D01*
X106222634Y-42100110D01*
X106245161Y-42072661D01*
X106272610Y-42050134D01*
X106303931Y-42033393D01*
X106337909Y-42023085D01*
X106379390Y-42019000D01*
X106980610Y-42019000D01*
X107022091Y-42023085D01*
X107022091Y-42023085D01*
G37*
G36*
X108597091Y-42023085D02*
G01*
X108631069Y-42033393D01*
X108662390Y-42050134D01*
X108689839Y-42072661D01*
X108712366Y-42100110D01*
X108729107Y-42131431D01*
X108739415Y-42165409D01*
X108743500Y-42206890D01*
X108743500Y-42883110D01*
X108739415Y-42924591D01*
X108729107Y-42958569D01*
X108712366Y-42989890D01*
X108689839Y-43017339D01*
X108662390Y-43039866D01*
X108631069Y-43056607D01*
X108597091Y-43066915D01*
X108555610Y-43071000D01*
X107954390Y-43071000D01*
X107912909Y-43066915D01*
X107878931Y-43056607D01*
X107847610Y-43039866D01*
X107820161Y-43017339D01*
X107797634Y-42989890D01*
X107780893Y-42958569D01*
X107770585Y-42924591D01*
X107766500Y-42883110D01*
X107766500Y-42206890D01*
X107770585Y-42165409D01*
X107780893Y-42131431D01*
X107797634Y-42100110D01*
X107820161Y-42072661D01*
X107847610Y-42050134D01*
X107878931Y-42033393D01*
X107912909Y-42023085D01*
X107954390Y-42019000D01*
X108555610Y-42019000D01*
X108597091Y-42023085D01*
X108597091Y-42023085D01*
G37*
G36*
X104147321Y-37987505D02*
G01*
X104284172Y-38029019D01*
X104284175Y-38029020D01*
X104410294Y-38096432D01*
X104520843Y-38187157D01*
X104611568Y-38297706D01*
X104678980Y-38423824D01*
X104678981Y-38423828D01*
X104720495Y-38560680D01*
X104720495Y-38560682D01*
X104728726Y-38644253D01*
X104731000Y-38655686D01*
X104731000Y-40032001D01*
X104733402Y-40056387D01*
X104740515Y-40079836D01*
X104752066Y-40101447D01*
X104767611Y-40120389D01*
X104786553Y-40135934D01*
X104808164Y-40147485D01*
X104831613Y-40154598D01*
X104855999Y-40157000D01*
X105188500Y-40157000D01*
X105188500Y-41030579D01*
X105185515Y-41036164D01*
X105178402Y-41059613D01*
X105176000Y-41083999D01*
X105176000Y-42659000D01*
X103868620Y-42659000D01*
X103844234Y-42661402D01*
X103832334Y-42664383D01*
X103812817Y-42670304D01*
X103695000Y-42681907D01*
X103577182Y-42670304D01*
X103557665Y-42664383D01*
X103533632Y-42659602D01*
X103521379Y-42659000D01*
X103023241Y-42659000D01*
X103018447Y-42655066D01*
X102996836Y-42643515D01*
X102973387Y-42636402D01*
X102949001Y-42634000D01*
X99724000Y-42634000D01*
X99724000Y-40882000D01*
X102826000Y-40882000D01*
X102826000Y-40932001D01*
X102828402Y-40956387D01*
X102835515Y-40979836D01*
X102847066Y-41001447D01*
X102862611Y-41020389D01*
X102881553Y-41035934D01*
X102903164Y-41047485D01*
X102926613Y-41054598D01*
X102950999Y-41057000D01*
X103136501Y-41057000D01*
X103160887Y-41054598D01*
X103184336Y-41047485D01*
X103205947Y-41035934D01*
X103224889Y-41020389D01*
X103240434Y-41001447D01*
X103251985Y-40979836D01*
X103259098Y-40956387D01*
X103261500Y-40932001D01*
X103261500Y-40094775D01*
X103269485Y-40079836D01*
X103276598Y-40056387D01*
X103279000Y-40032001D01*
X103279000Y-38657950D01*
X103279474Y-38656387D01*
X103281274Y-38644253D01*
X103281283Y-38644159D01*
X103289505Y-38560679D01*
X103331019Y-38423828D01*
X103331020Y-38423825D01*
X103398432Y-38297706D01*
X103489158Y-38187157D01*
X103599707Y-38096432D01*
X103725826Y-38029020D01*
X103725829Y-38029019D01*
X103862680Y-37987505D01*
X104005000Y-37973488D01*
X104147321Y-37987505D01*
X104147321Y-37987505D01*
G37*
G36*
X98687321Y-37987505D02*
G01*
X98824172Y-38029019D01*
X98824175Y-38029020D01*
X98950294Y-38096432D01*
X99060843Y-38187157D01*
X99151568Y-38297706D01*
X99218980Y-38423824D01*
X99218981Y-38423828D01*
X99260495Y-38560680D01*
X99260495Y-38560682D01*
X99271000Y-38667341D01*
X99271000Y-39088660D01*
X99260495Y-39195322D01*
X99256383Y-39208876D01*
X99251602Y-39232909D01*
X99251000Y-39245162D01*
X99251000Y-40952001D01*
X99253402Y-40976387D01*
X99260515Y-40999836D01*
X99272066Y-41021447D01*
X99287611Y-41040389D01*
X99306553Y-41055934D01*
X99328164Y-41067485D01*
X99351613Y-41074598D01*
X99375999Y-41077000D01*
X99426000Y-41077000D01*
X99426000Y-41471414D01*
X99428402Y-41495800D01*
X99431383Y-41507700D01*
X99447304Y-41560182D01*
X99456000Y-41648482D01*
X99456000Y-42107519D01*
X99447304Y-42195818D01*
X99431383Y-42248300D01*
X99426602Y-42272333D01*
X99426000Y-42284586D01*
X99426000Y-42679000D01*
X98890659Y-42679000D01*
X98878407Y-42679602D01*
X98855000Y-42681907D01*
X98831593Y-42679602D01*
X98819341Y-42679000D01*
X97324000Y-42679000D01*
X97324000Y-41083999D01*
X97321598Y-41059613D01*
X97314485Y-41036164D01*
X97311500Y-41030579D01*
X97311500Y-40157000D01*
X97674001Y-40157000D01*
X97698387Y-40154598D01*
X97721836Y-40147485D01*
X97743447Y-40135934D01*
X97762389Y-40120389D01*
X97777934Y-40101447D01*
X97789485Y-40079836D01*
X97796598Y-40056387D01*
X97799000Y-40032001D01*
X97799000Y-38703653D01*
X97800810Y-38701447D01*
X97812361Y-38679836D01*
X97819474Y-38656387D01*
X97821274Y-38644253D01*
X97821283Y-38644159D01*
X97829505Y-38560679D01*
X97871019Y-38423828D01*
X97871020Y-38423825D01*
X97938432Y-38297706D01*
X98029158Y-38187157D01*
X98139707Y-38096432D01*
X98265826Y-38029020D01*
X98265829Y-38029019D01*
X98402680Y-37987505D01*
X98545000Y-37973488D01*
X98687321Y-37987505D01*
X98687321Y-37987505D01*
G37*
G36*
X126326091Y-41515085D02*
G01*
X126360069Y-41525393D01*
X126391390Y-41542134D01*
X126418839Y-41564661D01*
X126441366Y-41592110D01*
X126458107Y-41623431D01*
X126468415Y-41657409D01*
X126472500Y-41698890D01*
X126472500Y-42375110D01*
X126468415Y-42416591D01*
X126458107Y-42450569D01*
X126441366Y-42481890D01*
X126418839Y-42509339D01*
X126391390Y-42531866D01*
X126360069Y-42548607D01*
X126326091Y-42558915D01*
X126284610Y-42563000D01*
X125683390Y-42563000D01*
X125641909Y-42558915D01*
X125607931Y-42548607D01*
X125576610Y-42531866D01*
X125549161Y-42509339D01*
X125526634Y-42481890D01*
X125509893Y-42450569D01*
X125499585Y-42416591D01*
X125495500Y-42375110D01*
X125495500Y-41698890D01*
X125499585Y-41657409D01*
X125509893Y-41623431D01*
X125526634Y-41592110D01*
X125549161Y-41564661D01*
X125576610Y-41542134D01*
X125607931Y-41525393D01*
X125641909Y-41515085D01*
X125683390Y-41511000D01*
X126284610Y-41511000D01*
X126326091Y-41515085D01*
X126326091Y-41515085D01*
G37*
G36*
X124751091Y-41515085D02*
G01*
X124785069Y-41525393D01*
X124816390Y-41542134D01*
X124843839Y-41564661D01*
X124866366Y-41592110D01*
X124883107Y-41623431D01*
X124893415Y-41657409D01*
X124897500Y-41698890D01*
X124897500Y-42375110D01*
X124893415Y-42416591D01*
X124883107Y-42450569D01*
X124866366Y-42481890D01*
X124843839Y-42509339D01*
X124816390Y-42531866D01*
X124785069Y-42548607D01*
X124751091Y-42558915D01*
X124709610Y-42563000D01*
X124108390Y-42563000D01*
X124066909Y-42558915D01*
X124032931Y-42548607D01*
X124001610Y-42531866D01*
X123974161Y-42509339D01*
X123951634Y-42481890D01*
X123934893Y-42450569D01*
X123924585Y-42416591D01*
X123920500Y-42375110D01*
X123920500Y-41698890D01*
X123924585Y-41657409D01*
X123934893Y-41623431D01*
X123951634Y-41592110D01*
X123974161Y-41564661D01*
X124001610Y-41542134D01*
X124032931Y-41525393D01*
X124066909Y-41515085D01*
X124108390Y-41511000D01*
X124709610Y-41511000D01*
X124751091Y-41515085D01*
X124751091Y-41515085D01*
G37*
G36*
X94931000Y-42481000D02*
G01*
X93029000Y-42481000D01*
X93029000Y-39879000D01*
X94931000Y-39879000D01*
X94931000Y-42481000D01*
X94931000Y-42481000D01*
G37*
G36*
X86341015Y-37607773D02*
G01*
X86444879Y-37639279D01*
X86472055Y-37653805D01*
X86540600Y-37690443D01*
X86624501Y-37759299D01*
X86693357Y-37843200D01*
X86729995Y-37911745D01*
X86744521Y-37938921D01*
X86776027Y-38042785D01*
X86786666Y-38150800D01*
X86776027Y-38258815D01*
X86744521Y-38362679D01*
X86744519Y-38362682D01*
X86693357Y-38458400D01*
X86624501Y-38542301D01*
X86540600Y-38611157D01*
X86478857Y-38644159D01*
X86444879Y-38662321D01*
X86432131Y-38666188D01*
X86409504Y-38675560D01*
X86389130Y-38689174D01*
X86371803Y-38706501D01*
X86358189Y-38726875D01*
X86348812Y-38749514D01*
X86344031Y-38773547D01*
X86344031Y-38798051D01*
X86348811Y-38822085D01*
X86358188Y-38844724D01*
X86371802Y-38865098D01*
X86389129Y-38882425D01*
X86409503Y-38896039D01*
X86432131Y-38905412D01*
X86444879Y-38909279D01*
X86472055Y-38923805D01*
X86540600Y-38960443D01*
X86624501Y-39029299D01*
X86693357Y-39113200D01*
X86714915Y-39153533D01*
X86744521Y-39208921D01*
X86776027Y-39312785D01*
X86786666Y-39420800D01*
X86776027Y-39528815D01*
X86744521Y-39632679D01*
X86744519Y-39632682D01*
X86693357Y-39728400D01*
X86648948Y-39782512D01*
X86624501Y-39812301D01*
X86540600Y-39881156D01*
X86496807Y-39904564D01*
X86476437Y-39918175D01*
X86459110Y-39935502D01*
X86445496Y-39955876D01*
X86436119Y-39978515D01*
X86431338Y-40002548D01*
X86431338Y-40027052D01*
X86436118Y-40051086D01*
X86445495Y-40073724D01*
X86459109Y-40094099D01*
X86476436Y-40111426D01*
X86496810Y-40125040D01*
X86519449Y-40134417D01*
X86543482Y-40139198D01*
X86555735Y-40139800D01*
X86784000Y-40139800D01*
X86784000Y-41241800D01*
X85682000Y-41241800D01*
X85682000Y-40139800D01*
X85910265Y-40139800D01*
X85934651Y-40137398D01*
X85958100Y-40130285D01*
X85979711Y-40118734D01*
X85998653Y-40103189D01*
X86014198Y-40084247D01*
X86025749Y-40062636D01*
X86032862Y-40039187D01*
X86035264Y-40014801D01*
X86032862Y-39990415D01*
X86025749Y-39966966D01*
X86014198Y-39945355D01*
X85998653Y-39926413D01*
X85979711Y-39910868D01*
X85969198Y-39904567D01*
X85925400Y-39881156D01*
X85841499Y-39812301D01*
X85817052Y-39782512D01*
X85772643Y-39728400D01*
X85721481Y-39632682D01*
X85721479Y-39632679D01*
X85689973Y-39528815D01*
X85679334Y-39420800D01*
X85689973Y-39312785D01*
X85721479Y-39208921D01*
X85751085Y-39153533D01*
X85772643Y-39113200D01*
X85841499Y-39029299D01*
X85925400Y-38960443D01*
X85993945Y-38923805D01*
X86021121Y-38909279D01*
X86033869Y-38905412D01*
X86056496Y-38896040D01*
X86076870Y-38882426D01*
X86094197Y-38865099D01*
X86107811Y-38844725D01*
X86117188Y-38822086D01*
X86121969Y-38798053D01*
X86121969Y-38773549D01*
X86117189Y-38749515D01*
X86107812Y-38726876D01*
X86094198Y-38706502D01*
X86076871Y-38689175D01*
X86056497Y-38675561D01*
X86033869Y-38666188D01*
X86021121Y-38662321D01*
X85987143Y-38644159D01*
X85925400Y-38611157D01*
X85841499Y-38542301D01*
X85772643Y-38458400D01*
X85721481Y-38362682D01*
X85721479Y-38362679D01*
X85689973Y-38258815D01*
X85679334Y-38150800D01*
X85689973Y-38042785D01*
X85721479Y-37938921D01*
X85736005Y-37911745D01*
X85772643Y-37843200D01*
X85841499Y-37759299D01*
X85925400Y-37690443D01*
X85993945Y-37653805D01*
X86021121Y-37639279D01*
X86124985Y-37607773D01*
X86205933Y-37599800D01*
X86260067Y-37599800D01*
X86341015Y-37607773D01*
X86341015Y-37607773D01*
G37*
G36*
X90029591Y-40118085D02*
G01*
X90063569Y-40128393D01*
X90094890Y-40145134D01*
X90122339Y-40167661D01*
X90144866Y-40195110D01*
X90161607Y-40226431D01*
X90171915Y-40260409D01*
X90176000Y-40301890D01*
X90176000Y-40978110D01*
X90171915Y-41019591D01*
X90161607Y-41053569D01*
X90144866Y-41084890D01*
X90122339Y-41112339D01*
X90094890Y-41134866D01*
X90063569Y-41151607D01*
X90029591Y-41161915D01*
X89988110Y-41166000D01*
X89386890Y-41166000D01*
X89345409Y-41161915D01*
X89311431Y-41151607D01*
X89280110Y-41134866D01*
X89252661Y-41112339D01*
X89230134Y-41084890D01*
X89213393Y-41053569D01*
X89203085Y-41019591D01*
X89199000Y-40978110D01*
X89199000Y-40301890D01*
X89203085Y-40260409D01*
X89213393Y-40226431D01*
X89230134Y-40195110D01*
X89252661Y-40167661D01*
X89280110Y-40145134D01*
X89311431Y-40128393D01*
X89345409Y-40118085D01*
X89386890Y-40114000D01*
X89988110Y-40114000D01*
X90029591Y-40118085D01*
X90029591Y-40118085D01*
G37*
G36*
X88454591Y-40118085D02*
G01*
X88488569Y-40128393D01*
X88519890Y-40145134D01*
X88547339Y-40167661D01*
X88569866Y-40195110D01*
X88586607Y-40226431D01*
X88596915Y-40260409D01*
X88601000Y-40301890D01*
X88601000Y-40978110D01*
X88596915Y-41019591D01*
X88586607Y-41053569D01*
X88569866Y-41084890D01*
X88547339Y-41112339D01*
X88519890Y-41134866D01*
X88488569Y-41151607D01*
X88454591Y-41161915D01*
X88413110Y-41166000D01*
X87811890Y-41166000D01*
X87770409Y-41161915D01*
X87736431Y-41151607D01*
X87705110Y-41134866D01*
X87677661Y-41112339D01*
X87655134Y-41084890D01*
X87638393Y-41053569D01*
X87628085Y-41019591D01*
X87624000Y-40978110D01*
X87624000Y-40301890D01*
X87628085Y-40260409D01*
X87638393Y-40226431D01*
X87655134Y-40195110D01*
X87677661Y-40167661D01*
X87705110Y-40145134D01*
X87736431Y-40128393D01*
X87770409Y-40118085D01*
X87811890Y-40114000D01*
X88413110Y-40114000D01*
X88454591Y-40118085D01*
X88454591Y-40118085D01*
G37*
G36*
X113696000Y-40956000D02*
G01*
X111094000Y-40956000D01*
X111094000Y-39054000D01*
X113696000Y-39054000D01*
X113696000Y-40956000D01*
X113696000Y-40956000D01*
G37*
G36*
X117696000Y-40956000D02*
G01*
X115094000Y-40956000D01*
X115094000Y-39054000D01*
X117696000Y-39054000D01*
X117696000Y-40956000D01*
X117696000Y-40956000D01*
G37*
G36*
X124568559Y-38505360D02*
G01*
X124702116Y-38560681D01*
X124705232Y-38561972D01*
X124828235Y-38644160D01*
X124932840Y-38748765D01*
X124996958Y-38844725D01*
X125015029Y-38871770D01*
X125071640Y-39008441D01*
X125100500Y-39153532D01*
X125100500Y-39301468D01*
X125094393Y-39332171D01*
X125071640Y-39446559D01*
X125015028Y-39583232D01*
X124932840Y-39706235D01*
X124828235Y-39810840D01*
X124705232Y-39893028D01*
X124705231Y-39893029D01*
X124705230Y-39893029D01*
X124568559Y-39949640D01*
X124423468Y-39978500D01*
X124275532Y-39978500D01*
X124130441Y-39949640D01*
X123993770Y-39893029D01*
X123993769Y-39893029D01*
X123993768Y-39893028D01*
X123870765Y-39810840D01*
X123766160Y-39706235D01*
X123683972Y-39583232D01*
X123627360Y-39446559D01*
X123604607Y-39332171D01*
X123598500Y-39301468D01*
X123598500Y-39153532D01*
X123627360Y-39008441D01*
X123683971Y-38871770D01*
X123702042Y-38844725D01*
X123766160Y-38748765D01*
X123870765Y-38644160D01*
X123993768Y-38561972D01*
X123996885Y-38560681D01*
X124130441Y-38505360D01*
X124275532Y-38476500D01*
X124423468Y-38476500D01*
X124568559Y-38505360D01*
X124568559Y-38505360D01*
G37*
G36*
X103001000Y-39909000D02*
G01*
X101469000Y-39909000D01*
X101469000Y-37307000D01*
X103001000Y-37307000D01*
X103001000Y-39909000D01*
X103001000Y-39909000D01*
G37*
G36*
X101081000Y-39909000D02*
G01*
X99549000Y-39909000D01*
X99549000Y-37307000D01*
X101081000Y-37307000D01*
X101081000Y-39909000D01*
X101081000Y-39909000D01*
G37*
M02*
