G04 #@! TF.GenerationSoftware,KiCad,Pcbnew,5.1.4-e60b266~84~ubuntu18.04.1*
G04 #@! TF.CreationDate,2019-09-17T17:50:47+10:00*
G04 #@! TF.ProjectId,RC-Endpoint-Limiter,52432d45-6e64-4706-9f69-6e742d4c696d,rev?*
G04 #@! TF.SameCoordinates,Original*
G04 #@! TF.FileFunction,Legend,Top*
G04 #@! TF.FilePolarity,Positive*
%FSLAX46Y46*%
G04 Gerber Fmt 4.6, Leading zero omitted, Abs format (unit mm)*
G04 Created by KiCad (PCBNEW 5.1.4-e60b266~84~ubuntu18.04.1) date 2019-09-17 17:50:47*
%MOMM*%
%LPD*%
G04 APERTURE LIST*
%ADD10C,0.120000*%
%ADD11C,0.150000*%
G04 APERTURE END LIST*
D10*
X96244210Y-47625000D02*
G75*
G03X96244210Y-47625000I-359210J0D01*
G01*
X99292210Y-60579000D02*
G75*
G03X99292210Y-60579000I-359210J0D01*
G01*
X95787981Y-39243000D02*
G75*
G03X95787981Y-39243000I-283981J0D01*
G01*
X118774981Y-38608000D02*
G75*
G03X118774981Y-38608000I-283981J0D01*
G01*
X114808000Y-40005000D02*
X113919000Y-40640000D01*
X113919000Y-39370000D02*
X114808000Y-40005000D01*
X93980000Y-42672000D02*
X94615000Y-43561000D01*
X93345000Y-43561000D02*
X93980000Y-42672000D01*
X95377000Y-61849000D02*
X94361000Y-62611000D01*
X94361000Y-61214000D02*
X95377000Y-61849000D01*
X108966000Y-49276000D02*
G75*
G03X108966000Y-49276000I-635000J0D01*
G01*
X96395000Y-47739000D02*
X96395000Y-46609000D01*
X97155000Y-47739000D02*
X96395000Y-47739000D01*
X96460000Y-45031470D02*
X96460000Y-44209000D01*
X96460000Y-45849000D02*
X96460000Y-45646530D01*
X96591529Y-45849000D02*
X96460000Y-45849000D01*
X97861529Y-45849000D02*
X97718471Y-45849000D01*
X97915000Y-46045529D02*
X97915000Y-45902471D01*
X97915000Y-47739000D02*
X97915000Y-47172471D01*
X96460000Y-44209000D02*
X100390000Y-44209000D01*
X97915000Y-47739000D02*
X100390000Y-47739000D01*
X100390000Y-46301470D02*
X100390000Y-45646530D01*
X100390000Y-45031470D02*
X100390000Y-44209000D01*
X100390000Y-47739000D02*
X100390000Y-46916530D01*
X88457721Y-55628000D02*
X88783279Y-55628000D01*
X88457721Y-54608000D02*
X88783279Y-54608000D01*
X88457721Y-57148000D02*
X88783279Y-57148000D01*
X88457721Y-58168000D02*
X88783279Y-58168000D01*
X125292779Y-44321000D02*
X124967221Y-44321000D01*
X125292779Y-45341000D02*
X124967221Y-45341000D01*
X101284721Y-62355000D02*
X101610279Y-62355000D01*
X101284721Y-63375000D02*
X101610279Y-63375000D01*
X105801279Y-60450000D02*
X105475721Y-60450000D01*
X105801279Y-61470000D02*
X105475721Y-61470000D01*
X111114721Y-64137000D02*
X111440279Y-64137000D01*
X111114721Y-63117000D02*
X111440279Y-63117000D01*
X116342279Y-64137000D02*
X116016721Y-64137000D01*
X116342279Y-63117000D02*
X116016721Y-63117000D01*
X111114721Y-60450000D02*
X111440279Y-60450000D01*
X111114721Y-61470000D02*
X111440279Y-61470000D01*
X116342279Y-60450000D02*
X116016721Y-60450000D01*
X116342279Y-61470000D02*
X116016721Y-61470000D01*
X95510000Y-56010000D02*
X95510000Y-50260000D01*
X91910000Y-56010000D02*
X95510000Y-56010000D01*
X91910000Y-50260000D02*
X91910000Y-56010000D01*
X88737221Y-41150000D02*
X89062779Y-41150000D01*
X88737221Y-40130000D02*
X89062779Y-40130000D01*
X124967221Y-48135000D02*
X125292779Y-48135000D01*
X124967221Y-47115000D02*
X125292779Y-47115000D01*
X125359279Y-41527000D02*
X125033721Y-41527000D01*
X125359279Y-42547000D02*
X125033721Y-42547000D01*
X124967221Y-60200000D02*
X125292779Y-60200000D01*
X124967221Y-59180000D02*
X125292779Y-59180000D01*
X125165779Y-56005000D02*
X124840221Y-56005000D01*
X125165779Y-57025000D02*
X124840221Y-57025000D01*
X116240779Y-57275000D02*
X115915221Y-57275000D01*
X116240779Y-58295000D02*
X115915221Y-58295000D01*
X116240779Y-54100000D02*
X115915221Y-54100000D01*
X116240779Y-55120000D02*
X115915221Y-55120000D01*
X116240779Y-50925000D02*
X115915221Y-50925000D01*
X116240779Y-51945000D02*
X115915221Y-51945000D01*
X116367779Y-47750000D02*
X116042221Y-47750000D01*
X116367779Y-48770000D02*
X116042221Y-48770000D01*
X121000279Y-60450000D02*
X120674721Y-60450000D01*
X121000279Y-61470000D02*
X120674721Y-61470000D01*
X88711721Y-62486000D02*
X89037279Y-62486000D01*
X88711721Y-61466000D02*
X89037279Y-61466000D01*
X88737221Y-48135000D02*
X89062779Y-48135000D01*
X88737221Y-47115000D02*
X89062779Y-47115000D01*
X88711721Y-60454000D02*
X89037279Y-60454000D01*
X88711721Y-59434000D02*
X89037279Y-59434000D01*
X88737221Y-45595000D02*
X89062779Y-45595000D01*
X88737221Y-44575000D02*
X89062779Y-44575000D01*
X125165779Y-61720000D02*
X124840221Y-61720000D01*
X125165779Y-62740000D02*
X124840221Y-62740000D01*
X97673279Y-48893000D02*
X97347721Y-48893000D01*
X97673279Y-49913000D02*
X97347721Y-49913000D01*
X107630279Y-42035000D02*
X107304721Y-42035000D01*
X107630279Y-43055000D02*
X107304721Y-43055000D01*
X107630279Y-43940000D02*
X107304721Y-43940000D01*
X107630279Y-44960000D02*
X107304721Y-44960000D01*
X122170000Y-57050000D02*
X119885000Y-57050000D01*
X122170000Y-58520000D02*
X122170000Y-57050000D01*
X119885000Y-58520000D02*
X122170000Y-58520000D01*
X122322500Y-53875000D02*
X120037500Y-53875000D01*
X122322500Y-55345000D02*
X122322500Y-53875000D01*
X120037500Y-55345000D02*
X122322500Y-55345000D01*
X122322500Y-50700000D02*
X120037500Y-50700000D01*
X122322500Y-52170000D02*
X122322500Y-50700000D01*
X120037500Y-52170000D02*
X122322500Y-52170000D01*
X122170000Y-47525000D02*
X119885000Y-47525000D01*
X122170000Y-48995000D02*
X122170000Y-47525000D01*
X119885000Y-48995000D02*
X122170000Y-48995000D01*
X111414779Y-47750000D02*
X111089221Y-47750000D01*
X111414779Y-48770000D02*
X111089221Y-48770000D01*
X101310221Y-60200000D02*
X101635779Y-60200000D01*
X101310221Y-59180000D02*
X101635779Y-59180000D01*
X111440279Y-57275000D02*
X111114721Y-57275000D01*
X111440279Y-58295000D02*
X111114721Y-58295000D01*
X107304721Y-46865000D02*
X107630279Y-46865000D01*
X107304721Y-45845000D02*
X107630279Y-45845000D01*
X111089221Y-51945000D02*
X111414779Y-51945000D01*
X111089221Y-50925000D02*
X111414779Y-50925000D01*
X93514721Y-48770000D02*
X93840279Y-48770000D01*
X93514721Y-47750000D02*
X93840279Y-47750000D01*
X93840279Y-57148000D02*
X93514721Y-57148000D01*
X93840279Y-58168000D02*
X93514721Y-58168000D01*
X95630000Y-39780000D02*
X95630000Y-45180000D01*
X92330000Y-39780000D02*
X92330000Y-45180000D01*
X95630000Y-39780000D02*
X92330000Y-39780000D01*
X98301000Y-63562500D02*
X92901000Y-63562500D01*
X98301000Y-60262500D02*
X92901000Y-60262500D01*
X98301000Y-63562500D02*
X98301000Y-60262500D01*
X117795000Y-41655000D02*
X112395000Y-41655000D01*
X117795000Y-38355000D02*
X112395000Y-38355000D01*
X117795000Y-41655000D02*
X117795000Y-38355000D01*
X102575000Y-42858000D02*
X102975000Y-43308000D01*
X102975000Y-43308000D02*
X102175000Y-43308000D01*
X102175000Y-43308000D02*
X102575000Y-42858000D01*
X97425000Y-37258000D02*
X97425000Y-40058000D01*
X97425000Y-40058000D02*
X97125000Y-40058000D01*
X97125000Y-40058000D02*
X97125000Y-41608000D01*
X105125000Y-37258000D02*
X105125000Y-40058000D01*
X105425000Y-40058000D02*
X105125000Y-40058000D01*
X105425000Y-40058000D02*
X105425000Y-41608000D01*
X89420000Y-66151000D02*
X89420000Y-64151000D01*
X92220000Y-66151000D02*
X89420000Y-66151000D01*
X92220000Y-64151000D02*
X92220000Y-66151000D01*
X89420000Y-64151000D02*
X92220000Y-64151000D01*
X107750000Y-50455000D02*
X107750000Y-49730000D01*
X100530000Y-56950000D02*
X101255000Y-56950000D01*
X100530000Y-56225000D02*
X100530000Y-56950000D01*
X100530000Y-49730000D02*
X101255000Y-49730000D01*
X100530000Y-50455000D02*
X100530000Y-49730000D01*
X107750000Y-56950000D02*
X107025000Y-56950000D01*
X107750000Y-56225000D02*
X107750000Y-56950000D01*
D11*
X100885809Y-46299380D02*
X100885809Y-45299380D01*
X101314380Y-46251761D02*
X101457238Y-46299380D01*
X101695333Y-46299380D01*
X101790571Y-46251761D01*
X101838190Y-46204142D01*
X101885809Y-46108904D01*
X101885809Y-46013666D01*
X101838190Y-45918428D01*
X101790571Y-45870809D01*
X101695333Y-45823190D01*
X101504857Y-45775571D01*
X101409619Y-45727952D01*
X101362000Y-45680333D01*
X101314380Y-45585095D01*
X101314380Y-45489857D01*
X101362000Y-45394619D01*
X101409619Y-45347000D01*
X101504857Y-45299380D01*
X101742952Y-45299380D01*
X101885809Y-45347000D01*
X102885809Y-46204142D02*
X102838190Y-46251761D01*
X102695333Y-46299380D01*
X102600095Y-46299380D01*
X102457238Y-46251761D01*
X102362000Y-46156523D01*
X102314380Y-46061285D01*
X102266761Y-45870809D01*
X102266761Y-45727952D01*
X102314380Y-45537476D01*
X102362000Y-45442238D01*
X102457238Y-45347000D01*
X102600095Y-45299380D01*
X102695333Y-45299380D01*
X102838190Y-45347000D01*
X102885809Y-45394619D01*
X103314380Y-46299380D02*
X103314380Y-45299380D01*
X103695333Y-45299380D01*
X103790571Y-45347000D01*
X103838190Y-45394619D01*
X103885809Y-45489857D01*
X103885809Y-45632714D01*
X103838190Y-45727952D01*
X103790571Y-45775571D01*
X103695333Y-45823190D01*
X103314380Y-45823190D01*
X87977642Y-54140380D02*
X87644309Y-53664190D01*
X87406214Y-54140380D02*
X87406214Y-53140380D01*
X87787166Y-53140380D01*
X87882404Y-53188000D01*
X87930023Y-53235619D01*
X87977642Y-53330857D01*
X87977642Y-53473714D01*
X87930023Y-53568952D01*
X87882404Y-53616571D01*
X87787166Y-53664190D01*
X87406214Y-53664190D01*
X88358595Y-53235619D02*
X88406214Y-53188000D01*
X88501452Y-53140380D01*
X88739547Y-53140380D01*
X88834785Y-53188000D01*
X88882404Y-53235619D01*
X88930023Y-53330857D01*
X88930023Y-53426095D01*
X88882404Y-53568952D01*
X88310976Y-54140380D01*
X88930023Y-54140380D01*
X89310976Y-53235619D02*
X89358595Y-53188000D01*
X89453833Y-53140380D01*
X89691928Y-53140380D01*
X89787166Y-53188000D01*
X89834785Y-53235619D01*
X89882404Y-53330857D01*
X89882404Y-53426095D01*
X89834785Y-53568952D01*
X89263357Y-54140380D01*
X89882404Y-54140380D01*
X87977642Y-56840380D02*
X87644309Y-56364190D01*
X87406214Y-56840380D02*
X87406214Y-55840380D01*
X87787166Y-55840380D01*
X87882404Y-55888000D01*
X87930023Y-55935619D01*
X87977642Y-56030857D01*
X87977642Y-56173714D01*
X87930023Y-56268952D01*
X87882404Y-56316571D01*
X87787166Y-56364190D01*
X87406214Y-56364190D01*
X88358595Y-55935619D02*
X88406214Y-55888000D01*
X88501452Y-55840380D01*
X88739547Y-55840380D01*
X88834785Y-55888000D01*
X88882404Y-55935619D01*
X88930023Y-56030857D01*
X88930023Y-56126095D01*
X88882404Y-56268952D01*
X88310976Y-56840380D01*
X88930023Y-56840380D01*
X89263357Y-55840380D02*
X89882404Y-55840380D01*
X89549071Y-56221333D01*
X89691928Y-56221333D01*
X89787166Y-56268952D01*
X89834785Y-56316571D01*
X89882404Y-56411809D01*
X89882404Y-56649904D01*
X89834785Y-56745142D01*
X89787166Y-56792761D01*
X89691928Y-56840380D01*
X89406214Y-56840380D01*
X89310976Y-56792761D01*
X89263357Y-56745142D01*
X124963333Y-46713380D02*
X124630000Y-46237190D01*
X124391904Y-46713380D02*
X124391904Y-45713380D01*
X124772857Y-45713380D01*
X124868095Y-45761000D01*
X124915714Y-45808619D01*
X124963333Y-45903857D01*
X124963333Y-46046714D01*
X124915714Y-46141952D01*
X124868095Y-46189571D01*
X124772857Y-46237190D01*
X124391904Y-46237190D01*
X125820476Y-45713380D02*
X125630000Y-45713380D01*
X125534761Y-45761000D01*
X125487142Y-45808619D01*
X125391904Y-45951476D01*
X125344285Y-46141952D01*
X125344285Y-46522904D01*
X125391904Y-46618142D01*
X125439523Y-46665761D01*
X125534761Y-46713380D01*
X125725238Y-46713380D01*
X125820476Y-46665761D01*
X125868095Y-46618142D01*
X125915714Y-46522904D01*
X125915714Y-46284809D01*
X125868095Y-46189571D01*
X125820476Y-46141952D01*
X125725238Y-46094333D01*
X125534761Y-46094333D01*
X125439523Y-46141952D01*
X125391904Y-46189571D01*
X125344285Y-46284809D01*
X100804642Y-61887380D02*
X100471309Y-61411190D01*
X100233214Y-61887380D02*
X100233214Y-60887380D01*
X100614166Y-60887380D01*
X100709404Y-60935000D01*
X100757023Y-60982619D01*
X100804642Y-61077857D01*
X100804642Y-61220714D01*
X100757023Y-61315952D01*
X100709404Y-61363571D01*
X100614166Y-61411190D01*
X100233214Y-61411190D01*
X101185595Y-60982619D02*
X101233214Y-60935000D01*
X101328452Y-60887380D01*
X101566547Y-60887380D01*
X101661785Y-60935000D01*
X101709404Y-60982619D01*
X101757023Y-61077857D01*
X101757023Y-61173095D01*
X101709404Y-61315952D01*
X101137976Y-61887380D01*
X101757023Y-61887380D01*
X102376071Y-60887380D02*
X102471309Y-60887380D01*
X102566547Y-60935000D01*
X102614166Y-60982619D01*
X102661785Y-61077857D01*
X102709404Y-61268333D01*
X102709404Y-61506428D01*
X102661785Y-61696904D01*
X102614166Y-61792142D01*
X102566547Y-61839761D01*
X102471309Y-61887380D01*
X102376071Y-61887380D01*
X102280833Y-61839761D01*
X102233214Y-61792142D01*
X102185595Y-61696904D01*
X102137976Y-61506428D01*
X102137976Y-61268333D01*
X102185595Y-61077857D01*
X102233214Y-60982619D01*
X102280833Y-60935000D01*
X102376071Y-60887380D01*
X104995642Y-62842380D02*
X104662309Y-62366190D01*
X104424214Y-62842380D02*
X104424214Y-61842380D01*
X104805166Y-61842380D01*
X104900404Y-61890000D01*
X104948023Y-61937619D01*
X104995642Y-62032857D01*
X104995642Y-62175714D01*
X104948023Y-62270952D01*
X104900404Y-62318571D01*
X104805166Y-62366190D01*
X104424214Y-62366190D01*
X105376595Y-61937619D02*
X105424214Y-61890000D01*
X105519452Y-61842380D01*
X105757547Y-61842380D01*
X105852785Y-61890000D01*
X105900404Y-61937619D01*
X105948023Y-62032857D01*
X105948023Y-62128095D01*
X105900404Y-62270952D01*
X105328976Y-62842380D01*
X105948023Y-62842380D01*
X106900404Y-62842380D02*
X106328976Y-62842380D01*
X106614690Y-62842380D02*
X106614690Y-61842380D01*
X106519452Y-61985238D01*
X106424214Y-62080476D01*
X106328976Y-62128095D01*
X110944166Y-62125571D02*
X110610833Y-62125571D01*
X110610833Y-62649380D02*
X110610833Y-61649380D01*
X111087023Y-61649380D01*
X111420357Y-61744619D02*
X111467976Y-61697000D01*
X111563214Y-61649380D01*
X111801309Y-61649380D01*
X111896547Y-61697000D01*
X111944166Y-61744619D01*
X111991785Y-61839857D01*
X111991785Y-61935095D01*
X111944166Y-62077952D01*
X111372738Y-62649380D01*
X111991785Y-62649380D01*
X115846166Y-64985571D02*
X115512833Y-64985571D01*
X115512833Y-65509380D02*
X115512833Y-64509380D01*
X115989023Y-64509380D01*
X116893785Y-65509380D02*
X116322357Y-65509380D01*
X116608071Y-65509380D02*
X116608071Y-64509380D01*
X116512833Y-64652238D01*
X116417595Y-64747476D01*
X116322357Y-64795095D01*
X110944166Y-59458571D02*
X110610833Y-59458571D01*
X110610833Y-59982380D02*
X110610833Y-58982380D01*
X111087023Y-58982380D01*
X111896547Y-59315714D02*
X111896547Y-59982380D01*
X111658452Y-58934761D02*
X111420357Y-59649047D01*
X112039404Y-59649047D01*
X115846166Y-62318571D02*
X115512833Y-62318571D01*
X115512833Y-62842380D02*
X115512833Y-61842380D01*
X115989023Y-61842380D01*
X116274738Y-61842380D02*
X116893785Y-61842380D01*
X116560452Y-62223333D01*
X116703309Y-62223333D01*
X116798547Y-62270952D01*
X116846166Y-62318571D01*
X116893785Y-62413809D01*
X116893785Y-62651904D01*
X116846166Y-62747142D01*
X116798547Y-62794761D01*
X116703309Y-62842380D01*
X116417595Y-62842380D01*
X116322357Y-62794761D01*
X116274738Y-62747142D01*
X90886190Y-53436190D02*
X91362380Y-53436190D01*
X90362380Y-53769523D02*
X90886190Y-53436190D01*
X90362380Y-53102857D01*
X91362380Y-52245714D02*
X91362380Y-52817142D01*
X91362380Y-52531428D02*
X90362380Y-52531428D01*
X90505238Y-52626666D01*
X90600476Y-52721904D01*
X90648095Y-52817142D01*
X88638142Y-39695380D02*
X88304809Y-39219190D01*
X88066714Y-39695380D02*
X88066714Y-38695380D01*
X88447666Y-38695380D01*
X88542904Y-38743000D01*
X88590523Y-38790619D01*
X88638142Y-38885857D01*
X88638142Y-39028714D01*
X88590523Y-39123952D01*
X88542904Y-39171571D01*
X88447666Y-39219190D01*
X88066714Y-39219190D01*
X89590523Y-39695380D02*
X89019095Y-39695380D01*
X89304809Y-39695380D02*
X89304809Y-38695380D01*
X89209571Y-38838238D01*
X89114333Y-38933476D01*
X89019095Y-38981095D01*
X90066714Y-39695380D02*
X90257190Y-39695380D01*
X90352428Y-39647761D01*
X90400047Y-39600142D01*
X90495285Y-39457285D01*
X90542904Y-39266809D01*
X90542904Y-38885857D01*
X90495285Y-38790619D01*
X90447666Y-38743000D01*
X90352428Y-38695380D01*
X90161952Y-38695380D01*
X90066714Y-38743000D01*
X90019095Y-38790619D01*
X89971476Y-38885857D01*
X89971476Y-39123952D01*
X90019095Y-39219190D01*
X90066714Y-39266809D01*
X90161952Y-39314428D01*
X90352428Y-39314428D01*
X90447666Y-39266809D01*
X90495285Y-39219190D01*
X90542904Y-39123952D01*
X124487142Y-49347380D02*
X124153809Y-48871190D01*
X123915714Y-49347380D02*
X123915714Y-48347380D01*
X124296666Y-48347380D01*
X124391904Y-48395000D01*
X124439523Y-48442619D01*
X124487142Y-48537857D01*
X124487142Y-48680714D01*
X124439523Y-48775952D01*
X124391904Y-48823571D01*
X124296666Y-48871190D01*
X123915714Y-48871190D01*
X125439523Y-49347380D02*
X124868095Y-49347380D01*
X125153809Y-49347380D02*
X125153809Y-48347380D01*
X125058571Y-48490238D01*
X124963333Y-48585476D01*
X124868095Y-48633095D01*
X126010952Y-48775952D02*
X125915714Y-48728333D01*
X125868095Y-48680714D01*
X125820476Y-48585476D01*
X125820476Y-48537857D01*
X125868095Y-48442619D01*
X125915714Y-48395000D01*
X126010952Y-48347380D01*
X126201428Y-48347380D01*
X126296666Y-48395000D01*
X126344285Y-48442619D01*
X126391904Y-48537857D01*
X126391904Y-48585476D01*
X126344285Y-48680714D01*
X126296666Y-48728333D01*
X126201428Y-48775952D01*
X126010952Y-48775952D01*
X125915714Y-48823571D01*
X125868095Y-48871190D01*
X125820476Y-48966428D01*
X125820476Y-49156904D01*
X125868095Y-49252142D01*
X125915714Y-49299761D01*
X126010952Y-49347380D01*
X126201428Y-49347380D01*
X126296666Y-49299761D01*
X126344285Y-49252142D01*
X126391904Y-49156904D01*
X126391904Y-48966428D01*
X126344285Y-48871190D01*
X126296666Y-48823571D01*
X126201428Y-48775952D01*
X124553642Y-41219380D02*
X124220309Y-40743190D01*
X123982214Y-41219380D02*
X123982214Y-40219380D01*
X124363166Y-40219380D01*
X124458404Y-40267000D01*
X124506023Y-40314619D01*
X124553642Y-40409857D01*
X124553642Y-40552714D01*
X124506023Y-40647952D01*
X124458404Y-40695571D01*
X124363166Y-40743190D01*
X123982214Y-40743190D01*
X125506023Y-41219380D02*
X124934595Y-41219380D01*
X125220309Y-41219380D02*
X125220309Y-40219380D01*
X125125071Y-40362238D01*
X125029833Y-40457476D01*
X124934595Y-40505095D01*
X125839357Y-40219380D02*
X126506023Y-40219380D01*
X126077452Y-41219380D01*
X124487142Y-58872380D02*
X124153809Y-58396190D01*
X123915714Y-58872380D02*
X123915714Y-57872380D01*
X124296666Y-57872380D01*
X124391904Y-57920000D01*
X124439523Y-57967619D01*
X124487142Y-58062857D01*
X124487142Y-58205714D01*
X124439523Y-58300952D01*
X124391904Y-58348571D01*
X124296666Y-58396190D01*
X123915714Y-58396190D01*
X125439523Y-58872380D02*
X124868095Y-58872380D01*
X125153809Y-58872380D02*
X125153809Y-57872380D01*
X125058571Y-58015238D01*
X124963333Y-58110476D01*
X124868095Y-58158095D01*
X126296666Y-57872380D02*
X126106190Y-57872380D01*
X126010952Y-57920000D01*
X125963333Y-57967619D01*
X125868095Y-58110476D01*
X125820476Y-58300952D01*
X125820476Y-58681904D01*
X125868095Y-58777142D01*
X125915714Y-58824761D01*
X126010952Y-58872380D01*
X126201428Y-58872380D01*
X126296666Y-58824761D01*
X126344285Y-58777142D01*
X126391904Y-58681904D01*
X126391904Y-58443809D01*
X126344285Y-58348571D01*
X126296666Y-58300952D01*
X126201428Y-58253333D01*
X126010952Y-58253333D01*
X125915714Y-58300952D01*
X125868095Y-58348571D01*
X125820476Y-58443809D01*
X124360142Y-55697380D02*
X124026809Y-55221190D01*
X123788714Y-55697380D02*
X123788714Y-54697380D01*
X124169666Y-54697380D01*
X124264904Y-54745000D01*
X124312523Y-54792619D01*
X124360142Y-54887857D01*
X124360142Y-55030714D01*
X124312523Y-55125952D01*
X124264904Y-55173571D01*
X124169666Y-55221190D01*
X123788714Y-55221190D01*
X125312523Y-55697380D02*
X124741095Y-55697380D01*
X125026809Y-55697380D02*
X125026809Y-54697380D01*
X124931571Y-54840238D01*
X124836333Y-54935476D01*
X124741095Y-54983095D01*
X126217285Y-54697380D02*
X125741095Y-54697380D01*
X125693476Y-55173571D01*
X125741095Y-55125952D01*
X125836333Y-55078333D01*
X126074428Y-55078333D01*
X126169666Y-55125952D01*
X126217285Y-55173571D01*
X126264904Y-55268809D01*
X126264904Y-55506904D01*
X126217285Y-55602142D01*
X126169666Y-55649761D01*
X126074428Y-55697380D01*
X125836333Y-55697380D01*
X125741095Y-55649761D01*
X125693476Y-55602142D01*
X115435142Y-59667380D02*
X115101809Y-59191190D01*
X114863714Y-59667380D02*
X114863714Y-58667380D01*
X115244666Y-58667380D01*
X115339904Y-58715000D01*
X115387523Y-58762619D01*
X115435142Y-58857857D01*
X115435142Y-59000714D01*
X115387523Y-59095952D01*
X115339904Y-59143571D01*
X115244666Y-59191190D01*
X114863714Y-59191190D01*
X116387523Y-59667380D02*
X115816095Y-59667380D01*
X116101809Y-59667380D02*
X116101809Y-58667380D01*
X116006571Y-58810238D01*
X115911333Y-58905476D01*
X115816095Y-58953095D01*
X117244666Y-59000714D02*
X117244666Y-59667380D01*
X117006571Y-58619761D02*
X116768476Y-59334047D01*
X117387523Y-59334047D01*
X115435142Y-56492380D02*
X115101809Y-56016190D01*
X114863714Y-56492380D02*
X114863714Y-55492380D01*
X115244666Y-55492380D01*
X115339904Y-55540000D01*
X115387523Y-55587619D01*
X115435142Y-55682857D01*
X115435142Y-55825714D01*
X115387523Y-55920952D01*
X115339904Y-55968571D01*
X115244666Y-56016190D01*
X114863714Y-56016190D01*
X116387523Y-56492380D02*
X115816095Y-56492380D01*
X116101809Y-56492380D02*
X116101809Y-55492380D01*
X116006571Y-55635238D01*
X115911333Y-55730476D01*
X115816095Y-55778095D01*
X116720857Y-55492380D02*
X117339904Y-55492380D01*
X117006571Y-55873333D01*
X117149428Y-55873333D01*
X117244666Y-55920952D01*
X117292285Y-55968571D01*
X117339904Y-56063809D01*
X117339904Y-56301904D01*
X117292285Y-56397142D01*
X117244666Y-56444761D01*
X117149428Y-56492380D01*
X116863714Y-56492380D01*
X116768476Y-56444761D01*
X116720857Y-56397142D01*
X115435142Y-53317380D02*
X115101809Y-52841190D01*
X114863714Y-53317380D02*
X114863714Y-52317380D01*
X115244666Y-52317380D01*
X115339904Y-52365000D01*
X115387523Y-52412619D01*
X115435142Y-52507857D01*
X115435142Y-52650714D01*
X115387523Y-52745952D01*
X115339904Y-52793571D01*
X115244666Y-52841190D01*
X114863714Y-52841190D01*
X116387523Y-53317380D02*
X115816095Y-53317380D01*
X116101809Y-53317380D02*
X116101809Y-52317380D01*
X116006571Y-52460238D01*
X115911333Y-52555476D01*
X115816095Y-52603095D01*
X116768476Y-52412619D02*
X116816095Y-52365000D01*
X116911333Y-52317380D01*
X117149428Y-52317380D01*
X117244666Y-52365000D01*
X117292285Y-52412619D01*
X117339904Y-52507857D01*
X117339904Y-52603095D01*
X117292285Y-52745952D01*
X116720857Y-53317380D01*
X117339904Y-53317380D01*
X115562142Y-50142380D02*
X115228809Y-49666190D01*
X114990714Y-50142380D02*
X114990714Y-49142380D01*
X115371666Y-49142380D01*
X115466904Y-49190000D01*
X115514523Y-49237619D01*
X115562142Y-49332857D01*
X115562142Y-49475714D01*
X115514523Y-49570952D01*
X115466904Y-49618571D01*
X115371666Y-49666190D01*
X114990714Y-49666190D01*
X116514523Y-50142380D02*
X115943095Y-50142380D01*
X116228809Y-50142380D02*
X116228809Y-49142380D01*
X116133571Y-49285238D01*
X116038333Y-49380476D01*
X115943095Y-49428095D01*
X117466904Y-50142380D02*
X116895476Y-50142380D01*
X117181190Y-50142380D02*
X117181190Y-49142380D01*
X117085952Y-49285238D01*
X116990714Y-49380476D01*
X116895476Y-49428095D01*
X120194642Y-62842380D02*
X119861309Y-62366190D01*
X119623214Y-62842380D02*
X119623214Y-61842380D01*
X120004166Y-61842380D01*
X120099404Y-61890000D01*
X120147023Y-61937619D01*
X120194642Y-62032857D01*
X120194642Y-62175714D01*
X120147023Y-62270952D01*
X120099404Y-62318571D01*
X120004166Y-62366190D01*
X119623214Y-62366190D01*
X121147023Y-62842380D02*
X120575595Y-62842380D01*
X120861309Y-62842380D02*
X120861309Y-61842380D01*
X120766071Y-61985238D01*
X120670833Y-62080476D01*
X120575595Y-62128095D01*
X121766071Y-61842380D02*
X121861309Y-61842380D01*
X121956547Y-61890000D01*
X122004166Y-61937619D01*
X122051785Y-62032857D01*
X122099404Y-62223333D01*
X122099404Y-62461428D01*
X122051785Y-62651904D01*
X122004166Y-62747142D01*
X121956547Y-62794761D01*
X121861309Y-62842380D01*
X121766071Y-62842380D01*
X121670833Y-62794761D01*
X121623214Y-62747142D01*
X121575595Y-62651904D01*
X121527976Y-62461428D01*
X121527976Y-62223333D01*
X121575595Y-62032857D01*
X121623214Y-61937619D01*
X121670833Y-61890000D01*
X121766071Y-61842380D01*
X88606333Y-61412380D02*
X88273000Y-60936190D01*
X88034904Y-61412380D02*
X88034904Y-60412380D01*
X88415857Y-60412380D01*
X88511095Y-60460000D01*
X88558714Y-60507619D01*
X88606333Y-60602857D01*
X88606333Y-60745714D01*
X88558714Y-60840952D01*
X88511095Y-60888571D01*
X88415857Y-60936190D01*
X88034904Y-60936190D01*
X89082523Y-61412380D02*
X89273000Y-61412380D01*
X89368238Y-61364761D01*
X89415857Y-61317142D01*
X89511095Y-61174285D01*
X89558714Y-60983809D01*
X89558714Y-60602857D01*
X89511095Y-60507619D01*
X89463476Y-60460000D01*
X89368238Y-60412380D01*
X89177761Y-60412380D01*
X89082523Y-60460000D01*
X89034904Y-60507619D01*
X88987285Y-60602857D01*
X88987285Y-60840952D01*
X89034904Y-60936190D01*
X89082523Y-60983809D01*
X89177761Y-61031428D01*
X89368238Y-61031428D01*
X89463476Y-60983809D01*
X89511095Y-60936190D01*
X89558714Y-60840952D01*
X89685833Y-46870880D02*
X89352500Y-46394690D01*
X89114404Y-46870880D02*
X89114404Y-45870880D01*
X89495357Y-45870880D01*
X89590595Y-45918500D01*
X89638214Y-45966119D01*
X89685833Y-46061357D01*
X89685833Y-46204214D01*
X89638214Y-46299452D01*
X89590595Y-46347071D01*
X89495357Y-46394690D01*
X89114404Y-46394690D01*
X90257261Y-46299452D02*
X90162023Y-46251833D01*
X90114404Y-46204214D01*
X90066785Y-46108976D01*
X90066785Y-46061357D01*
X90114404Y-45966119D01*
X90162023Y-45918500D01*
X90257261Y-45870880D01*
X90447738Y-45870880D01*
X90542976Y-45918500D01*
X90590595Y-45966119D01*
X90638214Y-46061357D01*
X90638214Y-46108976D01*
X90590595Y-46204214D01*
X90542976Y-46251833D01*
X90447738Y-46299452D01*
X90257261Y-46299452D01*
X90162023Y-46347071D01*
X90114404Y-46394690D01*
X90066785Y-46489928D01*
X90066785Y-46680404D01*
X90114404Y-46775642D01*
X90162023Y-46823261D01*
X90257261Y-46870880D01*
X90447738Y-46870880D01*
X90542976Y-46823261D01*
X90590595Y-46775642D01*
X90638214Y-46680404D01*
X90638214Y-46489928D01*
X90590595Y-46394690D01*
X90542976Y-46347071D01*
X90447738Y-46299452D01*
X88707833Y-59253380D02*
X88374500Y-58777190D01*
X88136404Y-59253380D02*
X88136404Y-58253380D01*
X88517357Y-58253380D01*
X88612595Y-58301000D01*
X88660214Y-58348619D01*
X88707833Y-58443857D01*
X88707833Y-58586714D01*
X88660214Y-58681952D01*
X88612595Y-58729571D01*
X88517357Y-58777190D01*
X88136404Y-58777190D01*
X89041166Y-58253380D02*
X89707833Y-58253380D01*
X89279261Y-59253380D01*
X89431833Y-44076880D02*
X89098500Y-43600690D01*
X88860404Y-44076880D02*
X88860404Y-43076880D01*
X89241357Y-43076880D01*
X89336595Y-43124500D01*
X89384214Y-43172119D01*
X89431833Y-43267357D01*
X89431833Y-43410214D01*
X89384214Y-43505452D01*
X89336595Y-43553071D01*
X89241357Y-43600690D01*
X88860404Y-43600690D01*
X90336595Y-43076880D02*
X89860404Y-43076880D01*
X89812785Y-43553071D01*
X89860404Y-43505452D01*
X89955642Y-43457833D01*
X90193738Y-43457833D01*
X90288976Y-43505452D01*
X90336595Y-43553071D01*
X90384214Y-43648309D01*
X90384214Y-43886404D01*
X90336595Y-43981642D01*
X90288976Y-44029261D01*
X90193738Y-44076880D01*
X89955642Y-44076880D01*
X89860404Y-44029261D01*
X89812785Y-43981642D01*
X124963333Y-61412380D02*
X124630000Y-60936190D01*
X124391904Y-61412380D02*
X124391904Y-60412380D01*
X124772857Y-60412380D01*
X124868095Y-60460000D01*
X124915714Y-60507619D01*
X124963333Y-60602857D01*
X124963333Y-60745714D01*
X124915714Y-60840952D01*
X124868095Y-60888571D01*
X124772857Y-60936190D01*
X124391904Y-60936190D01*
X125820476Y-60745714D02*
X125820476Y-61412380D01*
X125582380Y-60364761D02*
X125344285Y-61079047D01*
X125963333Y-61079047D01*
X97343833Y-51285380D02*
X97010500Y-50809190D01*
X96772404Y-51285380D02*
X96772404Y-50285380D01*
X97153357Y-50285380D01*
X97248595Y-50333000D01*
X97296214Y-50380619D01*
X97343833Y-50475857D01*
X97343833Y-50618714D01*
X97296214Y-50713952D01*
X97248595Y-50761571D01*
X97153357Y-50809190D01*
X96772404Y-50809190D01*
X97677166Y-50285380D02*
X98296214Y-50285380D01*
X97962880Y-50666333D01*
X98105738Y-50666333D01*
X98200976Y-50713952D01*
X98248595Y-50761571D01*
X98296214Y-50856809D01*
X98296214Y-51094904D01*
X98248595Y-51190142D01*
X98200976Y-51237761D01*
X98105738Y-51285380D01*
X97820023Y-51285380D01*
X97724785Y-51237761D01*
X97677166Y-51190142D01*
X109878833Y-42933880D02*
X109545500Y-42457690D01*
X109307404Y-42933880D02*
X109307404Y-41933880D01*
X109688357Y-41933880D01*
X109783595Y-41981500D01*
X109831214Y-42029119D01*
X109878833Y-42124357D01*
X109878833Y-42267214D01*
X109831214Y-42362452D01*
X109783595Y-42410071D01*
X109688357Y-42457690D01*
X109307404Y-42457690D01*
X110259785Y-42029119D02*
X110307404Y-41981500D01*
X110402642Y-41933880D01*
X110640738Y-41933880D01*
X110735976Y-41981500D01*
X110783595Y-42029119D01*
X110831214Y-42124357D01*
X110831214Y-42219595D01*
X110783595Y-42362452D01*
X110212166Y-42933880D01*
X110831214Y-42933880D01*
X109815333Y-44902380D02*
X109482000Y-44426190D01*
X109243904Y-44902380D02*
X109243904Y-43902380D01*
X109624857Y-43902380D01*
X109720095Y-43950000D01*
X109767714Y-43997619D01*
X109815333Y-44092857D01*
X109815333Y-44235714D01*
X109767714Y-44330952D01*
X109720095Y-44378571D01*
X109624857Y-44426190D01*
X109243904Y-44426190D01*
X110767714Y-44902380D02*
X110196285Y-44902380D01*
X110482000Y-44902380D02*
X110482000Y-43902380D01*
X110386761Y-44045238D01*
X110291523Y-44140476D01*
X110196285Y-44188095D01*
X117406904Y-58237380D02*
X117406904Y-57237380D01*
X117645000Y-57237380D01*
X117787857Y-57285000D01*
X117883095Y-57380238D01*
X117930714Y-57475476D01*
X117978333Y-57665952D01*
X117978333Y-57808809D01*
X117930714Y-57999285D01*
X117883095Y-58094523D01*
X117787857Y-58189761D01*
X117645000Y-58237380D01*
X117406904Y-58237380D01*
X118883095Y-57237380D02*
X118406904Y-57237380D01*
X118359285Y-57713571D01*
X118406904Y-57665952D01*
X118502142Y-57618333D01*
X118740238Y-57618333D01*
X118835476Y-57665952D01*
X118883095Y-57713571D01*
X118930714Y-57808809D01*
X118930714Y-58046904D01*
X118883095Y-58142142D01*
X118835476Y-58189761D01*
X118740238Y-58237380D01*
X118502142Y-58237380D01*
X118406904Y-58189761D01*
X118359285Y-58142142D01*
X119256428Y-59507380D02*
X119256428Y-58507380D01*
X119256428Y-58983571D02*
X119827857Y-58983571D01*
X119827857Y-59507380D02*
X119827857Y-58507380D01*
X120304047Y-59507380D02*
X120304047Y-58840714D01*
X120304047Y-58507380D02*
X120256428Y-58555000D01*
X120304047Y-58602619D01*
X120351666Y-58555000D01*
X120304047Y-58507380D01*
X120304047Y-58602619D01*
X121208809Y-58840714D02*
X121208809Y-59650238D01*
X121161190Y-59745476D01*
X121113571Y-59793095D01*
X121018333Y-59840714D01*
X120875476Y-59840714D01*
X120780238Y-59793095D01*
X121208809Y-59459761D02*
X121113571Y-59507380D01*
X120923095Y-59507380D01*
X120827857Y-59459761D01*
X120780238Y-59412142D01*
X120732619Y-59316904D01*
X120732619Y-59031190D01*
X120780238Y-58935952D01*
X120827857Y-58888333D01*
X120923095Y-58840714D01*
X121113571Y-58840714D01*
X121208809Y-58888333D01*
X121685000Y-59507380D02*
X121685000Y-58507380D01*
X122113571Y-59507380D02*
X122113571Y-58983571D01*
X122065952Y-58888333D01*
X121970714Y-58840714D01*
X121827857Y-58840714D01*
X121732619Y-58888333D01*
X121685000Y-58935952D01*
X117432404Y-55062380D02*
X117432404Y-54062380D01*
X117670500Y-54062380D01*
X117813357Y-54110000D01*
X117908595Y-54205238D01*
X117956214Y-54300476D01*
X118003833Y-54490952D01*
X118003833Y-54633809D01*
X117956214Y-54824285D01*
X117908595Y-54919523D01*
X117813357Y-55014761D01*
X117670500Y-55062380D01*
X117432404Y-55062380D01*
X118860976Y-54395714D02*
X118860976Y-55062380D01*
X118622880Y-54014761D02*
X118384785Y-54729047D01*
X119003833Y-54729047D01*
X120018333Y-56332380D02*
X119542142Y-56332380D01*
X119542142Y-55332380D01*
X120494523Y-56332380D02*
X120399285Y-56284761D01*
X120351666Y-56237142D01*
X120304047Y-56141904D01*
X120304047Y-55856190D01*
X120351666Y-55760952D01*
X120399285Y-55713333D01*
X120494523Y-55665714D01*
X120637380Y-55665714D01*
X120732619Y-55713333D01*
X120780238Y-55760952D01*
X120827857Y-55856190D01*
X120827857Y-56141904D01*
X120780238Y-56237142D01*
X120732619Y-56284761D01*
X120637380Y-56332380D01*
X120494523Y-56332380D01*
X121161190Y-55665714D02*
X121351666Y-56332380D01*
X121542142Y-55856190D01*
X121732619Y-56332380D01*
X121923095Y-55665714D01*
X117432404Y-51887380D02*
X117432404Y-50887380D01*
X117670500Y-50887380D01*
X117813357Y-50935000D01*
X117908595Y-51030238D01*
X117956214Y-51125476D01*
X118003833Y-51315952D01*
X118003833Y-51458809D01*
X117956214Y-51649285D01*
X117908595Y-51744523D01*
X117813357Y-51839761D01*
X117670500Y-51887380D01*
X117432404Y-51887380D01*
X118337166Y-50887380D02*
X118956214Y-50887380D01*
X118622880Y-51268333D01*
X118765738Y-51268333D01*
X118860976Y-51315952D01*
X118908595Y-51363571D01*
X118956214Y-51458809D01*
X118956214Y-51696904D01*
X118908595Y-51792142D01*
X118860976Y-51839761D01*
X118765738Y-51887380D01*
X118480023Y-51887380D01*
X118384785Y-51839761D01*
X118337166Y-51792142D01*
X117907142Y-53109761D02*
X118050000Y-53157380D01*
X118288095Y-53157380D01*
X118383333Y-53109761D01*
X118430952Y-53062142D01*
X118478571Y-52966904D01*
X118478571Y-52871666D01*
X118430952Y-52776428D01*
X118383333Y-52728809D01*
X118288095Y-52681190D01*
X118097619Y-52633571D01*
X118002380Y-52585952D01*
X117954761Y-52538333D01*
X117907142Y-52443095D01*
X117907142Y-52347857D01*
X117954761Y-52252619D01*
X118002380Y-52205000D01*
X118097619Y-52157380D01*
X118335714Y-52157380D01*
X118478571Y-52205000D01*
X118907142Y-53157380D02*
X118907142Y-52490714D01*
X118907142Y-52157380D02*
X118859523Y-52205000D01*
X118907142Y-52252619D01*
X118954761Y-52205000D01*
X118907142Y-52157380D01*
X118907142Y-52252619D01*
X119811904Y-52490714D02*
X119811904Y-53300238D01*
X119764285Y-53395476D01*
X119716666Y-53443095D01*
X119621428Y-53490714D01*
X119478571Y-53490714D01*
X119383333Y-53443095D01*
X119811904Y-53109761D02*
X119716666Y-53157380D01*
X119526190Y-53157380D01*
X119430952Y-53109761D01*
X119383333Y-53062142D01*
X119335714Y-52966904D01*
X119335714Y-52681190D01*
X119383333Y-52585952D01*
X119430952Y-52538333D01*
X119526190Y-52490714D01*
X119716666Y-52490714D01*
X119811904Y-52538333D01*
X120288095Y-52490714D02*
X120288095Y-53157380D01*
X120288095Y-52585952D02*
X120335714Y-52538333D01*
X120430952Y-52490714D01*
X120573809Y-52490714D01*
X120669047Y-52538333D01*
X120716666Y-52633571D01*
X120716666Y-53157380D01*
X121621428Y-53157380D02*
X121621428Y-52633571D01*
X121573809Y-52538333D01*
X121478571Y-52490714D01*
X121288095Y-52490714D01*
X121192857Y-52538333D01*
X121621428Y-53109761D02*
X121526190Y-53157380D01*
X121288095Y-53157380D01*
X121192857Y-53109761D01*
X121145238Y-53014523D01*
X121145238Y-52919285D01*
X121192857Y-52824047D01*
X121288095Y-52776428D01*
X121526190Y-52776428D01*
X121621428Y-52728809D01*
X122240476Y-53157380D02*
X122145238Y-53109761D01*
X122097619Y-53014523D01*
X122097619Y-52157380D01*
X117406904Y-48712380D02*
X117406904Y-47712380D01*
X117645000Y-47712380D01*
X117787857Y-47760000D01*
X117883095Y-47855238D01*
X117930714Y-47950476D01*
X117978333Y-48140952D01*
X117978333Y-48283809D01*
X117930714Y-48474285D01*
X117883095Y-48569523D01*
X117787857Y-48664761D01*
X117645000Y-48712380D01*
X117406904Y-48712380D01*
X118359285Y-47807619D02*
X118406904Y-47760000D01*
X118502142Y-47712380D01*
X118740238Y-47712380D01*
X118835476Y-47760000D01*
X118883095Y-47807619D01*
X118930714Y-47902857D01*
X118930714Y-47998095D01*
X118883095Y-48140952D01*
X118311666Y-48712380D01*
X118930714Y-48712380D01*
X119970714Y-49887142D02*
X119923095Y-49934761D01*
X119780238Y-49982380D01*
X119685000Y-49982380D01*
X119542142Y-49934761D01*
X119446904Y-49839523D01*
X119399285Y-49744285D01*
X119351666Y-49553809D01*
X119351666Y-49410952D01*
X119399285Y-49220476D01*
X119446904Y-49125238D01*
X119542142Y-49030000D01*
X119685000Y-48982380D01*
X119780238Y-48982380D01*
X119923095Y-49030000D01*
X119970714Y-49077619D01*
X120399285Y-49982380D02*
X120399285Y-48982380D01*
X120780238Y-48982380D01*
X120875476Y-49030000D01*
X120923095Y-49077619D01*
X120970714Y-49172857D01*
X120970714Y-49315714D01*
X120923095Y-49410952D01*
X120875476Y-49458571D01*
X120780238Y-49506190D01*
X120399285Y-49506190D01*
X121399285Y-48982380D02*
X121399285Y-49791904D01*
X121446904Y-49887142D01*
X121494523Y-49934761D01*
X121589761Y-49982380D01*
X121780238Y-49982380D01*
X121875476Y-49934761D01*
X121923095Y-49887142D01*
X121970714Y-49791904D01*
X121970714Y-48982380D01*
X111974333Y-47220142D02*
X111926714Y-47267761D01*
X111783857Y-47315380D01*
X111688619Y-47315380D01*
X111545761Y-47267761D01*
X111450523Y-47172523D01*
X111402904Y-47077285D01*
X111355285Y-46886809D01*
X111355285Y-46743952D01*
X111402904Y-46553476D01*
X111450523Y-46458238D01*
X111545761Y-46363000D01*
X111688619Y-46315380D01*
X111783857Y-46315380D01*
X111926714Y-46363000D01*
X111974333Y-46410619D01*
X112307666Y-46315380D02*
X112974333Y-46315380D01*
X112545761Y-47315380D01*
X101306333Y-58617142D02*
X101258714Y-58664761D01*
X101115857Y-58712380D01*
X101020619Y-58712380D01*
X100877761Y-58664761D01*
X100782523Y-58569523D01*
X100734904Y-58474285D01*
X100687285Y-58283809D01*
X100687285Y-58140952D01*
X100734904Y-57950476D01*
X100782523Y-57855238D01*
X100877761Y-57760000D01*
X101020619Y-57712380D01*
X101115857Y-57712380D01*
X101258714Y-57760000D01*
X101306333Y-57807619D01*
X102163476Y-57712380D02*
X101973000Y-57712380D01*
X101877761Y-57760000D01*
X101830142Y-57807619D01*
X101734904Y-57950476D01*
X101687285Y-58140952D01*
X101687285Y-58521904D01*
X101734904Y-58617142D01*
X101782523Y-58664761D01*
X101877761Y-58712380D01*
X102068238Y-58712380D01*
X102163476Y-58664761D01*
X102211095Y-58617142D01*
X102258714Y-58521904D01*
X102258714Y-58283809D01*
X102211095Y-58188571D01*
X102163476Y-58140952D01*
X102068238Y-58093333D01*
X101877761Y-58093333D01*
X101782523Y-58140952D01*
X101734904Y-58188571D01*
X101687285Y-58283809D01*
X111720333Y-56745142D02*
X111672714Y-56792761D01*
X111529857Y-56840380D01*
X111434619Y-56840380D01*
X111291761Y-56792761D01*
X111196523Y-56697523D01*
X111148904Y-56602285D01*
X111101285Y-56411809D01*
X111101285Y-56268952D01*
X111148904Y-56078476D01*
X111196523Y-55983238D01*
X111291761Y-55888000D01*
X111434619Y-55840380D01*
X111529857Y-55840380D01*
X111672714Y-55888000D01*
X111720333Y-55935619D01*
X112625095Y-55840380D02*
X112148904Y-55840380D01*
X112101285Y-56316571D01*
X112148904Y-56268952D01*
X112244142Y-56221333D01*
X112482238Y-56221333D01*
X112577476Y-56268952D01*
X112625095Y-56316571D01*
X112672714Y-56411809D01*
X112672714Y-56649904D01*
X112625095Y-56745142D01*
X112577476Y-56792761D01*
X112482238Y-56840380D01*
X112244142Y-56840380D01*
X112148904Y-56792761D01*
X112101285Y-56745142D01*
X109751833Y-46839142D02*
X109704214Y-46886761D01*
X109561357Y-46934380D01*
X109466119Y-46934380D01*
X109323261Y-46886761D01*
X109228023Y-46791523D01*
X109180404Y-46696285D01*
X109132785Y-46505809D01*
X109132785Y-46362952D01*
X109180404Y-46172476D01*
X109228023Y-46077238D01*
X109323261Y-45982000D01*
X109466119Y-45934380D01*
X109561357Y-45934380D01*
X109704214Y-45982000D01*
X109751833Y-46029619D01*
X110608976Y-46267714D02*
X110608976Y-46934380D01*
X110370880Y-45886761D02*
X110132785Y-46601047D01*
X110751833Y-46601047D01*
X111847333Y-50395142D02*
X111799714Y-50442761D01*
X111656857Y-50490380D01*
X111561619Y-50490380D01*
X111418761Y-50442761D01*
X111323523Y-50347523D01*
X111275904Y-50252285D01*
X111228285Y-50061809D01*
X111228285Y-49918952D01*
X111275904Y-49728476D01*
X111323523Y-49633238D01*
X111418761Y-49538000D01*
X111561619Y-49490380D01*
X111656857Y-49490380D01*
X111799714Y-49538000D01*
X111847333Y-49585619D01*
X112180666Y-49490380D02*
X112799714Y-49490380D01*
X112466380Y-49871333D01*
X112609238Y-49871333D01*
X112704476Y-49918952D01*
X112752095Y-49966571D01*
X112799714Y-50061809D01*
X112799714Y-50299904D01*
X112752095Y-50395142D01*
X112704476Y-50442761D01*
X112609238Y-50490380D01*
X112323523Y-50490380D01*
X112228285Y-50442761D01*
X112180666Y-50395142D01*
X93510833Y-47187142D02*
X93463214Y-47234761D01*
X93320357Y-47282380D01*
X93225119Y-47282380D01*
X93082261Y-47234761D01*
X92987023Y-47139523D01*
X92939404Y-47044285D01*
X92891785Y-46853809D01*
X92891785Y-46710952D01*
X92939404Y-46520476D01*
X92987023Y-46425238D01*
X93082261Y-46330000D01*
X93225119Y-46282380D01*
X93320357Y-46282380D01*
X93463214Y-46330000D01*
X93510833Y-46377619D01*
X93891785Y-46377619D02*
X93939404Y-46330000D01*
X94034642Y-46282380D01*
X94272738Y-46282380D01*
X94367976Y-46330000D01*
X94415595Y-46377619D01*
X94463214Y-46472857D01*
X94463214Y-46568095D01*
X94415595Y-46710952D01*
X93844166Y-47282380D01*
X94463214Y-47282380D01*
X93510833Y-59445142D02*
X93463214Y-59492761D01*
X93320357Y-59540380D01*
X93225119Y-59540380D01*
X93082261Y-59492761D01*
X92987023Y-59397523D01*
X92939404Y-59302285D01*
X92891785Y-59111809D01*
X92891785Y-58968952D01*
X92939404Y-58778476D01*
X92987023Y-58683238D01*
X93082261Y-58588000D01*
X93225119Y-58540380D01*
X93320357Y-58540380D01*
X93463214Y-58588000D01*
X93510833Y-58635619D01*
X94463214Y-59540380D02*
X93891785Y-59540380D01*
X94177500Y-59540380D02*
X94177500Y-58540380D01*
X94082261Y-58683238D01*
X93987023Y-58778476D01*
X93891785Y-58826095D01*
X92019380Y-43918095D02*
X91019380Y-43918095D01*
X91019380Y-43680000D01*
X91067000Y-43537142D01*
X91162238Y-43441904D01*
X91257476Y-43394285D01*
X91447952Y-43346666D01*
X91590809Y-43346666D01*
X91781285Y-43394285D01*
X91876523Y-43441904D01*
X91971761Y-43537142D01*
X92019380Y-43680000D01*
X92019380Y-43918095D01*
X91019380Y-43013333D02*
X91019380Y-42346666D01*
X92019380Y-42775238D01*
X96258404Y-59888380D02*
X96258404Y-58888380D01*
X96496500Y-58888380D01*
X96639357Y-58936000D01*
X96734595Y-59031238D01*
X96782214Y-59126476D01*
X96829833Y-59316952D01*
X96829833Y-59459809D01*
X96782214Y-59650285D01*
X96734595Y-59745523D01*
X96639357Y-59840761D01*
X96496500Y-59888380D01*
X96258404Y-59888380D01*
X97686976Y-58888380D02*
X97496500Y-58888380D01*
X97401261Y-58936000D01*
X97353642Y-58983619D01*
X97258404Y-59126476D01*
X97210785Y-59316952D01*
X97210785Y-59697904D01*
X97258404Y-59793142D01*
X97306023Y-59840761D01*
X97401261Y-59888380D01*
X97591738Y-59888380D01*
X97686976Y-59840761D01*
X97734595Y-59793142D01*
X97782214Y-59697904D01*
X97782214Y-59459809D01*
X97734595Y-59364571D01*
X97686976Y-59316952D01*
X97591738Y-59269333D01*
X97401261Y-59269333D01*
X97306023Y-59316952D01*
X97258404Y-59364571D01*
X97210785Y-59459809D01*
X113656904Y-42957380D02*
X113656904Y-41957380D01*
X113895000Y-41957380D01*
X114037857Y-42005000D01*
X114133095Y-42100238D01*
X114180714Y-42195476D01*
X114228333Y-42385952D01*
X114228333Y-42528809D01*
X114180714Y-42719285D01*
X114133095Y-42814523D01*
X114037857Y-42909761D01*
X113895000Y-42957380D01*
X113656904Y-42957380D01*
X115180714Y-42957380D02*
X114609285Y-42957380D01*
X114895000Y-42957380D02*
X114895000Y-41957380D01*
X114799761Y-42100238D01*
X114704523Y-42195476D01*
X114609285Y-42243095D01*
X95932666Y-37298380D02*
X95932666Y-38012666D01*
X95885047Y-38155523D01*
X95789809Y-38250761D01*
X95646952Y-38298380D01*
X95551714Y-38298380D01*
X96932666Y-38298380D02*
X96361238Y-38298380D01*
X96646952Y-38298380D02*
X96646952Y-37298380D01*
X96551714Y-37441238D01*
X96456476Y-37536476D01*
X96361238Y-37584095D01*
X87177666Y-65111380D02*
X87177666Y-65825666D01*
X87130047Y-65968523D01*
X87034809Y-66063761D01*
X86891952Y-66111380D01*
X86796714Y-66111380D01*
X87653857Y-66111380D02*
X87653857Y-65111380D01*
X88034809Y-65111380D01*
X88130047Y-65159000D01*
X88177666Y-65206619D01*
X88225285Y-65301857D01*
X88225285Y-65444714D01*
X88177666Y-65539952D01*
X88130047Y-65587571D01*
X88034809Y-65635190D01*
X87653857Y-65635190D01*
X89177666Y-66111380D02*
X88606238Y-66111380D01*
X88891952Y-66111380D02*
X88891952Y-65111380D01*
X88796714Y-65254238D01*
X88701476Y-65349476D01*
X88606238Y-65397095D01*
X92812047Y-65984380D02*
X92812047Y-64984380D01*
X93116809Y-64984380D01*
X93193000Y-65032000D01*
X93231095Y-65079619D01*
X93269190Y-65174857D01*
X93269190Y-65317714D01*
X93231095Y-65412952D01*
X93193000Y-65460571D01*
X93116809Y-65508190D01*
X92812047Y-65508190D01*
X93954904Y-65984380D02*
X93954904Y-65460571D01*
X93916809Y-65365333D01*
X93840619Y-65317714D01*
X93688238Y-65317714D01*
X93612047Y-65365333D01*
X93954904Y-65936761D02*
X93878714Y-65984380D01*
X93688238Y-65984380D01*
X93612047Y-65936761D01*
X93573952Y-65841523D01*
X93573952Y-65746285D01*
X93612047Y-65651047D01*
X93688238Y-65603428D01*
X93878714Y-65603428D01*
X93954904Y-65555809D01*
X94297761Y-65936761D02*
X94373952Y-65984380D01*
X94526333Y-65984380D01*
X94602523Y-65936761D01*
X94640619Y-65841523D01*
X94640619Y-65793904D01*
X94602523Y-65698666D01*
X94526333Y-65651047D01*
X94412047Y-65651047D01*
X94335857Y-65603428D01*
X94297761Y-65508190D01*
X94297761Y-65460571D01*
X94335857Y-65365333D01*
X94412047Y-65317714D01*
X94526333Y-65317714D01*
X94602523Y-65365333D01*
X94945380Y-65936761D02*
X95021571Y-65984380D01*
X95173952Y-65984380D01*
X95250142Y-65936761D01*
X95288238Y-65841523D01*
X95288238Y-65793904D01*
X95250142Y-65698666D01*
X95173952Y-65651047D01*
X95059666Y-65651047D01*
X94983476Y-65603428D01*
X94945380Y-65508190D01*
X94945380Y-65460571D01*
X94983476Y-65365333D01*
X95059666Y-65317714D01*
X95173952Y-65317714D01*
X95250142Y-65365333D01*
X95516809Y-64984380D02*
X95973952Y-64984380D01*
X95745380Y-65984380D02*
X95745380Y-64984380D01*
X96240619Y-65984380D02*
X96240619Y-64984380D01*
X96583476Y-65984380D02*
X96583476Y-65460571D01*
X96545380Y-65365333D01*
X96469190Y-65317714D01*
X96354904Y-65317714D01*
X96278714Y-65365333D01*
X96240619Y-65412952D01*
X96964428Y-65984380D02*
X96964428Y-65317714D01*
X96964428Y-65508190D02*
X97002523Y-65412952D01*
X97040619Y-65365333D01*
X97116809Y-65317714D01*
X97193000Y-65317714D01*
X97573952Y-65984380D02*
X97497761Y-65936761D01*
X97459666Y-65889142D01*
X97421571Y-65793904D01*
X97421571Y-65508190D01*
X97459666Y-65412952D01*
X97497761Y-65365333D01*
X97573952Y-65317714D01*
X97688238Y-65317714D01*
X97764428Y-65365333D01*
X97802523Y-65412952D01*
X97840619Y-65508190D01*
X97840619Y-65793904D01*
X97802523Y-65889142D01*
X97764428Y-65936761D01*
X97688238Y-65984380D01*
X97573952Y-65984380D01*
X98526333Y-65317714D02*
X98526333Y-65984380D01*
X98183476Y-65317714D02*
X98183476Y-65841523D01*
X98221571Y-65936761D01*
X98297761Y-65984380D01*
X98412047Y-65984380D01*
X98488238Y-65936761D01*
X98526333Y-65889142D01*
X99250142Y-65317714D02*
X99250142Y-66127238D01*
X99212047Y-66222476D01*
X99173952Y-66270095D01*
X99097761Y-66317714D01*
X98983476Y-66317714D01*
X98907285Y-66270095D01*
X99250142Y-65936761D02*
X99173952Y-65984380D01*
X99021571Y-65984380D01*
X98945380Y-65936761D01*
X98907285Y-65889142D01*
X98869190Y-65793904D01*
X98869190Y-65508190D01*
X98907285Y-65412952D01*
X98945380Y-65365333D01*
X99021571Y-65317714D01*
X99173952Y-65317714D01*
X99250142Y-65365333D01*
X99631095Y-65984380D02*
X99631095Y-64984380D01*
X99973952Y-65984380D02*
X99973952Y-65460571D01*
X99935857Y-65365333D01*
X99859666Y-65317714D01*
X99745380Y-65317714D01*
X99669190Y-65365333D01*
X99631095Y-65412952D01*
X108412380Y-54101904D02*
X109221904Y-54101904D01*
X109317142Y-54054285D01*
X109364761Y-54006666D01*
X109412380Y-53911428D01*
X109412380Y-53720952D01*
X109364761Y-53625714D01*
X109317142Y-53578095D01*
X109221904Y-53530476D01*
X108412380Y-53530476D01*
X109412380Y-52530476D02*
X109412380Y-53101904D01*
X109412380Y-52816190D02*
X108412380Y-52816190D01*
X108555238Y-52911428D01*
X108650476Y-53006666D01*
X108698095Y-53101904D01*
M02*
